<?xml version="1.0" standalone="no"?>
<!DOCTYPE svg PUBLIC "-//W3C//DTD SVG 1.1//EN" "http://www.w3.org/Graphics/SVG/1.1/DTD/svg11.dtd" >
<svg xmlns="http://www.w3.org/2000/svg" xmlns:xlink="http://www.w3.org/1999/xlink" version="1.1">
<metadata>
Created by FontForge 20170731 at Wed Dec  6 20:29:20 2017
 By Aleksey,,,
Copyright (c) 2018 by TypeType. Designer Ivan Gladkikh, technical designers Philipp Nurullin, Nadyr Rakhimov, Olexa Volochay, Vika Usmanova. All rights reserved.
</metadata>
<defs>
<font id="TTWellingtons-DemiBold" horiz-adv-x="570" >
  <font-face 
    font-family="TT Wellingtons DemiBold"
    font-weight="600"
    font-stretch="normal"
    units-per-em="1000"
    panose-1="2 0 5 3 0 0 0 2 0 4"
    ascent="800"
    descent="-200"
    x-height="520"
    cap-height="730"
    bbox="-210 -285 1438 1020"
    underline-thickness="50"
    underline-position="-200"
    unicode-range="U+000D-FB14"
  />
<missing-glyph horiz-adv-x="590" 
d="M95 730h400v-730h-400v730zM425 45l-130 270l-130 -270h260zM295 415l130 270h-260zM320 365l130 -270v540zM270 365l-130 270v-540z" />
    <glyph glyph-name="f_f" unicode="ff" horiz-adv-x="790" 
d="M505 520v80q0 89 47 139.5t123 50.5q40 0 73.5 -11t47.5 -23l14 -11l-40 -85q-20 25 -70 25q-35 0 -57.5 -23.5t-22.5 -66.5v-75h165v-105h-165v-415h-115v415h-270v-415h-115v415h-95v105h95v60q0 89 47 139.5t123 50.5q40 0 73.5 -11t47.5 -23l14 -11l-40 -85
q-20 25 -70 25q-35 0 -57.5 -23.5t-22.5 -66.5v-55h270z" />
    <glyph glyph-name="f_i" unicode="fi" horiz-adv-x="670" 
d="M120 520v80q0 89 47 139.5t123 50.5q40 0 73.5 -11t47.5 -23l14 -11l-40 -85q-20 25 -70 25q-35 0 -57.5 -23.5t-22.5 -66.5v-75h302q15 0 29.5 2.5t21.5 5.5l7 2v-530h-115v415h-245v-415h-115v415h-95v105h95zM470 692q0 31 19 49.5t48 18.5t48.5 -18.5t19.5 -49.5
t-19.5 -49t-48.5 -18t-48 18t-19 49z" />
    <glyph glyph-name="f_l" unicode="fl" horiz-adv-x="670" 
d="M315 685q-35 0 -57.5 -23.5t-22.5 -66.5v-75h165v-105h-165v-415h-115v415h-95v105h95v80q0 89 47 139.5t123 50.5q44 0 102 -10t88 -10h115v-770h-115v665q-33 0 -84.5 10t-80.5 10z" />
    <glyph glyph-name="f_f_i" unicode="ffi" horiz-adv-x="1030" 
d="M480 520v80q0 89 47 139.5t123 50.5q40 0 74 -11t48 -23l13 -11l-40 -85q-20 25 -70 25q-35 0 -57.5 -23.5t-22.5 -66.5v-75h302q15 0 29.5 2.5t21.5 5.5l7 2v-530h-115v415h-245v-415h-115v415h-245v-415h-115v415h-95v105h95v60q0 89 47 139.5t123 50.5q40 0 73.5 -11
t47.5 -23l14 -11l-40 -85q-20 25 -70 25q-35 0 -57.5 -23.5t-22.5 -66.5v-55h245zM830 692q0 31 19 49.5t48 18.5t48.5 -18.5t19.5 -49.5t-19.5 -49t-48.5 -18t-48 18t-19 49z" />
    <glyph glyph-name="f_f_l" unicode="ffl" horiz-adv-x="1030" 
d="M120 520v60q0 89 47 139.5t123 50.5q40 0 73.5 -11t47.5 -23l14 -11l-40 -85q-20 25 -70 25q-35 0 -57.5 -23.5t-22.5 -66.5v-55h245v80q0 89 47 139.5t123 50.5q44 0 102 -10t88 -10h115v-770h-115v665q-33 0 -84.5 10t-80.5 10q-35 0 -57.5 -23.5t-22.5 -66.5v-75h165
v-105h-165v-415h-115v415h-245v-415h-115v415h-95v105h95z" />
    <glyph glyph-name="f_f_b" unicode="ffb" horiz-adv-x="1425" 
d="M1375 260q0 -125 -79 -200t-216 -75q-60 0 -120 8.5t-90 17.5l-30 9v645q-33 0 -84.5 10t-80.5 10q-35 0 -57.5 -23.5t-22.5 -66.5v-75h165v-105h-165v-415h-115v415h-245v-415h-115v415h-95v105h95v60q0 89 47 139.5t123 50.5q40 0 73.5 -11t47.5 -23l14 -11l-40 -85
q-20 25 -70 25q-35 0 -57.5 -23.5t-22.5 -66.5v-55h245v80q0 89 47 139.5t123 50.5q44 0 102 -10t88 -10h115v-310h5q2 3 6 8t19 18t33 23t48 18t64 8q107 0 176 -75t69 -200zM955 340v-230q50 -20 125 -20q79 0 127 46t48 124q0 80 -42 125t-108 45q-31 0 -57.5 -9.5
t-43 -22.5t-28 -26t-16.5 -22z" />
    <glyph glyph-name="f_f_f" unicode="fff" horiz-adv-x="1150" 
d="M840 520v60q0 89 47 139.5t123 50.5q40 0 74 -11t48 -23l13 -11l-40 -85q-20 25 -70 25q-35 0 -57.5 -23.5t-22.5 -66.5v-55h165v-105h-165v-415h-115v415h-245v-415h-115v415h-245v-415h-115v415h-95v105h95v60q0 89 47 139.5t123 50.5q40 0 73.5 -11t47.5 -23l14 -11
l-40 -85q-20 25 -70 25q-35 0 -57.5 -23.5t-22.5 -66.5v-55h245v80q0 89 47 139.5t123 50.5q40 0 74 -11t48 -23l13 -11l-40 -85q-20 25 -70 25q-35 0 -57.5 -23.5t-22.5 -66.5v-75h245z" />
    <glyph glyph-name="f_f_h" unicode="ffh" horiz-adv-x="1405" 
d="M120 520v60q0 89 47 139.5t123 50.5q40 0 73.5 -11t47.5 -23l14 -11l-40 -85q-20 25 -70 25q-35 0 -57.5 -23.5t-22.5 -66.5v-55h245v80q0 89 47 139.5t123 50.5q44 0 102 -10t88 -10h115v-330h5q2 4 5.5 10.5t18 22.5t32.5 28.5t48.5 23t65.5 10.5q94 0 149.5 -57
t55.5 -158v-320h-115v315q0 55 -31 85t-84 30q-61 0 -105.5 -43.5t-44.5 -106.5v-280h-115v665q-33 0 -84.5 10t-80.5 10q-35 0 -57.5 -23.5t-22.5 -66.5v-75h165v-105h-165v-415h-115v415h-245v-415h-115v415h-95v105h95z" />
    <glyph glyph-name="f_f_j" unicode="ffj" horiz-adv-x="1030" 
d="M480 520v80q0 89 47 139.5t123 50.5q40 0 74 -11t48 -23l13 -11l-40 -85q-20 25 -70 25q-35 0 -57.5 -23.5t-22.5 -66.5v-75h302q15 0 29.5 2.5t21.5 5.5l7 2v-540q0 -96 -53 -153.5t-137 -61.5l-25 105q46 4 73 33t27 77v425h-245v-415h-115v415h-245v-415h-115v415h-95
v105h95v60q0 89 47 139.5t123 50.5q40 0 73.5 -11t47.5 -23l14 -11l-40 -85q-20 25 -70 25q-35 0 -57.5 -23.5t-22.5 -66.5v-55h245zM830 692q0 31 19 49.5t48 18.5t48.5 -18.5t19.5 -49.5t-19.5 -49t-48.5 -18t-48 18t-19 49z" />
    <glyph glyph-name="f_f_k" unicode="ffk" horiz-adv-x="1335" 
d="M840 0v665q-33 0 -84.5 10t-80.5 10q-35 0 -57.5 -23.5t-22.5 -66.5v-75h165v-105h-165v-415h-115v415h-245v-415h-115v415h-95v105h95v60q0 89 47 139.5t123 50.5q40 0 73.5 -11t47.5 -23l14 -11l-40 -85q-20 25 -70 25q-35 0 -57.5 -23.5t-22.5 -66.5v-55h245v80
q0 89 47 139.5t123 50.5q44 0 102 -10t88 -10h115v-485l235 235h140l-225 -225l240 -295h-135l-180 220l-75 -75v-145h-115z" />
    <glyph glyph-name="f_h" unicode="fh" horiz-adv-x="1045" 
d="M975 0h-115v315q0 55 -31 85t-84 30q-61 0 -105.5 -43.5t-44.5 -106.5v-280h-115v665q-33 0 -84.5 10t-80.5 10q-35 0 -57.5 -23.5t-22.5 -66.5v-75h165v-105h-165v-415h-115v415h-95v105h95v80q0 89 47 139.5t123 50.5q44 0 102 -10t88 -10h115v-330h5q2 4 5.5 10.5
t18 22.5t32.5 28.5t48.5 23t65.5 10.5q94 0 149.5 -57t55.5 -158v-320z" />
    <glyph glyph-name="f_j" unicode="fj" horiz-adv-x="670" 
d="M120 520v80q0 89 47 139.5t123 50.5q40 0 73.5 -11t47.5 -23l14 -11l-40 -85q-20 25 -70 25q-35 0 -57.5 -23.5t-22.5 -66.5v-75h302q15 0 29.5 2.5t21.5 5.5l7 2v-540q0 -99 -51 -155t-139 -60l-25 105q47 4 73.5 31.5t26.5 78.5v425h-245v-415h-115v415h-95v105h95z
M470 692q0 31 19 49.5t48 18.5t48.5 -18.5t19.5 -49.5t-19.5 -49t-48.5 -18t-48 18t-19 49z" />
    <glyph glyph-name="f_k" unicode="fk" horiz-adv-x="975" 
d="M480 0v665q-33 0 -84.5 10t-80.5 10q-35 0 -57.5 -23.5t-22.5 -66.5v-75h165v-105h-165v-415h-115v415h-95v105h95v80q0 89 47 139.5t123 50.5q44 0 102 -10t88 -10h115v-485l235 235h140l-225 -225l240 -295h-135l-180 220l-75 -75v-145h-115z" />
    <glyph glyph-name="f_t" unicode="ft" horiz-adv-x="815" 
d="M120 520v80q0 89 47 139.5t123 50.5q40 0 73.5 -11t47.5 -23l14 -11l-40 -85q-20 25 -70 25q-35 0 -57.5 -23.5t-22.5 -66.5v-75h205l145 155h5v-155h165v-105h-165v-235q0 -43 22.5 -66.5t57.5 -23.5q24 0 45.5 10t30.5 20l9 11h15v-101q-5 -5 -14.5 -12.5t-42 -20
t-68.5 -12.5q-76 0 -123 50.5t-47 139.5v240h-240v-415h-115v415h-95v105h95z" />
    <glyph glyph-name="f_b" unicode="fb" horiz-adv-x="1065" 
d="M1015 260q0 -125 -79 -200t-216 -75q-60 0 -120 8.5t-90 17.5l-30 9v645q-33 0 -84.5 10t-80.5 10q-35 0 -57.5 -23.5t-22.5 -66.5v-75h165v-105h-165v-415h-115v415h-95v105h95v80q0 89 47 139.5t123 50.5q44 0 102 -10t88 -10h115v-310h5q2 3 6 8t19 18t33 23t48 18
t64 8q107 0 176 -75t69 -200zM595 340v-230q50 -20 125 -20q79 0 127 46t48 124q0 80 -42 125t-108 45q-31 0 -57.5 -9.5t-43 -22.5t-28 -26t-16.5 -22z" />
    <glyph glyph-name=".notdef" horiz-adv-x="590" 
d="M95 730h400v-730h-400v730zM425 45l-130 270l-130 -270h260zM295 415l130 270h-260zM320 365l130 -270v540zM270 365l-130 270v-540z" />
    <glyph glyph-name=".null" horiz-adv-x="0" 
 />
    <glyph glyph-name=".null" horiz-adv-x="0" 
 />
    <glyph glyph-name="nonmarkingreturn" horiz-adv-x="333" 
 />
    <glyph glyph-name="CR" unicode="&#xd;" horiz-adv-x="0" 
 />
    <glyph glyph-name="space" unicode=" " horiz-adv-x="265" 
 />
    <glyph glyph-name="exclam" unicode="!" horiz-adv-x="290" 
d="M205 572l-20 -362h-80l-20 362v228h120v-228zM80 55q0 30 17.5 47.5t47.5 17.5t47.5 -17.5t17.5 -47.5t-17.5 -47.5t-47.5 -17.5t-47.5 17.5t-17.5 47.5z" />
    <glyph glyph-name="quotedbl" unicode="&#x22;" horiz-adv-x="425" 
d="M80 520l-15 190v90h110v-90l-15 -190h-80zM265 520l-15 190v90h110v-90l-15 -190h-80z" />
    <glyph glyph-name="numbersign" unicode="#" horiz-adv-x="730" 
d="M365 0l37 180h-147l-38 -180h-107l37 180h-112v90h130l37 190h-127v90h145l37 180h108l-38 -180h148l37 180h108l-38 -180h113v-90h-130l-38 -190h128v-90h-145l-38 -180h-107zM310 460l-38 -190h148l37 190h-147z" />
    <glyph glyph-name="dollar" unicode="$" horiz-adv-x="580" 
d="M360 825v-88q40 -10 76 -30.5t52 -36.5l17 -15l-40 -95q-2 3 -7 8t-21 18t-34.5 23t-47.5 18t-60 8q-52 0 -81 -23.5t-29 -61.5q0 -29 26 -54t65 -42t84 -41t84 -48.5t65 -66t26 -93.5q0 -79 -46.5 -135t-128.5 -75v-90h-120v85q-53 2 -102 23.5t-71 41.5l-22 20l40 95
q3 -3 9 -8t25 -18t39.5 -23t52.5 -18t64 -8q62 0 98.5 28.5t36.5 71.5q0 38 -36 68t-87.5 54t-103 51.5t-87.5 75t-36 111.5q0 68 49 119t131 66v85h120z" />
    <glyph glyph-name="percent" unicode="%" horiz-adv-x="890" 
d="M130 575q0 -37 22.5 -58.5t57.5 -21.5t57.5 21.5t22.5 58.5t-22.5 58.5t-57.5 21.5t-57.5 -21.5t-22.5 -58.5zM265 0h-115l475 730h115zM385 575q0 -72 -50 -121t-125 -49t-125 49t-50 121t50 121t125 49t125 -49t50 -121zM600 155q0 -37 22.5 -58.5t57.5 -21.5
t57.5 21.5t22.5 58.5t-22.5 58.5t-57.5 21.5t-57.5 -21.5t-22.5 -58.5zM855 155q0 -72 -50 -121t-125 -49t-125 49t-50 121t50 121t125 49t125 -49t50 -121z" />
    <glyph glyph-name="ampersand" unicode="&#x26;" horiz-adv-x="725" 
d="M585 160l170 -160h-155l-95 90q-4 -4 -11.5 -11t-32.5 -25.5t-52.5 -32t-70.5 -25t-88 -11.5q-102 0 -163.5 54.5t-61.5 135.5q0 42 16.5 79.5t40 61.5t47 41.5t39.5 24.5l17 8q-8 8 -19.5 22t-31 56t-19.5 82q0 87 55 141t145 54q82 0 131 -47t49 -123q0 -35 -15 -68
t-36.5 -55t-42.5 -39t-36 -25l-15 -8l155 -145l185 160v-140zM425 160l-175 165q-4 -2 -11 -6t-24 -17t-30 -27.5t-24 -37.5t-11 -47q0 -45 29 -70t81 -25q44 0 85.5 16.5t60.5 32.5zM390 567q0 32 -22 52.5t-53 20.5q-39 0 -62 -23t-23 -67q0 -27 15 -54.5t30 -41.5l15 -14
q4 2 11 6.5t24 17.5t30 27t24 35t11 41z" />
    <glyph glyph-name="quotesingle" unicode="'" horiz-adv-x="240" 
d="M80 520l-15 190v90h110v-90l-15 -190h-80z" />
    <glyph glyph-name="parenleft" unicode="(" horiz-adv-x="360" 
d="M180 290q0 -84 16 -167.5t39 -142.5t45.5 -106t38.5 -70l16 -24h-95q-7 9 -19 24.5t-42 68t-53 108.5t-42 140.5t-19 168.5t18 167.5t43.5 142.5t51.5 106t44 70l18 24h95q-6 -9 -16.5 -24.5t-37.5 -68t-47 -108.5t-37 -140.5t-17 -168.5z" />
    <glyph glyph-name="parenright" unicode=")" horiz-adv-x="360" 
d="M180 290q0 84 -16 167.5t-38.5 142.5t-45.5 106t-39 70l-16 24h95q7 -9 19 -24.5t42 -68t53 -108.5t42 -140.5t19 -168.5t-18 -167.5t-43.5 -142.5t-51.5 -106t-44 -70l-18 -24h-95q6 9 16.5 24.5t37.5 68t47 108.5t37 140.5t17 168.5z" />
    <glyph glyph-name="asterisk" unicode="*" horiz-adv-x="450" 
d="M265 750v-120l120 45l30 -70l-125 -50l85 -95l-65 -55l-85 105l-85 -105l-65 55l85 95l-125 50l30 70l120 -45v120h80z" />
    <glyph glyph-name="plus" unicode="+" horiz-adv-x="530" 
d="M490 380v-105h-175v-170h-100v170h-175v105h175v170h100v-170h175z" />
    <glyph glyph-name="comma" unicode="," horiz-adv-x="200" 
d="M35 55q0 29 19 47t46 18q28 0 46.5 -19t18.5 -51t-8 -63t-20 -52t-24 -37.5t-20 -24.5l-8 -8h-45q55 70 55 125q-60 9 -60 65z" />
    <glyph glyph-name="hyphen" unicode="-" horiz-adv-x="410" 
d="M40 275v105h330v-105h-330z" />
    <glyph glyph-name="period" unicode="." horiz-adv-x="200" 
d="M35 55q0 29 19 47t46 18t46 -18t19 -47t-19 -47t-46 -18t-46 18t-19 47z" />
    <glyph glyph-name="slash" unicode="/" horiz-adv-x="500" 
d="M0 -220l390 1020h110l-390 -1020h-110z" />
    <glyph glyph-name="zero" unicode="0" horiz-adv-x="660" 
d="M170 260q0 -75 44 -120t116 -45t116 45t44 120t-44 120t-116 45t-116 -45t-44 -120zM615 260q0 -117 -81 -196t-204 -79t-204 79t-81 196t81 196t204 79t204 -79t81 -196z" />
    <glyph glyph-name="one" unicode="1" horiz-adv-x="375" 
d="M35 300v120l170 100h90v-520h-120v380z" />
    <glyph glyph-name="two" unicode="2" horiz-adv-x="530" 
d="M25 15l250 230q7 6 17 16t26.5 38.5t16.5 55.5q0 70 -85 70q-44 0 -89 -27.5t-68 -55.5l-23 -27h-15v125q3 4 9.5 10.5t28 22.5t44 28.5t56 23t67.5 10.5q95 0 147.5 -48.5t52.5 -126.5q0 -42 -24 -84.5t-48 -63.5l-23 -22l-85 -80h195v-110h-450v15z" />
    <glyph glyph-name="three" unicode="3" horiz-adv-x="540" 
d="M235 140q-27 0 -49.5 -6t-31.5 -12l-9 -7l-55 75l190 220h-225v110h430v-15l-220 -260v-5q110 0 177.5 -65.5t67.5 -164.5q0 -104 -72.5 -169.5t-197.5 -65.5q-62 0 -117 21.5t-79 42.5l-24 21l40 95q7 -8 20 -19.5t60 -31t100 -19.5q71 0 110.5 35t39.5 95q0 57 -42 91
t-113 34z" />
    <glyph glyph-name="four" unicode="4" horiz-adv-x="605" 
d="M585 110v-110h-105v-210h-120v210h-345v15l280 505h130l-233 -410h168v170h120v-170h105z" />
    <glyph glyph-name="five" unicode="5" horiz-adv-x="575" 
d="M410 25q0 64 -41 102t-109 38q-22 0 -43 -5.5t-35.5 -13.5t-25.5 -16.5t-16 -13.5l-5 -6l-70 40l55 370h385v-110h-290l-25 -160q35 20 90 20q114 0 182 -69t68 -176q0 -108 -73 -179t-197 -71q-62 0 -118.5 21.5t-81.5 42.5l-25 21l40 100q9 -8 25 -20.5t64.5 -33.5
t95.5 -21q68 0 109 38t41 102z" />
    <glyph glyph-name="six" unicode="6" horiz-adv-x="620" 
d="M300 730h150q-8 -6 -21 -16.5t-49 -44.5t-66.5 -68.5t-63.5 -84.5t-50 -96h5q5 5 15 12.5t43.5 20t71.5 12.5q107 0 173.5 -68.5t66.5 -171.5t-72.5 -171.5t-187.5 -68.5q-120 0 -192.5 73.5t-72.5 196.5q0 53 14 108t36 100t48.5 87.5t53 74.5t48.5 56t36 37zM315 360
q-61 0 -100.5 -38t-39.5 -97t39.5 -97t100.5 -38t98 36t37 99t-37 99t-98 36z" />
    <glyph glyph-name="seven" unicode="7" horiz-adv-x="535" 
d="M245 -210h-125l235 620h-325v110h480v-15z" />
    <glyph glyph-name="eight" unicode="8" horiz-adv-x="630" 
d="M315 90q64 0 102 34.5t38 90.5t-38 90.5t-102 34.5t-102 -34.5t-38 -90.5t38 -90.5t102 -34.5zM315 440q49 0 79.5 27.5t30.5 72.5t-30.5 72.5t-79.5 27.5t-79.5 -27.5t-30.5 -72.5t30.5 -72.5t79.5 -27.5zM315 -15q-120 0 -192.5 63.5t-72.5 156.5q0 41 13.5 75
t32.5 53.5t38 33t32 18.5l14 5v5q-4 2 -10.5 5t-22.5 16t-28.5 28.5t-23 42.5t-10.5 58q0 85 62 142.5t168 57.5t168 -57.5t62 -142.5q0 -31 -10 -57.5t-23.5 -43t-27.5 -28t-24 -16.5l-10 -5v-5q5 -2 14 -5.5t31.5 -18t39.5 -33.5t31 -53t14 -75q0 -93 -72.5 -156.5
t-192.5 -63.5z" />
    <glyph glyph-name="nine" unicode="9" horiz-adv-x="620" 
d="M320 -210h-150q8 6 21 16.5t49 44.5t66.5 68.5t63.5 84.5t50 96h-5q-5 -5 -15 -12.5t-43.5 -20t-71.5 -12.5q-107 0 -173.5 68.5t-66.5 171.5t72.5 171.5t187.5 68.5q120 0 192.5 -73.5t72.5 -196.5q0 -53 -14 -108t-36 -100t-48.5 -87.5t-53 -74.5t-48.5 -56t-36 -37z
M305 160q61 0 100.5 38t39.5 97t-39.5 97t-100.5 38t-98 -36t-37 -99t37 -99t98 -36z" />
    <glyph glyph-name="colon" unicode=":" horiz-adv-x="210" 
d="M40 55q0 29 19 47t46 18t46 -18t19 -47t-19 -47t-46 -18t-46 18t-19 47zM40 475q0 29 19 47t46 18t46 -18t19 -47t-19 -47t-46 -18t-46 18t-19 47z" />
    <glyph glyph-name="semicolon" unicode=";" horiz-adv-x="210" 
d="M40 55q0 29 19 47t46 18t46 -19t19 -51t-8 -63t-20 -52t-24 -37.5t-20 -24.5l-8 -8h-45q55 70 55 125q-60 9 -60 65zM40 475q0 29 19 47t46 18t46 -18t19 -47t-19 -47t-46 -18t-46 18t-19 47z" />
    <glyph glyph-name="less" unicode="&#x3c;" horiz-adv-x="530" 
d="M210 260l275 -150v-110l-460 255v20l460 255v-110l-275 -150v-10z" />
    <glyph glyph-name="equal" unicode="=" horiz-adv-x="530" 
d="M50 165v100h430v-100h-430zM50 385v100h430v-100h-430z" />
    <glyph glyph-name="greater" unicode="&#x3e;" horiz-adv-x="530" 
d="M320 270l-275 150v110l460 -255v-20l-460 -255v110l275 150v10z" />
    <glyph glyph-name="question" unicode="?" horiz-adv-x="500" 
d="M50 550v125q8 8 22.5 19.5t63 31t99.5 19.5q103 0 161.5 -53.5t58.5 -141.5q0 -41 -19.5 -79.5t-47.5 -68.5t-56 -58.5t-47.5 -63t-19.5 -70.5h-110q0 43 18 83.5t43.5 72t51.5 60.5t44 59.5t18 59.5q0 41 -27.5 65.5t-72.5 24.5q-47 0 -88 -21.5t-59 -42.5l-18 -21h-15z
M145 55q0 29 19 47t46 18t46 -18t19 -47t-19 -47t-46 -18t-46 18t-19 47z" />
    <glyph glyph-name="at" unicode="@" horiz-adv-x="990" 
d="M940 345q0 -112 -51.5 -173.5t-133.5 -61.5q-29 0 -54.5 7.5t-40.5 19t-26 22.5t-15 19l-4 7h-5q-2 -3 -5 -8t-16 -18t-28.5 -23t-42.5 -18t-58 -8q-80 0 -132.5 56.5t-52.5 148.5t52.5 148.5t134.5 56.5q26 0 49.5 -6.5t38 -16t25.5 -19.5t15 -16l5 -7l15 55h85v-235
q0 -75 65 -75q37 0 56 32t19 113q0 133 -91.5 219t-243.5 86q-146 0 -240.5 -94.5t-94.5 -240.5t94.5 -240.5t240.5 -94.5q64 0 119 15t78 30l23 15v-110q-8 -5 -24.5 -12.5t-74 -20t-121.5 -12.5q-190 0 -315 123t-125 307t125 307t315 123q196 0 318 -114t122 -286z
M485 205q43 0 74 31.5t31 78.5t-31 78.5t-74 31.5t-74 -31.5t-31 -78.5t31 -78.5t74 -31.5z" />
    <glyph glyph-name="A" unicode="A" horiz-adv-x="775" 
d="M515 285l-125 280h-5l-125 -280h255zM565 175h-355l-80 -175h-130l335 730h105l335 -730h-130z" />
    <glyph glyph-name="B" unicode="B" horiz-adv-x="650" 
d="M315 730q120 0 182.5 -53t62.5 -142q0 -35 -10.5 -63.5t-25 -44t-29 -25.5t-25.5 -14l-10 -3v-5q5 -1 14.5 -4t32.5 -16t41 -30.5t32.5 -50.5t14.5 -74q0 -93 -65.5 -149t-189.5 -56h-245v730h220zM215 320v-210h125q63 0 96.5 28t33.5 77t-33.5 77t-96.5 28h-125z
M315 620h-100v-190h100q120 0 120 95t-120 95z" />
    <glyph glyph-name="C" unicode="C" horiz-adv-x="735" 
d="M175 365q0 -120 75 -195t195 -75q41 0 78 12t61 28.5t42 33.5t26 29l8 12h15v-125q-3 -4 -9.5 -11t-29 -24t-49 -30t-69 -24t-88.5 -11q-161 0 -270.5 109.5t-109.5 270.5t109.5 270.5t270.5 109.5q49 0 94.5 -11t75 -26.5t52 -30.5t32.5 -26l11 -11l-45 -95
q-3 4 -8.5 10t-25 21.5t-41 27.5t-57 21.5t-73.5 9.5q-120 0 -195 -75t-75 -195z" />
    <glyph glyph-name="D" unicode="D" horiz-adv-x="760" 
d="M95 730h225q167 0 276 -105t109 -260t-109 -260t-276 -105h-225v730zM320 620h-105v-510h105q116 0 188 71t72 184t-72 184t-188 71z" />
    <glyph glyph-name="E" unicode="E" horiz-adv-x="625" 
d="M95 0v730h465v-110h-345v-195h270v-110h-270v-205h345v-110h-465z" />
    <glyph glyph-name="F" unicode="F" horiz-adv-x="600" 
d="M485 295h-270v-295h-120v730h465v-110h-345v-215h270v-110z" />
    <glyph glyph-name="G" unicode="G" horiz-adv-x="805" 
d="M430 745q49 0 94.5 -11t75 -26.5t52 -30.5t32.5 -26l11 -11l-45 -95q-3 4 -8.5 10t-25 21.5t-41 27.5t-57 21.5t-73.5 9.5q-120 0 -195 -75t-75 -195t74 -195t191 -75q51 0 96 17.5t64 35.5l20 17v130h-225l30 115h310v-285q-4 -6 -11.5 -15.5t-35.5 -33.5t-60 -42.5
t-85.5 -33.5t-112.5 -15q-161 0 -270.5 109.5t-109.5 270.5t109.5 270.5t270.5 109.5z" />
    <glyph glyph-name="H" unicode="H" horiz-adv-x="780" 
d="M685 730v-730h-120v315h-350v-315h-120v730h120v-305h350v305h120z" />
    <glyph glyph-name="I" unicode="I" horiz-adv-x="310" 
d="M215 730v-730h-120v730h120z" />
    <glyph glyph-name="J" unicode="J" horiz-adv-x="325" 
d="M110 40v690h120v-690q0 -198 -210 -220l-15 110q58 8 81.5 31.5t23.5 78.5z" />
    <glyph glyph-name="K" unicode="K" horiz-adv-x="694" 
d="M95 0v730h120v-345l315 345h150l-285 -310l309 -420h-145l-244 335l-100 -113v-222h-120z" />
    <glyph glyph-name="L" unicode="L" horiz-adv-x="545" 
d="M215 730v-620h310v-110h-430v730h120z" />
    <glyph glyph-name="M" unicode="M" horiz-adv-x="960" 
d="M430 0l-165 485h-5l-75 -485h-125l115 730h115l187 -560h6l187 560h115l115 -730h-125l-75 485h-5l-165 -485h-100z" />
    <glyph glyph-name="N" unicode="N" horiz-adv-x="800" 
d="M705 730v-730h-115l-375 525v-525h-120v730h115l375 -525v525h120z" />
    <glyph glyph-name="O" unicode="O" horiz-adv-x="870" 
d="M175 365q0 -119 73.5 -194.5t186.5 -75.5t186.5 75.5t73.5 194.5t-73.5 194.5t-186.5 75.5t-186.5 -75.5t-73.5 -194.5zM820 365q0 -162 -110 -271t-275 -109t-275 109t-110 271t110 271t275 109t275 -109t110 -271z" />
    <glyph glyph-name="P" unicode="P" horiz-adv-x="645" 
d="M215 230v-230h-120v730h220q126 0 200.5 -70t74.5 -180t-74.5 -180t-200.5 -70h-100zM215 620v-280h100q68 0 109 38t41 102t-41 102t-109 38h-100z" />
    <glyph glyph-name="Q" unicode="Q" horiz-adv-x="870" 
d="M50 365q0 162 110 271t275 109t275 -109t110 -271q0 -57 -15 -109t-36 -85.5t-42.5 -58.5t-36.5 -36l-15 -11q1 -3 3.5 -8t11 -18t19 -23t27 -18t34.5 -8q20 0 37.5 6t24.5 12l8 7v-108q-30 -27 -90 -27q-34 0 -64 13.5t-49.5 32.5t-34 38t-20.5 32l-7 14
q-60 -25 -140 -25q-165 0 -275 109t-110 271zM175 365q0 -42 10 -79.5t23.5 -61.5t27.5 -41.5t24 -24.5l10 -8q2 6 5.5 16t18 36t32.5 46t51.5 36t72.5 16q32 0 61.5 -13.5t48.5 -32.5t33 -38t21 -32l6 -14q3 2 8 7t18 22.5t23 38.5t18 55t8 72q0 119 -73.5 194.5
t-186.5 75.5t-186.5 -75.5t-73.5 -194.5zM435 95q24 0 46.5 3.5t32.5 7.5l11 4l-5 10t-13.5 21.5t-21.5 27.5t-29 21.5t-36 9.5q-24 0 -43 -8t-29 -20t-17 -24t-9 -20l-2 -8q45 -25 115 -25z" />
    <glyph glyph-name="R" unicode="R" horiz-adv-x="660" 
d="M215 620v-270h100q68 0 106.5 35.5t38.5 99.5t-38.5 99.5t-106.5 35.5h-100zM450 265l185 -265h-140l-165 240h-115v-240h-120v730h220q126 0 198 -67.5t72 -177.5q0 -46 -14 -85t-33.5 -62t-39.5 -39.5t-34 -22.5l-14 -6v-5z" />
    <glyph glyph-name="S" unicode="S" horiz-adv-x="580" 
d="M290 745q39 0 75.5 -9.5t61 -22.5t43 -26t26.5 -23l9 -9l-40 -95q-2 3 -7 8t-21 18t-34.5 23t-47.5 18t-60 8q-52 0 -81 -23.5t-29 -61.5q0 -29 26 -54t65 -42t84 -41t84 -48.5t65 -66t26 -93.5q0 -96 -69 -158t-186 -62q-42 0 -81.5 9.5t-66 22.5t-47.5 26t-31 23l-9 9
l40 95q3 -3 9 -8t25 -18t39.5 -23t52.5 -18t64 -8q62 0 98.5 28.5t36.5 71.5q0 38 -36 68t-87.5 54t-103 51.5t-87.5 75t-36 111.5q0 78 64 134t166 56z" />
    <glyph glyph-name="T" unicode="T" horiz-adv-x="630" 
d="M35 730h560v-110h-220v-620h-120v620h-220v110z" />
    <glyph glyph-name="U" unicode="U" horiz-adv-x="760" 
d="M85 730h120v-455q0 -86 46 -133t129 -47t129 47t46 133v455h120v-455q0 -135 -78.5 -212.5t-216.5 -77.5t-216.5 77.5t-78.5 212.5v455z" />
    <glyph glyph-name="V" unicode="V" horiz-adv-x="755" 
d="M740 730l-310 -730h-105l-310 730h130l230 -560h5l230 560h130z" />
    <glyph glyph-name="W" unicode="W" horiz-adv-x="1075" 
d="M545 730l195 -550h5l185 550h130l-255 -730h-115l-150 430h-5l-150 -430h-115l-255 730h130l185 -550h5l195 550h15z" />
    <glyph glyph-name="X" unicode="X" horiz-adv-x="710" 
d="M550 0l-195 290l-195 -290h-140l255 375l-240 355h140l180 -270l180 270h140l-240 -355l255 -375h-140z" />
    <glyph glyph-name="Y" unicode="Y" horiz-adv-x="690" 
d="M405 295v-295h-120v295l-275 435h135l200 -320l200 320h135z" />
    <glyph glyph-name="Z" unicode="Z" horiz-adv-x="665" 
d="M45 85l390 535h-370v110h535v-85l-390 -535h400v-110h-565v85z" />
    <glyph glyph-name="bracketleft" unicode="[" horiz-adv-x="410" 
d="M95 -215v1015h275v-105h-165v-805h165v-105h-275z" />
    <glyph glyph-name="backslash" unicode="\" horiz-adv-x="500" 
d="M110 800l390 -1020h-110l-390 1020h110z" />
    <glyph glyph-name="bracketright" unicode="]" horiz-adv-x="410" 
d="M315 800v-1015h-275v105h165v805h-165v105h275z" />
    <glyph glyph-name="asciicircum" unicode="^" horiz-adv-x="535" 
d="M25 375l235 355h15l235 -355h-110l-130 200h-5l-130 -200h-110z" />
    <glyph glyph-name="underscore" unicode="_" horiz-adv-x="420" 
d="M-25 -170v105h470v-105h-470z" />
    <glyph glyph-name="grave" unicode="`" horiz-adv-x="260" 
d="M160 775l70 -185h-75l-125 185h130z" />
    <glyph glyph-name="a" unicode="a" horiz-adv-x="590" 
d="M260 85q34 0 61 11.5t42 27.5t25 32t14 28l3 11q-4 4 -13.5 10t-43 15.5t-73.5 9.5q-44 0 -69.5 -20.5t-25.5 -54.5t21 -52t59 -18zM295 535q108 0 166.5 -56t58.5 -154v-325h-110l-5 80h-5q-1 -4 -4.5 -10.5t-16.5 -22.5t-29.5 -28.5t-47.5 -23t-67 -10.5q-77 0 -126 45
t-49 112q0 75 51.5 121.5t143.5 46.5q42 0 79.5 -9t53.5 -17l17 -9v45q0 53 -32.5 81.5t-92.5 28.5q-51 0 -98.5 -19t-69.5 -37l-22 -19h-15v105q10 8 28 20.5t75.5 33.5t116.5 21z" />
    <glyph glyph-name="b" unicode="b" horiz-adv-x="660" 
d="M190 340v-230q50 -20 125 -20q79 0 127 46t48 124q0 80 -42 125t-108 45q-31 0 -57.5 -9.5t-43 -22.5t-28 -26t-16.5 -22zM610 260q0 -125 -79 -200t-216 -75q-60 0 -120 8.5t-90 17.5l-30 9v740h115v-300h5q2 3 6 8t19 18t33 23t48 18t64 8q107 0 176 -75t69 -200z" />
    <glyph glyph-name="c" unicode="c" horiz-adv-x="565" 
d="M165 260q0 -74 49.5 -122t125.5 -48q42 0 78.5 15t51.5 30l15 15h20v-105q-2 -2 -7 -6.5t-22 -14.5t-36 -18t-50 -14.5t-65 -6.5q-116 0 -195.5 79.5t-79.5 195.5t79.5 195.5t195.5 79.5q60 0 110 -16.5t70 -32.5l20 -16l-45 -85q-6 5 -16.5 12.5t-47 20t-76.5 12.5
q-76 0 -125.5 -48t-49.5 -122z" />
    <glyph glyph-name="d" unicode="d" horiz-adv-x="680" 
d="M490 260q0 74 -46 122t-114 48t-114 -48t-46 -122t46 -122t114 -48t114 48t46 122zM50 260q0 118 74.5 196.5t180.5 78.5q36 0 68 -10t51.5 -23.5t34 -27.5t20.5 -24l6 -10h5v320h115v-760h-110l-5 80h-5q-2 -4 -6 -10.5t-20 -22.5t-34.5 -28.5t-51 -23t-68.5 -10.5
q-106 0 -180.5 78.5t-74.5 196.5z" />
    <glyph glyph-name="e" unicode="e" horiz-adv-x="625" 
d="M320 535q117 0 186 -70.5t69 -192.5v-37h-415q8 -64 54.5 -104.5t125.5 -40.5q35 0 67 6.5t52.5 16t36 19.5t22.5 16l7 7h15v-110q-3 -2 -9 -6.5t-26.5 -14.5t-43 -18t-59 -14.5t-75.5 -6.5q-121 0 -199 77.5t-78 197.5q0 116 78.5 195.5t191.5 79.5zM325 430
q-62 0 -102.5 -30.5t-57.5 -74.5h300q-8 45 -44 75t-96 30z" />
    <glyph glyph-name="f" unicode="f" horiz-adv-x="430" 
d="M120 520v80q0 89 47 139.5t123 50.5q40 0 73.5 -11t47.5 -23l14 -11l-40 -85q-20 25 -70 25q-35 0 -57.5 -23.5t-22.5 -66.5v-75h165v-105h-165v-415h-115v415h-95v105h95z" />
    <glyph glyph-name="g" unicode="g" horiz-adv-x="575" 
d="M60 345q0 81 61.5 135.5t163.5 54.5q29 0 55 -5t38 -10l12 -5q1 4 3.5 11t13.5 24t26 30t43.5 24t63.5 11v-105q-27 0 -49.5 -7.5t-31.5 -14.5l-9 -8q2 -2 6.5 -5.5t14.5 -16t18 -27t14.5 -38t6.5 -48.5q0 -65 -34 -104.5t-96 -70.5l-140 -70h90q112 0 166 -42.5
t54 -117.5q0 -76 -66.5 -125.5t-198.5 -49.5q-130 0 -192.5 39.5t-62.5 100.5q0 33 21 60.5t43 38.5l21 11h-60v55l175 90q-7 1 -18.5 3.5t-40.5 15.5t-51.5 31.5t-41 54t-18.5 80.5zM430 -60q0 75 -130 75h-80q-9 -3 -22.5 -8.5t-35.5 -27.5t-22 -49q0 -70 145 -70
q75 0 110 22t35 58zM175 345q0 -41 30.5 -68t79.5 -27t79.5 27t30.5 68t-30.5 68t-79.5 27t-79.5 -27t-30.5 -68z" />
    <glyph glyph-name="h" unicode="h" horiz-adv-x="640" 
d="M570 0h-115v315q0 55 -31 85t-84 30q-61 0 -105.5 -43.5t-44.5 -106.5v-280h-115v760h115v-320h5q2 4 5.5 10.5t18 22.5t32.5 28.5t48.5 23t65.5 10.5q94 0 149.5 -57t55.5 -158v-320z" />
    <glyph glyph-name="i" unicode="i" horiz-adv-x="265" 
d="M190 525v-525h-115v525q25 -10 57 -10q15 0 29.5 2.5t21.5 4.5zM65 692q0 31 19 49.5t48 18.5t48.5 -18.5t19.5 -49.5t-19.5 -49t-48.5 -18t-48 18t-19 49z" />
    <glyph glyph-name="j" unicode="j" horiz-adv-x="265" 
d="M75 -10v535q25 -10 57 -10q15 0 29.5 2.5t21.5 4.5l7 3v-535q0 -99 -51 -155t-139 -60l-25 105q47 4 73.5 31.5t26.5 78.5zM65 692q0 31 19 49.5t48 18.5t48.5 -18.5t19.5 -49.5t-19.5 -49t-48.5 -18t-48 18t-19 49z" />
    <glyph glyph-name="k" unicode="k" 
d="M75 0v760h115v-475l235 235h140l-225 -225l240 -295h-135l-180 220l-75 -75v-145h-115z" />
    <glyph glyph-name="l" unicode="l" horiz-adv-x="265" 
d="M190 760v-760h-115v760h115z" />
    <glyph glyph-name="m" unicode="m" horiz-adv-x="970" 
d="M900 0h-115v315q0 115 -105 115q-54 0 -94.5 -42.5t-40.5 -107.5v-280h-115v315q0 115 -105 115q-54 0 -94.5 -42.5t-40.5 -107.5v-280h-115v520h110l5 -80h5q2 4 5.5 10.5t17.5 22.5t31 28.5t45.5 23t60.5 10.5q36 0 66.5 -11t48 -26t29.5 -30.5t17 -26.5l4 -11h5
q2 4 6 11t19 25.5t34 32t53 25t73 11.5q87 0 138.5 -57.5t51.5 -157.5v-320z" />
    <glyph glyph-name="n" unicode="n" horiz-adv-x="640" 
d="M570 0h-115v315q0 55 -31 85t-84 30q-61 0 -105.5 -43.5t-44.5 -106.5v-280h-115v520h110l5 -80h5q2 4 5.5 10.5t18 22.5t32.5 28.5t48.5 23t65.5 10.5q94 0 149.5 -57t55.5 -158v-320z" />
    <glyph glyph-name="o" unicode="o" horiz-adv-x="670" 
d="M170 260q0 -75 46.5 -122.5t118.5 -47.5t118.5 47.5t46.5 122.5t-46.5 122.5t-118.5 47.5t-118.5 -47.5t-46.5 -122.5zM620 260q0 -117 -81 -196t-204 -79t-204 79t-81 196t81 196t204 79t204 -79t81 -196z" />
    <glyph glyph-name="p" unicode="p" horiz-adv-x="680" 
d="M190 260q0 -74 46 -122t114 -48t114 48t46 122t-46 122t-114 48t-114 -48t-46 -122zM630 260q0 -118 -74.5 -196.5t-180.5 -78.5q-36 0 -68 10t-51.5 23.5t-34 27.5t-20.5 24l-6 10h-5v-300h-115v740h110l5 -80h5q2 4 6 10.5t20 22.5t34.5 28.5t51 23t68.5 10.5
q106 0 180.5 -78.5t74.5 -196.5z" />
    <glyph glyph-name="q" unicode="q" horiz-adv-x="660" 
d="M470 180v235h-130q-76 0 -123 -46t-47 -124q0 -70 42.5 -112.5t107.5 -42.5q32 0 59.5 9.5t43.5 22.5t27 26t16 22zM50 245q0 124 77 199.5t208 75.5h250v-740h-115v280h-5q-2 -3 -5.5 -8t-18 -18t-32.5 -23t-48.5 -18t-65.5 -8q-106 0 -175.5 72.5t-69.5 187.5z" />
    <glyph glyph-name="r" unicode="r" horiz-adv-x="465" 
d="M330 430q-24 0 -47 -11.5t-39 -27.5t-29 -32t-19 -27l-6 -12v-320h-115v520h110l5 -80h5q2 4 5.5 10.5t17 22.5t29.5 28.5t42.5 23t55.5 10.5q33 0 62 -10t41 -20l12 -10l-25 -100q-3 4 -10 10t-34.5 15.5t-60.5 9.5z" />
    <glyph glyph-name="s" unicode="s" horiz-adv-x="500" 
d="M460 145q0 -75 -54 -117.5t-166 -42.5q-56 0 -106 16.5t-72 32.5l-22 16l35 95q8 -6 22.5 -15t59 -24.5t88.5 -15.5q100 0 100 60q0 27 -30.5 43t-73.5 26t-86.5 24t-74 48.5t-30.5 88.5q0 66 51.5 110.5t138.5 44.5q56 0 104.5 -17.5t69.5 -35.5l21 -17l-45 -86
q-6 6 -16.5 14.5t-47 22.5t-76.5 14q-80 0 -80 -55q0 -23 30 -37t72.5 -24t85 -25.5t72.5 -51.5t30 -92z" />
    <glyph glyph-name="t" unicode="t" horiz-adv-x="445" 
d="M105 175v240h-95v40l205 220h5v-155h165v-105h-165v-235q0 -43 22.5 -66.5t57.5 -23.5q24 0 45.5 10t30.5 20l9 10h15v-100q-5 -5 -14.5 -12.5t-42 -20t-68.5 -12.5q-76 0 -123 50.5t-47 139.5z" />
    <glyph glyph-name="u" unicode="u" horiz-adv-x="645" 
d="M75 520h115v-315q0 -55 31 -85t84 -30q61 0 105.5 43.5t44.5 106.5v280h115v-520h-110l-5 80h-5q-2 -4 -5.5 -10.5t-18 -22.5t-32.5 -28.5t-48.5 -23t-65.5 -10.5q-94 0 -149.5 57t-55.5 158v320z" />
    <glyph glyph-name="v" unicode="v" horiz-adv-x="585" 
d="M135 520l155 -355h5l155 355h120l-225 -520h-105l-225 520h120z" />
    <glyph glyph-name="w" unicode="w" horiz-adv-x="855" 
d="M435 520l150 -360h5l130 360h120l-190 -520h-105l-115 280h-5l-115 -280h-105l-190 520h120l130 -360h5l150 360h15z" />
    <glyph glyph-name="x" unicode="x" 
d="M285 185l-150 -185h-135l210 260l-205 260h135l145 -185l145 185h135l-205 -260l210 -260h-135z" />
    <glyph glyph-name="y" unicode="y" horiz-adv-x="590" 
d="M575 520l-300 -740h-120l90 225l-230 515h120l165 -370h5l150 370h120z" />
    <glyph glyph-name="z" unicode="z" horiz-adv-x="560" 
d="M50 415v105h460v-80l-305 -335h315v-105h-485v80l305 335h-290z" />
    <glyph glyph-name="braceleft" unicode="{" horiz-adv-x="410" 
d="M160 295v-5q4 0 10.5 -1t22.5 -7.5t28.5 -17t23 -33t10.5 -51.5v-210q0 -80 80 -80h40v-105h-45q-185 0 -185 170v200q0 48 -22 69t-68 21v95q46 0 68 21t22 69v200q0 170 185 170h45v-105h-40q-80 0 -80 -80v-210q0 -29 -10 -51.5t-23.5 -33t-27.5 -17t-24 -7.5z" />
    <glyph glyph-name="bar" unicode="|" horiz-adv-x="295" 
d="M200 800v-1020h-105v1020h105z" />
    <glyph glyph-name="braceright" unicode="}" horiz-adv-x="410" 
d="M250 290v5q-4 0 -10.5 1t-22.5 7.5t-28.5 17t-23 33t-10.5 51.5v210q0 80 -80 80h-40v105h45q185 0 185 -170v-200q0 -48 22 -69t68 -21v-95q-46 0 -68 -21t-22 -69v-200q0 -170 -185 -170h-45v105h40q80 0 80 80v210q0 29 10 51.5t23.5 33t27.5 17t24 7.5z" />
    <glyph glyph-name="asciitilde" unicode="~" horiz-adv-x="530" 
d="M160 315q-36 0 -67 -17.5t-45 -35.5l-13 -17v110q2 2 5 6.5t14.5 14.5t25 18t35 14.5t45.5 6.5q47 0 110.5 -37.5t99.5 -37.5t67 17.5t45 34.5l13 18v-110q-2 -2 -5 -6.5t-14.5 -14.5t-25 -18t-35 -14.5t-45.5 -6.5q-47 0 -110.5 37.5t-99.5 37.5z" />
    <glyph glyph-name="nbspace" unicode="&#xa0;" horiz-adv-x="265" 
 />
    <glyph glyph-name="exclamdown" unicode="&#xa1;" horiz-adv-x="290" 
d="M85 -30l20 340h80l20 -340v-190h-120v190zM210 465q0 -29 -19 -47t-46 -18t-46 18t-19 47t19 47t46 18t46 -18t19 -47z" />
    <glyph glyph-name="cent" unicode="&#xa2;" horiz-adv-x="565" 
d="M165 260q0 -74 49.5 -122t125.5 -48q42 0 78.5 15t51.5 30l15 15h20v-105q-5 -5 -14.5 -13t-42 -23t-68.5 -19v-90h-110v91q-95 18 -157.5 93.5t-62.5 175.5t62.5 175.5t157.5 93.5v91h110v-90q38 -4 74 -19t54 -28l17 -13l-45 -85q-6 5 -16.5 12.5t-47 20t-76.5 12.5
q-76 0 -125.5 -48t-49.5 -122z" />
    <glyph glyph-name="sterling" unicode="&#xa3;" horiz-adv-x="565" 
d="M70 300v80h55q-6 7 -15 20.5t-24.5 55.5t-15.5 84q0 91 60.5 148t164.5 57q51 0 98.5 -16.5t69.5 -32.5l22 -16l-40 -100q-6 6 -17.5 15t-48 24.5t-74.5 15.5q-53 0 -81.5 -25.5t-28.5 -74.5q0 -38 17.5 -76.5t35.5 -58.5l17 -20h170v-80h-145q5 -20 5 -40
q0 -40 -16.5 -72.5t-32.5 -45.5l-16 -12q20 5 45 5q39 0 90.5 -20t79.5 -20q29 0 56.5 13.5t40.5 27.5l13 14v-123q-4 -5 -12.5 -12t-37 -18.5t-60.5 -11.5q-46 0 -113.5 27.5t-121.5 27.5q-31 0 -65 -10t-52 -20l-18 -10v95q4 2 11 6.5t25.5 19.5t32 31.5t25 43t11.5 54.5
q0 13 -2.5 25.5t-5.5 18.5l-2 6h-100z" />
    <glyph glyph-name="currency" unicode="&#xa4;" horiz-adv-x="640" 
d="M35 280v95h80v355h215q125 0 192.5 -61t67.5 -164t-67.5 -164t-192.5 -61h-95v-60h255v-95h-255v-125h-120v125h-80v95h80v60h-80zM235 625v-250h95q64 0 99.5 32.5t35.5 92.5t-35.5 92.5t-99.5 32.5h-95z" />
    <glyph glyph-name="yen" unicode="&#xa5;" horiz-adv-x="700" 
d="M90 280h200v15l-20 35h-180v80h130l-205 320h136l199 -320l199 320h136l-205 -320h130v-80h-180l-20 -35v-15h200v-80h-200v-200h-120v200h-200v80z" />
    <glyph glyph-name="brokenbar" unicode="&#xa6;" horiz-adv-x="305" 
d="M100 385v415h105v-415h-105zM100 -220v415h105v-415h-105z" />
    <glyph glyph-name="section" unicode="&#xa7;" horiz-adv-x="575" 
d="M515 305q0 -44 -22.5 -76.5t-44.5 -42.5l-23 -11q5 -3 12.5 -10.5t20 -35.5t12.5 -64q0 -71 -51.5 -115.5t-150.5 -44.5q-55 0 -103 16.5t-69 32.5l-21 16l30 95q3 -2 8 -6.5t21.5 -14.5t34.5 -18t45.5 -14.5t55.5 -6.5q40 0 62.5 16.5t22.5 43.5q0 30 -30.5 53
t-73.5 40.5t-86.5 39t-74 59t-30.5 88.5q0 44 22.5 76.5t45.5 42.5l22 11q-5 3 -12.5 10.5t-20 35.5t-12.5 64q0 70 50 115t142 45q57 0 104 -16.5t65 -32.5l19 -16l-35 -90q-6 6 -17.5 15t-49.5 24.5t-78 15.5t-62.5 -16.5t-22.5 -43.5q0 -30 30.5 -53t73.5 -40.5t86.5 -39
t74 -59t30.5 -88.5zM395 290q0 33 -42.5 65.5t-84.5 48.5l-43 16q-5 -1 -12.5 -4t-20 -18.5t-12.5 -37.5q0 -33 42.5 -65.5t85.5 -48.5l42 -16q5 1 12.5 4t20 18.5t12.5 37.5z" />
    <glyph glyph-name="dieresis" unicode="&#xa8;" horiz-adv-x="400" 
d="M30 690q0 29 19 47t46 18t46 -18t19 -47t-19 -47t-46 -18t-46 18t-19 47zM240 690q0 29 19 47t46 18t46 -18t19 -47t-19 -47t-46 -18t-46 18t-19 47z" />
    <glyph glyph-name="copyright" unicode="&#xa9;" horiz-adv-x="840" 
d="M330 315q0 -49 33.5 -79.5t86.5 -30.5q29 0 54 10t36 20l10 10h15v-80q-5 -5 -14.5 -12.5t-42 -20t-68.5 -12.5q-89 0 -147 56t-58 139t58 139t147 56q40 0 75 -12.5t50 -25.5l15 -12l-30 -71q-40 36 -100 36q-53 0 -86.5 -30.5t-33.5 -79.5zM130 315q0 -124 81.5 -204.5
t208.5 -80.5t208.5 80.5t81.5 204.5t-81.5 204.5t-208.5 80.5t-208.5 -80.5t-81.5 -204.5zM790 315q0 -151 -105 -253t-265 -102t-265 102t-105 253t105 253t265 102t265 -102t105 -253z" />
    <glyph glyph-name="ordfeminine" unicode="&#xaa;" horiz-adv-x="395" 
d="M195 425q24 0 41.5 16.5t23.5 32.5l5 16q-2 4 -7 10t-23 15.5t-40 9.5q-26 0 -43 -14t-17 -36q0 -50 60 -50zM195 740q85 0 125 -37t40 -113v-230h-90l-5 55h-5q-1 -3 -2.5 -7t-9.5 -15.5t-18 -20t-29 -15.5t-41 -7q-59 0 -92 30t-33 80q0 53 36 84t99 31q27 0 50.5 -7.5
t33.5 -15.5l11 -7v35q0 41 -20 58t-65 17q-29 0 -59 -11.5t-45 -22.5l-16 -11h-15v80q7 6 20.5 14t52.5 22t77 14z" />
    <glyph glyph-name="guillemotleft" unicode="&#xab;" 
d="M150 270l160 -220h-120l-155 215v20l155 215h120l-160 -220v-10zM375 270l160 -220h-120l-155 215v20l155 215h120l-160 -220v-10z" />
    <glyph glyph-name="logicalnot" unicode="&#xac;" horiz-adv-x="530" 
d="M65 295v100h390v-190h-100v90h-290z" />
    <glyph glyph-name="uni00AD" unicode="&#xad;" horiz-adv-x="410" 
d="M40 275v105h330v-105h-330z" />
    <glyph glyph-name="registered" unicode="&#xae;" horiz-adv-x="670" 
d="M230 670h105q110 0 110 -95q0 -29 -13.5 -50t-27.5 -28l-14 -7l70 -100h-70l-60 90h-35v-90h-65v280zM295 530h40q50 0 50 45t-50 45h-40v-90zM115 530q0 -94 61.5 -154.5t158.5 -60.5t158.5 60.5t61.5 154.5t-61.5 154.5t-158.5 60.5t-158.5 -60.5t-61.5 -154.5z
M620 530q0 -121 -79 -198t-206 -77t-206 77t-79 198t79 198t206 77t206 -77t79 -198z" />
    <glyph glyph-name="macron" unicode="&#xaf;" horiz-adv-x="430" 
d="M30 640v85h370v-85h-370z" />
    <glyph glyph-name="degree" unicode="&#xb0;" horiz-adv-x="390" 
d="M125 590q0 -33 20 -54t50 -21t50 21t20 54t-20 54t-50 21t-50 -21t-20 -54zM350 590q0 -64 -44 -107t-111 -43t-111 43t-44 107t44 107t111 43t111 -43t44 -107z" />
    <glyph glyph-name="plusminus" unicode="&#xb1;" horiz-adv-x="530" 
d="M485 405v-105h-170v-165h170v-100h-435v100h165v165h-170v105h170v170h100v-170h170z" />
    <glyph glyph-name="twosuperior" unicode="&#xb2;" horiz-adv-x="325" 
d="M25 480l150 185q25 30 25 55q0 40 -45 40q-24 0 -51.5 -15t-43.5 -30l-15 -15h-10v80q6 7 17.5 17t46.5 26.5t71 16.5q55 0 85 -29t30 -76q0 -24 -8.5 -48t-17.5 -35l-9 -12l-75 -95h120v-75h-270v10z" />
    <glyph glyph-name="threesuperior" unicode="&#xb3;" horiz-adv-x="325" 
d="M155 640q-16 0 -31 -5t-22 -10l-7 -5l-35 40l80 90h-95v80h240v-10l-90 -115q4 0 11 -1.5t24 -9t30 -19.5t24 -35.5t11 -54.5q0 -58 -37.5 -91.5t-107.5 -33.5q-33 0 -63 10t-43 20l-14 10l25 70q40 -35 95 -35q60 0 60 50q0 55 -55 55z" />
    <glyph glyph-name="acute" unicode="&#xb4;" horiz-adv-x="260" 
d="M30 590l70 185h130l-125 -185h-75z" />
    <glyph glyph-name="mu" unicode="&#xb5;" horiz-adv-x="645" 
d="M75 520h115v-315q0 -55 31 -85t84 -30q61 0 105.5 43.5t44.5 106.5v280h115v-520h-110l-5 80h-5q-2 -4 -5.5 -10.5t-18 -22.5t-32.5 -28.5t-48.5 -23t-65.5 -10.5q-31 0 -60 7.5t-42 15.5l-13 7l25 -205l-115 -30v740z" />
    <glyph glyph-name="paragraph" unicode="&#xb6;" horiz-adv-x="645" 
d="M50 515q0 94 60.5 154.5t154.5 60.5h345v-90h-105v-860h-60v860h-120v-860h-60v520q-94 0 -154.5 60.5t-60.5 154.5z" />
    <glyph glyph-name="periodcentered" unicode="&#xb7;" horiz-adv-x="270" 
d="M70 300q0 29 19 47t46 18t46 -18t19 -47t-19 -47t-46 -18t-46 18t-19 47z" />
    <glyph glyph-name="cedilla" unicode="&#xb8;" horiz-adv-x="280" 
d="M160 0l-15 -45q105 -23 105 -105q0 -50 -34.5 -77.5t-100.5 -27.5q-24 0 -45.5 5t-30.5 10l-9 5v60q30 -20 65 -20q60 0 60 45q0 22 -22.5 36t-44.5 16l-23 3l35 95h60z" />
    <glyph glyph-name="onesuperior" unicode="&#xb9;" horiz-adv-x="240" 
d="M30 690v85l95 55h60v-360h-85v257z" />
    <glyph glyph-name="ordmasculine" unicode="&#xba;" horiz-adv-x="460" 
d="M230 435q46 0 75.5 29.5t29.5 80.5t-29.5 80.5t-75.5 29.5t-75.5 -29.5t-29.5 -80.5t29.5 -80.5t75.5 -29.5zM230 350q-90 0 -145 54t-55 141t55 141t145 54t145 -54t55 -141t-55 -141t-145 -54z" />
    <glyph glyph-name="guillemotright" unicode="&#xbb;" 
d="M260 50l160 220v10l-160 220h120l155 -215v-20l-155 -215h-120zM35 50l160 220v10l-160 220h120l155 -215v-20l-155 -215h-120z" />
    <glyph glyph-name="onequarter" unicode="&#xbc;" horiz-adv-x="705" 
d="M50 0l475 730h100l-475 -730h-100zM30 590v85l95 55h60v-360h-85v257zM615 360l-115 -205h50l25 65h55v-65h50v-80h-50v-75h-85v75h-170v10l150 275h90z" />
    <glyph glyph-name="onehalf" unicode="&#xbd;" horiz-adv-x="740" 
d="M50 0l475 730h100l-475 -730h-100zM30 590v85l95 55h60v-360h-85v257zM440 10l150 185q25 30 25 55q0 40 -45 40q-24 0 -51.5 -15t-42.5 -30l-16 -15h-10v80q6 7 17.5 17t46.5 26.5t71 16.5q55 0 85 -29t30 -76q0 -24 -8.5 -48t-17.5 -35l-9 -12l-75 -95h120v-75h-270v10
z" />
    <glyph glyph-name="threequarters" unicode="&#xbe;" horiz-adv-x="765" 
d="M110 0l475 730h100l-475 -730h-100zM675 360l-115 -205h50l25 65h55v-65h50v-80h-50v-75h-85v75h-170v10l150 275h90zM155 540q-16 0 -31 -5t-22 -10l-7 -5l-35 40l80 90h-95v80h240v-10l-90 -115q4 0 11 -1.5t24 -9t30 -19.5t24 -35.5t11 -54.5q0 -58 -37.5 -91.5
t-107.5 -33.5q-33 0 -63 10t-43 20l-14 10l25 70q40 -35 95 -35q60 0 60 50q0 55 -55 55z" />
    <glyph glyph-name="questiondown" unicode="&#xbf;" horiz-adv-x="500" 
d="M450 -40v-125q-8 -8 -22.5 -19.5t-63 -31t-99.5 -19.5q-103 0 -161.5 53.5t-58.5 141.5q0 41 19.5 81t47.5 72t56 62.5t47.5 65.5t19.5 69h110q0 -50 -27.5 -102t-60 -87.5t-60 -78t-27.5 -77.5q0 -41 27.5 -65.5t72.5 -24.5q47 0 88 21.5t59 42.5l18 21h15zM355 465
q0 -29 -19 -47t-46 -18t-46 18t-19 47t19 47t46 18t46 -18t19 -47z" />
    <glyph glyph-name="Agrave" unicode="&#xc0;" horiz-adv-x="775" 
d="M515 285l-125 280h-5l-125 -280h255zM565 175h-355l-80 -175h-130l335 730h105l335 -730h-130zM350 980l70 -185h-75l-125 185h130z" />
    <glyph glyph-name="Aacute" unicode="&#xc1;" horiz-adv-x="775" 
d="M515 285l-125 280h-5l-125 -280h255zM565 175h-355l-80 -175h-130l335 730h105l335 -730h-130zM350 795l70 185h130l-125 -185h-75z" />
    <glyph glyph-name="Acircumflex" unicode="&#xc2;" horiz-adv-x="775" 
d="M515 285l-125 280h-5l-125 -280h255zM565 175h-355l-80 -175h-130l335 730h105l335 -730h-130zM385 905l-115 -110h-75l150 185h80l150 -185h-75z" />
    <glyph glyph-name="Atilde" unicode="&#xc3;" horiz-adv-x="775" 
d="M515 285l-125 280h-5l-125 -280h255zM565 175h-355l-80 -175h-130l335 730h105l335 -730h-130zM305 870q-27 0 -52 -12.5t-37 -25.5l-11 -12v90q3 6 10 14t33 22t57 14q36 0 86 -30t79 -30q27 0 52 12.5t36 25.5l12 12v-90q-3 -6 -10 -14t-33 -22t-57 -14q-36 0 -86 30
t-79 30z" />
    <glyph glyph-name="Adieresis" unicode="&#xc4;" horiz-adv-x="775" 
d="M515 285l-125 280h-5l-125 -280h255zM565 175h-355l-80 -175h-130l335 730h105l335 -730h-130zM215 885q0 29 19 47t46 18t46 -18t19 -47t-19 -47t-46 -18t-46 18t-19 47zM425 885q0 29 19 47t46 18t46 -18t19 -47t-19 -47t-46 -18t-46 18t-19 47z" />
    <glyph glyph-name="Aring" unicode="&#xc5;" horiz-adv-x="775" 
d="M515 285l-125 280h-5l-125 -280h255zM565 175h-355l-80 -175h-130l335 730h105l335 -730h-130zM265 900q0 52 33.5 86t86.5 34t86.5 -34t33.5 -86t-33.5 -86t-86.5 -34t-86.5 34t-33.5 86zM335 900q0 -22 13.5 -36t36.5 -14t36.5 14t13.5 36t-13.5 36t-36.5 14t-36.5 -14
t-13.5 -36z" />
    <glyph glyph-name="AE" unicode="&#xc6;" horiz-adv-x="950" 
d="M460 0v175h-260l-80 -175h-130l335 730h560v-110h-305v-195h230v-110h-230v-205h305v-110h-425zM400 620l-150 -335h210v335h-60z" />
    <glyph glyph-name="Ccedilla" unicode="&#xc7;" horiz-adv-x="735" 
d="M175 365q0 -120 75 -195t195 -75q41 0 78 12t61 28.5t42 33.5t26 29l8 12h15v-125q-3 -4 -9.5 -11t-29 -24t-48.5 -30t-68.5 -24t-89.5 -11h-5l-10 -30q105 -23 105 -105q0 -50 -34.5 -77.5t-100.5 -27.5q-24 0 -45.5 5t-30.5 10l-9 5v60q30 -20 65 -20q60 0 60 45
q0 22 -22.5 36t-44.5 16l-23 3l30 85q-137 23 -226 127t-89 248q0 161 109.5 270.5t270.5 109.5q49 0 94.5 -11t75 -26.5t52 -30.5t32.5 -26l11 -11l-45 -95q-3 4 -8.5 10t-25 21.5t-41 27.5t-57 21.5t-73.5 9.5q-120 0 -195 -75t-75 -195z" />
    <glyph glyph-name="Egrave" unicode="&#xc8;" horiz-adv-x="625" 
d="M95 0v730h465v-110h-345v-195h270v-110h-270v-205h345v-110h-465zM310 980l70 -185h-75l-125 185h130z" />
    <glyph glyph-name="Eacute" unicode="&#xc9;" horiz-adv-x="625" 
d="M95 0v730h465v-110h-345v-195h270v-110h-270v-205h345v-110h-465zM280 795l70 185h130l-125 -185h-75z" />
    <glyph glyph-name="Ecircumflex" unicode="&#xca;" horiz-adv-x="625" 
d="M95 0v730h465v-110h-345v-195h270v-110h-270v-205h345v-110h-465zM325 905l-115 -110h-75l150 185h80l150 -185h-75z" />
    <glyph glyph-name="Edieresis" unicode="&#xcb;" horiz-adv-x="625" 
d="M95 0v730h465v-110h-345v-195h270v-110h-270v-205h345v-110h-465zM155 885q0 29 19 47t46 18t46 -18t19 -47t-19 -47t-46 -18t-46 18t-19 47zM365 885q0 29 19 47t46 18t46 -18t19 -47t-19 -47t-46 -18t-46 18t-19 47z" />
    <glyph glyph-name="Igrave" unicode="&#xcc;" horiz-adv-x="320" 
d="M220 730v-730h-120v730h120zM130 980l70 -185h-75l-125 185h130z" />
    <glyph glyph-name="Iacute" unicode="&#xcd;" horiz-adv-x="320" 
d="M220 730v-730h-120v730h120zM120 795l70 185h130l-125 -185h-75z" />
    <glyph glyph-name="Icircumflex" unicode="&#xce;" horiz-adv-x="320" 
d="M220 730v-730h-120v730h120zM160 905l-115 -110h-75l150 185h80l150 -185h-75z" />
    <glyph glyph-name="Idieresis" unicode="&#xcf;" horiz-adv-x="320" 
d="M220 730v-730h-120v730h120zM-10 885q0 29 19 47t46 18t46 -18t19 -47t-19 -47t-46 -18t-46 18t-19 47zM200 885q0 29 19 47t46 18t46 -18t19 -47t-19 -47t-46 -18t-46 18t-19 47z" />
    <glyph glyph-name="Eth" unicode="&#xd0;" horiz-adv-x="780" 
d="M115 730h225q167 0 276 -105t109 -260t-109 -260t-276 -105h-225v310h-75v105h75v315zM340 620h-105v-205h195v-105h-195v-200h105q116 0 188 71t72 184t-72 184t-188 71z" />
    <glyph glyph-name="Ntilde" unicode="&#xd1;" horiz-adv-x="800" 
d="M705 730v-730h-115l-375 525v-525h-120v730h115l375 -525v525h120zM320 870q-27 0 -52 -12.5t-36 -25.5l-12 -12v90q3 6 10 14t33 22t57 14q36 0 86 -30t79 -30q27 0 52 12.5t37 25.5l11 12v-90q-3 -6 -10 -14t-33 -22t-57 -14q-36 0 -86 30t-79 30z" />
    <glyph glyph-name="Ograve" unicode="&#xd2;" horiz-adv-x="870" 
d="M175 365q0 -119 73.5 -194.5t186.5 -75.5t186.5 75.5t73.5 194.5t-73.5 194.5t-186.5 75.5t-186.5 -75.5t-73.5 -194.5zM820 365q0 -162 -110 -271t-275 -109t-275 109t-110 271t110 271t275 109t275 -109t110 -271zM405 980l70 -185h-75l-125 185h130z" />
    <glyph glyph-name="Oacute" unicode="&#xd3;" horiz-adv-x="870" 
d="M175 365q0 -119 73.5 -194.5t186.5 -75.5t186.5 75.5t73.5 194.5t-73.5 194.5t-186.5 75.5t-186.5 -75.5t-73.5 -194.5zM820 365q0 -162 -110 -271t-275 -109t-275 109t-110 271t110 271t275 109t275 -109t110 -271zM400 795l70 185h130l-125 -185h-75z" />
    <glyph glyph-name="Ocircumflex" unicode="&#xd4;" horiz-adv-x="870" 
d="M175 365q0 -119 73.5 -194.5t186.5 -75.5t186.5 75.5t73.5 194.5t-73.5 194.5t-186.5 75.5t-186.5 -75.5t-73.5 -194.5zM820 365q0 -162 -110 -271t-275 -109t-275 109t-110 271t110 271t275 109t275 -109t110 -271zM435 905l-115 -110h-75l150 185h80l150 -185h-75z" />
    <glyph glyph-name="Otilde" unicode="&#xd5;" horiz-adv-x="870" 
d="M175 365q0 -119 73.5 -194.5t186.5 -75.5t186.5 75.5t73.5 194.5t-73.5 194.5t-186.5 75.5t-186.5 -75.5t-73.5 -194.5zM820 365q0 -162 -110 -271t-275 -109t-275 109t-110 271t110 271t275 109t275 -109t110 -271zM355 870q-27 0 -52 -12.5t-37 -25.5l-11 -12v90
q3 6 10 14t33 22t57 14q36 0 86 -30t79 -30q27 0 52 12.5t36 25.5l12 12v-90q-3 -6 -10 -14t-33 -22t-57 -14q-36 0 -86 30t-79 30z" />
    <glyph glyph-name="Odieresis" unicode="&#xd6;" horiz-adv-x="870" 
d="M175 365q0 -119 73.5 -194.5t186.5 -75.5t186.5 75.5t73.5 194.5t-73.5 194.5t-186.5 75.5t-186.5 -75.5t-73.5 -194.5zM820 365q0 -162 -110 -271t-275 -109t-275 109t-110 271t110 271t275 109t275 -109t110 -271zM270 885q0 29 19 47t46 18t46 -18t19 -47t-19 -47
t-46 -18t-46 18t-19 47zM480 885q0 29 19 47t46 18t46 -18t19 -47t-19 -47t-46 -18t-46 18t-19 47z" />
    <glyph glyph-name="multiply" unicode="&#xd7;" horiz-adv-x="530" 
d="M50 185l140 140l-140 140l75 75l140 -140l140 140l75 -75l-140 -140l140 -140l-75 -75l-140 140l-140 -140z" />
    <glyph glyph-name="Oslash" unicode="&#xd8;" horiz-adv-x="870" 
d="M435 -15q-49 0 -96.5 11t-70.5 22l-23 12l-35 -45h-140l90 110l-11.5 11.5t-26.5 33t-33.5 54.5t-26.5 75.5t-12 95.5q0 162 110 271t275 109q49 0 96.5 -11.5t70.5 -22.5l23 -11l35 45h140l-90 -110l11.5 -11.5t26.5 -33t33.5 -54.5t26.5 -75.5t12 -95.5
q0 -162 -110 -271t-275 -109zM640 540l-325 -420q50 -25 120 -25q113 0 186.5 75.5t73.5 194.5q0 49 -13.5 92.5t-27.5 62.5zM230 190l325 420q-50 25 -120 25q-113 0 -186.5 -75.5t-73.5 -194.5q0 -49 13.5 -92.5t27.5 -62.5z" />
    <glyph glyph-name="Ugrave" unicode="&#xd9;" horiz-adv-x="760" 
d="M85 730h120v-455q0 -86 46 -133t129 -47t129 47t46 133v455h120v-455q0 -135 -78.5 -212.5t-216.5 -77.5t-216.5 77.5t-78.5 212.5v455zM360 980l70 -185h-75l-125 185h130z" />
    <glyph glyph-name="Uacute" unicode="&#xda;" horiz-adv-x="760" 
d="M85 730h120v-455q0 -86 46 -133t129 -47t129 47t46 133v455h120v-455q0 -135 -78.5 -212.5t-216.5 -77.5t-216.5 77.5t-78.5 212.5v455zM335 795l70 185h130l-125 -185h-75z" />
    <glyph glyph-name="Ucircumflex" unicode="&#xdb;" horiz-adv-x="760" 
d="M85 730h120v-455q0 -86 46 -133t129 -47t129 47t46 133v455h120v-455q0 -135 -78.5 -212.5t-216.5 -77.5t-216.5 77.5t-78.5 212.5v455zM385 905l-115 -110h-75l150 185h80l150 -185h-75z" />
    <glyph glyph-name="Udieresis" unicode="&#xdc;" horiz-adv-x="760" 
d="M85 730h120v-455q0 -86 46 -133t129 -47t129 47t46 133v455h120v-455q0 -135 -78.5 -212.5t-216.5 -77.5t-216.5 77.5t-78.5 212.5v455zM215 885q0 29 19 47t46 18t46 -18t19 -47t-19 -47t-46 -18t-46 18t-19 47zM425 885q0 29 19 47t46 18t46 -18t19 -47t-19 -47
t-46 -18t-46 18t-19 47z" />
    <glyph glyph-name="Yacute" unicode="&#xdd;" horiz-adv-x="690" 
d="M405 295v-295h-120v295l-275 435h135l200 -320l200 320h135zM305 795l70 185h130l-125 -185h-75z" />
    <glyph glyph-name="Thorn" unicode="&#xde;" horiz-adv-x="660" 
d="M215 120v-120h-120v730h120v-120h120q130 0 200 -65.5t70 -179.5t-70 -179.5t-200 -65.5h-120zM215 500v-270h120q68 0 106.5 35.5t38.5 99.5t-38.5 99.5t-106.5 35.5h-120z" />
    <glyph glyph-name="germandbls" unicode="&#xdf;" horiz-adv-x="660" 
d="M500 575q0 -43 -20 -78.5t-40 -62.5t-20 -49t16.5 -38.5t40.5 -26t53 -24t53 -30.5t40.5 -47.5t16.5 -73.5q0 -70 -53 -115t-147 -45q-42 0 -83.5 12.5t-61.5 24.5l-20 13l25 95q65 -45 140 -45q80 0 80 61q0 28 -22 48t-54 33t-63.5 28.5t-53.5 44.5t-22 70t20 77t40 65
t20 53q0 34 -24.5 54.5t-65.5 20.5q-47 0 -76 -30t-29 -85v-525h-115v525q0 97 61.5 158.5t158.5 61.5q95 0 150 -48t55 -122z" />
    <glyph glyph-name="agrave" unicode="&#xe0;" horiz-adv-x="590" 
d="M260 85q34 0 61 11.5t42 27.5t25 32t14 28l3 11q-4 4 -13.5 10t-43 15.5t-73.5 9.5q-44 0 -69.5 -20.5t-25.5 -54.5t21 -52t59 -18zM295 535q108 0 166.5 -56t58.5 -154v-325h-110l-5 80h-5q-1 -4 -4.5 -10.5t-16.5 -22.5t-29.5 -28.5t-47.5 -23t-67 -10.5q-77 0 -126 45
t-49 112q0 75 51.5 121.5t143.5 46.5q42 0 79.5 -9t53.5 -17l17 -9v45q0 53 -32.5 81.5t-92.5 28.5q-51 0 -98.5 -19t-69.5 -37l-22 -19h-15v105q10 8 28 20.5t75.5 33.5t116.5 21zM280 780l70 -185h-75l-125 185h130z" />
    <glyph glyph-name="aacute" unicode="&#xe1;" horiz-adv-x="590" 
d="M260 85q34 0 61 11.5t42 27.5t25 32t14 28l3 11q-4 4 -13.5 10t-43 15.5t-73.5 9.5q-44 0 -69.5 -20.5t-25.5 -54.5t21 -52t59 -18zM295 535q108 0 166.5 -56t58.5 -154v-325h-110l-5 80h-5q-1 -4 -4.5 -10.5t-16.5 -22.5t-29.5 -28.5t-47.5 -23t-67 -10.5q-77 0 -126 45
t-49 112q0 75 51.5 121.5t143.5 46.5q42 0 79.5 -9t53.5 -17l17 -9v45q0 53 -32.5 81.5t-92.5 28.5q-51 0 -98.5 -19t-69.5 -37l-22 -19h-15v105q10 8 28 20.5t75.5 33.5t116.5 21zM255 595l70 185h130l-125 -185h-75z" />
    <glyph glyph-name="acircumflex" unicode="&#xe2;" horiz-adv-x="590" 
d="M260 85q34 0 61 11.5t42 27.5t25 32t14 28l3 11q-4 4 -13.5 10t-43 15.5t-73.5 9.5q-44 0 -69.5 -20.5t-25.5 -54.5t21 -52t59 -18zM295 535q108 0 166.5 -56t58.5 -154v-325h-110l-5 80h-5q-1 -4 -4.5 -10.5t-16.5 -22.5t-29.5 -28.5t-47.5 -23t-67 -10.5q-77 0 -126 45
t-49 112q0 75 51.5 121.5t143.5 46.5q42 0 79.5 -9t53.5 -17l17 -9v45q0 53 -32.5 81.5t-92.5 28.5q-51 0 -98.5 -19t-69.5 -37l-22 -19h-15v105q10 8 28 20.5t75.5 33.5t116.5 21zM295 705l-115 -110h-75l150 185h80l150 -185h-75z" />
    <glyph glyph-name="atilde" unicode="&#xe3;" horiz-adv-x="590" 
d="M260 85q34 0 61 11.5t42 27.5t25 32t14 28l3 11q-4 4 -13.5 10t-43 15.5t-73.5 9.5q-44 0 -69.5 -20.5t-25.5 -54.5t21 -52t59 -18zM295 535q108 0 166.5 -56t58.5 -154v-325h-110l-5 80h-5q-1 -4 -4.5 -10.5t-16.5 -22.5t-29.5 -28.5t-47.5 -23t-67 -10.5q-77 0 -126 45
t-49 112q0 75 51.5 121.5t143.5 46.5q42 0 79.5 -9t53.5 -17l17 -9v45q0 53 -32.5 81.5t-92.5 28.5q-51 0 -98.5 -19t-69.5 -37l-22 -19h-15v105q10 8 28 20.5t75.5 33.5t116.5 21zM220 670q-27 0 -52 -12.5t-36 -25.5l-12 -12v90q3 6 10 14t33 22t57 14q36 0 86 -30t79 -30
q27 0 52 12.5t37 25.5l11 12v-90q-3 -6 -10 -14t-33 -22t-57 -14q-36 0 -86 30t-79 30z" />
    <glyph glyph-name="adieresis" unicode="&#xe4;" horiz-adv-x="590" 
d="M260 85q34 0 61 11.5t42 27.5t25 32t14 28l3 11q-4 4 -13.5 10t-43 15.5t-73.5 9.5q-44 0 -69.5 -20.5t-25.5 -54.5t21 -52t59 -18zM295 535q108 0 166.5 -56t58.5 -154v-325h-110l-5 80h-5q-1 -4 -4.5 -10.5t-16.5 -22.5t-29.5 -28.5t-47.5 -23t-67 -10.5q-77 0 -126 45
t-49 112q0 75 51.5 121.5t143.5 46.5q42 0 79.5 -9t53.5 -17l17 -9v45q0 53 -32.5 81.5t-92.5 28.5q-51 0 -98.5 -19t-69.5 -37l-22 -19h-15v105q10 8 28 20.5t75.5 33.5t116.5 21zM140 685q0 29 19 47t46 18t46 -18t19 -47t-19 -47t-46 -18t-46 18t-19 47zM350 685
q0 29 19 47t46 18t46 -18t19 -47t-19 -47t-46 -18t-46 18t-19 47z" />
    <glyph glyph-name="aring" unicode="&#xe5;" horiz-adv-x="590" 
d="M260 85q34 0 61 11.5t42 27.5t25 32t14 28l3 11q-4 4 -13.5 10t-43 15.5t-73.5 9.5q-44 0 -69.5 -20.5t-25.5 -54.5t21 -52t59 -18zM295 535q108 0 166.5 -56t58.5 -154v-325h-110l-5 80h-5q-1 -4 -4.5 -10.5t-16.5 -22.5t-29.5 -28.5t-47.5 -23t-67 -10.5q-77 0 -126 45
t-49 112q0 75 51.5 121.5t143.5 46.5q42 0 79.5 -9t53.5 -17l17 -9v45q0 53 -32.5 81.5t-92.5 28.5q-51 0 -98.5 -19t-69.5 -37l-22 -19h-15v105q10 8 28 20.5t75.5 33.5t116.5 21zM185 710q0 52 33.5 86t86.5 34t86.5 -34t33.5 -86t-33.5 -86t-86.5 -34t-86.5 34t-33.5 86z
M255 710q0 -22 13.5 -36t36.5 -14t36.5 14t13.5 36t-13.5 36t-36.5 14t-36.5 -14t-13.5 -36z" />
    <glyph glyph-name="ae" unicode="&#xe6;" horiz-adv-x="980" 
d="M675 535q117 0 186 -70.5t69 -192.5v-37h-415q8 -64 54.5 -104.5t125.5 -40.5q35 0 67 6.5t52.5 16t36 19.5t22.5 16l7 7h15v-110q-3 -2 -9 -6.5t-26.5 -14.5t-43 -18t-59 -14.5t-75.5 -6.5q-43 0 -82 13t-64 31.5t-44.5 36.5t-27.5 31l-9 13h-5q-2 -5 -6.5 -13.5
t-21 -30t-37 -38t-57 -30t-78.5 -13.5q-87 0 -138.5 45t-51.5 112q0 75 51.5 121.5t143.5 46.5q42 0 79.5 -9t53.5 -17l17 -9v45q0 53 -32.5 81.5t-92.5 28.5q-51 0 -98.5 -19t-69.5 -37l-22 -19h-15v105q10 8 28 20.5t75.5 33.5t116.5 21q39 0 73 -9.5t54.5 -22.5t35.5 -26
t21 -23l6 -9q3 4 8 10t23 21.5t38 27.5t53 21.5t68 9.5zM260 85q34 0 61 11.5t42 27.5t25 32t14 28l3 11q-4 4 -13.5 10t-43 15.5t-73.5 9.5q-44 0 -69.5 -20.5t-25.5 -54.5t21 -52t59 -18zM680 430q-62 0 -102.5 -30.5t-57.5 -74.5h300q-8 45 -44 75t-96 30z" />
    <glyph glyph-name="ccedilla" unicode="&#xe7;" horiz-adv-x="565" 
d="M165 260q0 -74 49.5 -122t125.5 -48q42 0 78.5 15t51.5 30l15 15h20v-105q-6 -6 -18.5 -15.5t-55 -26t-91.5 -18.5l-10 -30q105 -23 105 -105q0 -50 -34.5 -77.5t-100.5 -27.5q-24 0 -45.5 5t-30.5 10l-9 5v60q30 -20 65 -20q60 0 60 45q0 22 -22.5 36t-45.5 16l-22 3
l30 85q-100 16 -165 89.5t-65 180.5q0 116 79.5 195.5t195.5 79.5q60 0 110 -16.5t70 -32.5l20 -16l-45 -85q-6 5 -16.5 12.5t-47 20t-76.5 12.5q-76 0 -125.5 -48t-49.5 -122z" />
    <glyph glyph-name="egrave" unicode="&#xe8;" horiz-adv-x="625" 
d="M320 535q117 0 186 -70.5t69 -192.5v-37h-415q8 -64 54.5 -104.5t125.5 -40.5q35 0 67 6.5t52.5 16t36 19.5t22.5 16l7 7h15v-110q-3 -2 -9 -6.5t-26.5 -14.5t-43 -18t-59 -14.5t-75.5 -6.5q-121 0 -199 77.5t-78 197.5q0 116 78.5 195.5t191.5 79.5zM325 430
q-62 0 -102.5 -30.5t-57.5 -74.5h300q-8 45 -44 75t-96 30zM290 780l70 -185h-75l-125 185h130z" />
    <glyph glyph-name="eacute" unicode="&#xe9;" horiz-adv-x="625" 
d="M320 535q117 0 186 -70.5t69 -192.5v-37h-415q8 -64 54.5 -104.5t125.5 -40.5q35 0 67 6.5t52.5 16t36 19.5t22.5 16l7 7h15v-110q-3 -2 -9 -6.5t-26.5 -14.5t-43 -18t-59 -14.5t-75.5 -6.5q-121 0 -199 77.5t-78 197.5q0 116 78.5 195.5t191.5 79.5zM325 430
q-62 0 -102.5 -30.5t-57.5 -74.5h300q-8 45 -44 75t-96 30zM280 595l70 185h130l-125 -185h-75z" />
    <glyph glyph-name="ecircumflex" unicode="&#xea;" horiz-adv-x="625" 
d="M320 535q117 0 186 -70.5t69 -192.5v-37h-415q8 -64 54.5 -104.5t125.5 -40.5q35 0 67 6.5t52.5 16t36 19.5t22.5 16l7 7h15v-110q-3 -2 -9 -6.5t-26.5 -14.5t-43 -18t-59 -14.5t-75.5 -6.5q-121 0 -199 77.5t-78 197.5q0 116 78.5 195.5t191.5 79.5zM325 430
q-62 0 -102.5 -30.5t-57.5 -74.5h300q-8 45 -44 75t-96 30zM325 705l-115 -110h-75l150 185h80l150 -185h-75z" />
    <glyph glyph-name="edieresis" unicode="&#xeb;" horiz-adv-x="625" 
d="M320 535q117 0 186 -70.5t69 -192.5v-37h-415q8 -64 54.5 -104.5t125.5 -40.5q35 0 67 6.5t52.5 16t36 19.5t22.5 16l7 7h15v-110q-3 -2 -9 -6.5t-26.5 -14.5t-43 -18t-59 -14.5t-75.5 -6.5q-121 0 -199 77.5t-78 197.5q0 116 78.5 195.5t191.5 79.5zM325 430
q-62 0 -102.5 -30.5t-57.5 -74.5h300q-8 45 -44 75t-96 30zM155 685q0 29 19 47t46 18t46 -18t19 -47t-19 -47t-46 -18t-46 18t-19 47zM365 685q0 29 19 47t46 18t46 -18t19 -47t-19 -47t-46 -18t-46 18t-19 47z" />
    <glyph glyph-name="igrave" unicode="&#xec;" horiz-adv-x="265" 
d="M100 780l70 -185h-75l-125 185h130zM190 520v-520h-115v520h115z" />
    <glyph glyph-name="iacute" unicode="&#xed;" horiz-adv-x="265" 
d="M95 595l70 185h130l-125 -185h-75zM190 520v-520h-115v520h115z" />
    <glyph glyph-name="icircumflex" unicode="&#xee;" horiz-adv-x="265" 
d="M190 520v-520h-115v520h115zM135 705l-115 -110h-75l150 185h80l150 -185h-75z" />
    <glyph glyph-name="idieresis" unicode="&#xef;" horiz-adv-x="265" 
d="M-30 685q0 29 19 47t46 18t46 -18t19 -47t-19 -47t-46 -18t-46 18t-19 47zM180 685q0 29 19 47t46 18t46 -18t19 -47t-19 -47t-46 -18t-46 18t-19 47zM190 520v-520h-115v520h115z" />
    <glyph glyph-name="eth" unicode="&#xf0;" horiz-adv-x="665" 
d="M255 595l-60 75h100q-15 14 -33.5 28t-34 24.5t-28.5 19t-21 13.5l-8 5h155q65 -40 110 -90h90l60 -75h-85q4 -5 11 -15t25.5 -42.5t32 -67t25 -86.5t11.5 -104q0 -130 -79.5 -212.5t-200.5 -82.5q-119 0 -197 76t-78 189q0 115 72.5 190t180.5 75q31 0 59.5 -7
t46.5 -17.5t31 -21t19 -17.5l6 -7h5q-11 33 -35 70.5t-42 58.5l-18 21h-120zM485 250q0 71 -44.5 115.5t-115.5 44.5t-115.5 -44.5t-44.5 -115.5t44.5 -115.5t115.5 -44.5t115.5 44.5t44.5 115.5z" />
    <glyph glyph-name="ntilde" unicode="&#xf1;" horiz-adv-x="640" 
d="M570 0h-115v315q0 55 -31 85t-84 30q-61 0 -105.5 -43.5t-44.5 -106.5v-280h-115v520h110l5 -80h5q2 4 5.5 10.5t18 22.5t32.5 28.5t48.5 23t65.5 10.5q94 0 149.5 -57t55.5 -158v-320zM250 670q-27 0 -52 -12.5t-36 -25.5l-12 -12v90q3 6 10 14t33 22t57 14q36 0 86 -30
t79 -30q27 0 52 12.5t37 25.5l11 12v-90q-3 -6 -10 -14t-33 -22t-57 -14q-36 0 -86 30t-79 30z" />
    <glyph glyph-name="ograve" unicode="&#xf2;" horiz-adv-x="670" 
d="M170 260q0 -75 46.5 -122.5t118.5 -47.5t118.5 47.5t46.5 122.5t-46.5 122.5t-118.5 47.5t-118.5 -47.5t-46.5 -122.5zM620 260q0 -117 -81 -196t-204 -79t-204 79t-81 196t81 196t204 79t204 -79t81 -196zM305 780l70 -185h-75l-125 185h130z" />
    <glyph glyph-name="oacute" unicode="&#xf3;" horiz-adv-x="670" 
d="M170 260q0 -75 46.5 -122.5t118.5 -47.5t118.5 47.5t46.5 122.5t-46.5 122.5t-118.5 47.5t-118.5 -47.5t-46.5 -122.5zM620 260q0 -117 -81 -196t-204 -79t-204 79t-81 196t81 196t204 79t204 -79t81 -196zM295 595l70 185h130l-125 -185h-75z" />
    <glyph glyph-name="ocircumflex" unicode="&#xf4;" horiz-adv-x="670" 
d="M170 260q0 -75 46.5 -122.5t118.5 -47.5t118.5 47.5t46.5 122.5t-46.5 122.5t-118.5 47.5t-118.5 -47.5t-46.5 -122.5zM620 260q0 -117 -81 -196t-204 -79t-204 79t-81 196t81 196t204 79t204 -79t81 -196zM335 705l-115 -110h-75l150 185h80l150 -185h-75z" />
    <glyph glyph-name="otilde" unicode="&#xf5;" horiz-adv-x="670" 
d="M170 260q0 -75 46.5 -122.5t118.5 -47.5t118.5 47.5t46.5 122.5t-46.5 122.5t-118.5 47.5t-118.5 -47.5t-46.5 -122.5zM620 260q0 -117 -81 -196t-204 -79t-204 79t-81 196t81 196t204 79t204 -79t81 -196zM250 670q-27 0 -52 -12.5t-36 -25.5l-12 -12v90q3 6 10 14
t33 22t57 14q36 0 86 -30t79 -30q27 0 52 12.5t37 25.5l11 12v-90q-3 -6 -10 -14t-33 -22t-57 -14q-36 0 -86 30t-79 30z" />
    <glyph glyph-name="odieresis" unicode="&#xf6;" horiz-adv-x="670" 
d="M170 260q0 -75 46.5 -122.5t118.5 -47.5t118.5 47.5t46.5 122.5t-46.5 122.5t-118.5 47.5t-118.5 -47.5t-46.5 -122.5zM620 260q0 -117 -81 -196t-204 -79t-204 79t-81 196t81 196t204 79t204 -79t81 -196zM165 685q0 29 19 47t46 18t46 -18t19 -47t-19 -47t-46 -18
t-46 18t-19 47zM375 685q0 29 19 47t46 18t46 -18t19 -47t-19 -47t-46 -18t-46 18t-19 47z" />
    <glyph glyph-name="divide" unicode="&#xf7;" horiz-adv-x="530" 
d="M65 280v95h400v-95h-400zM200 530q0 26 19.5 45.5t45.5 19.5t45.5 -19.5t19.5 -45.5t-19.5 -45.5t-45.5 -19.5t-45.5 19.5t-19.5 45.5zM200 125q0 26 19.5 45.5t45.5 19.5t45.5 -19.5t19.5 -45.5t-19.5 -45.5t-45.5 -19.5t-45.5 19.5t-19.5 45.5z" />
    <glyph glyph-name="oslash" unicode="&#xf8;" horiz-adv-x="670" 
d="M620 260q0 -117 -81 -196t-204 -79q-31 0 -62.5 6.5t-46.5 12.5l-16 6l-20 -25h-120l60 80l-8.5 8.5t-19.5 24t-24.5 39.5t-19 54.5t-8.5 68.5q0 117 81 196t204 79q31 0 62.5 -6.5t46.5 -12.5l16 -6l20 25h120l-60 -80l8.5 -8.5t19.5 -24t24.5 -39.5t19 -54.5t8.5 -68.5
zM500 260q0 29 -7.5 54t-14.5 36l-8 10l-195 -260q25 -10 60 -10q72 0 118.5 47.5t46.5 122.5zM170 260q0 -29 7.5 -54t14.5 -36l8 -10l195 260q-25 10 -60 10q-72 0 -118.5 -47.5t-46.5 -122.5z" />
    <glyph glyph-name="ugrave" unicode="&#xf9;" horiz-adv-x="645" 
d="M75 520h115v-315q0 -55 31 -85t84 -30q61 0 105.5 43.5t44.5 106.5v280h115v-520h-110l-5 80h-5q-2 -4 -5.5 -10.5t-18 -22.5t-32.5 -28.5t-48.5 -23t-65.5 -10.5q-94 0 -149.5 57t-55.5 158v320zM305 780l70 -185h-75l-125 185h130z" />
    <glyph glyph-name="uacute" unicode="&#xfa;" horiz-adv-x="645" 
d="M75 520h115v-315q0 -55 31 -85t84 -30q61 0 105.5 43.5t44.5 106.5v280h115v-520h-110l-5 80h-5q-2 -4 -5.5 -10.5t-18 -22.5t-32.5 -28.5t-48.5 -23t-65.5 -10.5q-94 0 -149.5 57t-55.5 158v320zM285 595l70 185h130l-125 -185h-75z" />
    <glyph glyph-name="ucircumflex" unicode="&#xfb;" horiz-adv-x="645" 
d="M75 520h115v-315q0 -55 31 -85t84 -30q61 0 105.5 43.5t44.5 106.5v280h115v-520h-110l-5 80h-5q-2 -4 -5.5 -10.5t-18 -22.5t-32.5 -28.5t-48.5 -23t-65.5 -10.5q-94 0 -149.5 57t-55.5 158v320zM325 705l-115 -110h-75l150 185h80l150 -185h-75z" />
    <glyph glyph-name="udieresis" unicode="&#xfc;" horiz-adv-x="645" 
d="M75 520h115v-315q0 -55 31 -85t84 -30q61 0 105.5 43.5t44.5 106.5v280h115v-520h-110l-5 80h-5q-2 -4 -5.5 -10.5t-18 -22.5t-32.5 -28.5t-48.5 -23t-65.5 -10.5q-94 0 -149.5 57t-55.5 158v320zM155 685q0 29 19 47t46 18t46 -18t19 -47t-19 -47t-46 -18t-46 18t-19 47
zM365 685q0 29 19 47t46 18t46 -18t19 -47t-19 -47t-46 -18t-46 18t-19 47z" />
    <glyph glyph-name="yacute" unicode="&#xfd;" horiz-adv-x="590" 
d="M575 520l-300 -740h-120l90 225l-230 515h120l165 -370h5l150 370h120zM255 595l70 185h130l-125 -185h-75z" />
    <glyph glyph-name="thorn" unicode="&#xfe;" horiz-adv-x="680" 
d="M190 260q0 -73 47.5 -121.5t112.5 -48.5t112.5 48.5t47.5 121.5t-47.5 121.5t-112.5 48.5t-112.5 -48.5t-47.5 -121.5zM630 260q0 -118 -74.5 -196.5t-180.5 -78.5q-36 0 -68 10t-51.5 23.5t-34 27.5t-20.5 24l-6 10h-5v-300h-115v980h115v-320h5q2 4 6 10.5t20 22.5
t34.5 28.5t51 23t68.5 10.5q106 0 180.5 -78.5t74.5 -196.5z" />
    <glyph glyph-name="ydieresis" unicode="&#xff;" horiz-adv-x="590" 
d="M575 520l-300 -740h-120l90 225l-230 515h120l165 -370h5l150 370h120zM130 685q0 29 19 47t46 18t46 -18t19 -47t-19 -47t-46 -18t-46 18t-19 47zM340 685q0 29 19 47t46 18t46 -18t19 -47t-19 -47t-46 -18t-46 18t-19 47z" />
    <glyph glyph-name="Amacron" unicode="&#x100;" horiz-adv-x="775" 
d="M515 285l-125 280h-5l-125 -280h255zM565 175h-355l-80 -175h-130l335 730h105l335 -730h-130zM200 840v85h370v-85h-370z" />
    <glyph glyph-name="amacron" unicode="&#x101;" horiz-adv-x="590" 
d="M260 85q34 0 61 11.5t42 27.5t25 32t14 28l3 11q-4 4 -13.5 10t-43 15.5t-73.5 9.5q-44 0 -69.5 -20.5t-25.5 -54.5t21 -52t59 -18zM295 535q108 0 166.5 -56t58.5 -154v-325h-110l-5 80h-5q-1 -4 -4.5 -10.5t-16.5 -22.5t-29.5 -28.5t-47.5 -23t-67 -10.5q-77 0 -126 45
t-49 112q0 75 51.5 121.5t143.5 46.5q42 0 79.5 -9t53.5 -17l17 -9v45q0 53 -32.5 81.5t-92.5 28.5q-51 0 -98.5 -19t-69.5 -37l-22 -19h-15v105q10 8 28 20.5t75.5 33.5t116.5 21zM115 640v85h370v-85h-370z" />
    <glyph glyph-name="Abreve" unicode="&#x102;" horiz-adv-x="775" 
d="M515 285l-125 280h-5l-125 -280h255zM565 175h-355l-80 -175h-130l335 730h105l335 -730h-130zM385 815q-49 0 -89 12.5t-56 24.5l-15 13v100l6.5 -6.5t19.5 -14.5t32 -18t45 -14.5t57 -6.5q47 0 87 15t56 30l17 15v-100q-6 -6 -17 -14t-52.5 -22t-90.5 -14z" />
    <glyph glyph-name="abreve" unicode="&#x103;" horiz-adv-x="590" 
d="M260 85q34 0 61 11.5t42 27.5t25 32t14 28l3 11q-4 4 -13.5 10t-43 15.5t-73.5 9.5q-44 0 -69.5 -20.5t-25.5 -54.5t21 -52t59 -18zM295 535q108 0 166.5 -56t58.5 -154v-325h-110l-5 80h-5q-1 -4 -4.5 -10.5t-16.5 -22.5t-29.5 -28.5t-47.5 -23t-67 -10.5q-77 0 -126 45
t-49 112q0 75 51.5 121.5t143.5 46.5q42 0 79.5 -9t53.5 -17l17 -9v45q0 53 -32.5 81.5t-92.5 28.5q-51 0 -98.5 -19t-69.5 -37l-22 -19h-15v105q10 8 28 20.5t75.5 33.5t116.5 21zM300 605q-49 0 -89 12.5t-55 24.5l-16 13v100l6.5 -6.5t19.5 -14.5t32 -18t45 -14.5
t57 -6.5q47 0 87 15t57 30l16 15v-100q-6 -6 -17 -14t-52.5 -22t-90.5 -14z" />
    <glyph glyph-name="Aogonek" unicode="&#x104;" horiz-adv-x="775" 
d="M715 0h-70l-80 175h-355l-80 -175h-130l335 730h105l335 -730q-4 -2 -11 -6.5t-24 -18.5t-30 -29t-24 -38.5t-11 -47.5q0 -55 55 -55q11 0 22.5 3.5t17.5 7.5l5 4v-55q-25 -20 -70 -20q-52 0 -86 30t-34 75q0 44 32.5 81.5t64.5 52.5zM515 285l-125 280h-5l-125 -280h255
z" />
    <glyph glyph-name="aogonek" unicode="&#x105;" horiz-adv-x="590" 
d="M295 535q108 0 166.5 -56t58.5 -154v-325q-4 -2 -11 -6.5t-24 -18.5t-30 -29t-24 -38.5t-11 -47.5q0 -55 55 -55q11 0 22.5 3.5t16.5 7.5l6 4v-55q-25 -20 -70 -20q-52 0 -86 30t-34 75q0 44 32.5 81.5t65.5 52.5l32 16h-50l-5 80h-5q-1 -4 -4.5 -10.5t-16.5 -22.5
t-29.5 -28.5t-47.5 -23t-67 -10.5q-77 0 -126 45t-49 112q0 75 51.5 121.5t143.5 46.5q42 0 79.5 -9t53.5 -17l17 -9v45q0 53 -32.5 81.5t-92.5 28.5q-51 0 -98.5 -19t-69.5 -37l-22 -19h-15v105q10 8 28 20.5t75.5 33.5t116.5 21zM260 85q34 0 61 11.5t42 27.5t25 32t14 28
l3 11q-4 4 -13.5 10t-43 15.5t-73.5 9.5q-44 0 -69.5 -20.5t-25.5 -54.5t21 -52t59 -18z" />
    <glyph glyph-name="Cacute" unicode="&#x106;" horiz-adv-x="735" 
d="M175 365q0 -120 75 -195t195 -75q41 0 78 12t61 28.5t42 33.5t26 29l8 12h15v-125q-3 -4 -9.5 -11t-29 -24t-49 -30t-69 -24t-88.5 -11q-161 0 -270.5 109.5t-109.5 270.5t109.5 270.5t270.5 109.5q49 0 94.5 -11t75 -26.5t52 -30.5t32.5 -26l11 -11l-45 -95
q-3 4 -8.5 10t-25 21.5t-41 27.5t-57 21.5t-73.5 9.5q-120 0 -195 -75t-75 -195zM375 795l70 185h130l-125 -185h-75z" />
    <glyph glyph-name="cacute" unicode="&#x107;" horiz-adv-x="565" 
d="M165 260q0 -74 49.5 -122t125.5 -48q42 0 78.5 15t51.5 30l15 15h20v-105q-2 -2 -7 -6.5t-22 -14.5t-36 -18t-50 -14.5t-65 -6.5q-116 0 -195.5 79.5t-79.5 195.5t79.5 195.5t195.5 79.5q60 0 110 -16.5t70 -32.5l20 -16l-45 -85q-6 5 -16.5 12.5t-47 20t-76.5 12.5
q-76 0 -125.5 -48t-49.5 -122zM265 595l70 185h130l-125 -185h-75z" />
    <glyph glyph-name="Ccircumflex" unicode="&#x108;" horiz-adv-x="735" 
d="M175 365q0 -120 75 -195t195 -75q41 0 78 12t61 28.5t42 33.5t26 29l8 12h15v-125q-3 -4 -9.5 -11t-29 -24t-49 -30t-69 -24t-88.5 -11q-161 0 -270.5 109.5t-109.5 270.5t109.5 270.5t270.5 109.5q49 0 94.5 -11t75 -26.5t52 -30.5t32.5 -26l11 -11l-45 -95
q-3 4 -8.5 10t-25 21.5t-41 27.5t-57 21.5t-73.5 9.5q-120 0 -195 -75t-75 -195zM410 905l-115 -110h-75l150 185h80l150 -185h-75z" />
    <glyph glyph-name="ccircumflex" unicode="&#x109;" horiz-adv-x="565" 
d="M165 260q0 -74 49.5 -122t125.5 -48q42 0 78.5 15t51.5 30l15 15h20v-105q-2 -2 -7 -6.5t-22 -14.5t-36 -18t-50 -14.5t-65 -6.5q-116 0 -195.5 79.5t-79.5 195.5t79.5 195.5t195.5 79.5q60 0 110 -16.5t70 -32.5l20 -16l-45 -85q-6 5 -16.5 12.5t-47 20t-76.5 12.5
q-76 0 -125.5 -48t-49.5 -122zM315 705l-115 -110h-75l150 185h80l150 -185h-75z" />
    <glyph glyph-name="Ccaron" unicode="&#x10c;" horiz-adv-x="735" 
d="M175 365q0 -120 75 -195t195 -75q41 0 78 12t61 28.5t42 33.5t26 29l8 12h15v-125q-3 -4 -9.5 -11t-29 -24t-49 -30t-69 -24t-88.5 -11q-161 0 -270.5 109.5t-109.5 270.5t109.5 270.5t270.5 109.5q49 0 94.5 -11t75 -26.5t52 -30.5t32.5 -26l11 -11l-45 -95
q-3 4 -8.5 10t-25 21.5t-41 27.5t-57 21.5t-73.5 9.5q-120 0 -195 -75t-75 -195zM295 980l115 -110l115 110h75l-150 -185h-80l-150 185h75z" />
    <glyph glyph-name="ccaron" unicode="&#x10d;" horiz-adv-x="565" 
d="M165 260q0 -74 49.5 -122t125.5 -48q42 0 78.5 15t51.5 30l15 15h20v-105q-2 -2 -7 -6.5t-22 -14.5t-36 -18t-50 -14.5t-65 -6.5q-116 0 -195.5 79.5t-79.5 195.5t79.5 195.5t195.5 79.5q60 0 110 -16.5t70 -32.5l20 -16l-45 -85q-6 5 -16.5 12.5t-47 20t-76.5 12.5
q-76 0 -125.5 -48t-49.5 -122zM195 780l115 -110l115 110h75l-150 -185h-80l-150 185h75z" />
    <glyph glyph-name="Dcaron" unicode="&#x10e;" horiz-adv-x="762" 
d="M97 730h225q167 0 276 -105t109 -260t-109 -260t-276 -105h-225v730zM322 620h-105v-510h105q116 0 188 71t72 184t-72 184t-188 71zM245 980l115 -110l115 110h75l-150 -185h-80l-150 185h75z" />
    <glyph glyph-name="dcaron" unicode="&#x10f;" horiz-adv-x="745" 
d="M490 260q0 74 -46 122t-114 48t-114 -48t-46 -122t46 -122t114 -48t114 48t46 122zM50 260q0 118 74.5 196.5t180.5 78.5q36 0 68 -10t51.5 -23.5t34 -27.5t20.5 -24l6 -10h5v320h115v-760h-110l-5 80h-5q-2 -4 -6 -10.5t-20 -22.5t-34.5 -28.5t-51 -23t-68.5 -10.5
q-106 0 -180.5 78.5t-74.5 196.5zM775 725q0 -44 -17.5 -81.5t-35.5 -53.5l-17 -15h-40q6 6 14 16t22 38.5t14 55.5q-50 8 -50 55q0 25 16 40t39 15q24 0 39.5 -17.5t15.5 -52.5z" />
    <glyph glyph-name="Dcroat" unicode="&#x110;" horiz-adv-x="780" 
d="M115 730h225q167 0 276 -105t109 -260t-109 -260t-276 -105h-225v310h-75v105h75v315zM340 620h-105v-205h195v-105h-195v-200h105q116 0 188 71t72 184t-72 184t-188 71z" />
    <glyph glyph-name="dcroat" unicode="&#x111;" horiz-adv-x="710" 
d="M605 590v-590h-110l-5 80h-5q-2 -4 -6 -10.5t-20 -22.5t-34.5 -28.5t-51 -23t-68.5 -10.5q-106 0 -180.5 77.5t-74.5 192.5t74.5 192.5t180.5 77.5q36 0 68 -10t51.5 -23.5t34 -27.5t20.5 -24l6 -10h5v160h-165v100h165v70h115v-70h85v-100h-85zM170 255q0 -71 46 -118
t114 -47t114 47t46 118t-46 118t-114 47t-114 -47t-46 -118z" />
    <glyph glyph-name="Emacron" unicode="&#x112;" horiz-adv-x="625" 
d="M95 0v730h465v-110h-345v-195h270v-110h-270v-205h345v-110h-465zM145 840v85h370v-85h-370z" />
    <glyph glyph-name="emacron" unicode="&#x113;" horiz-adv-x="625" 
d="M320 535q117 0 186 -70.5t69 -192.5v-37h-415q8 -64 54.5 -104.5t125.5 -40.5q35 0 67 6.5t52.5 16t36 19.5t22.5 16l7 7h15v-110q-3 -2 -9 -6.5t-26.5 -14.5t-43 -18t-59 -14.5t-75.5 -6.5q-121 0 -199 77.5t-78 197.5q0 116 78.5 195.5t191.5 79.5zM325 430
q-62 0 -102.5 -30.5t-57.5 -74.5h300q-8 45 -44 75t-96 30zM140 640v85h370v-85h-370z" />
    <glyph glyph-name="Edotaccent" unicode="&#x116;" horiz-adv-x="625" 
d="M95 0v730h465v-110h-345v-195h270v-110h-270v-205h345v-110h-465zM260 885q0 29 19 47t46 18t46 -18t19 -47t-19 -47t-46 -18t-46 18t-19 47z" />
    <glyph glyph-name="edotaccent" unicode="&#x117;" horiz-adv-x="625" 
d="M320 535q117 0 186 -70.5t69 -192.5v-37h-415q8 -64 54.5 -104.5t125.5 -40.5q35 0 67 6.5t52.5 16t36 19.5t22.5 16l7 7h15v-110q-3 -2 -9 -6.5t-26.5 -14.5t-43 -18t-59 -14.5t-75.5 -6.5q-121 0 -199 77.5t-78 197.5q0 116 78.5 195.5t191.5 79.5zM325 430
q-62 0 -102.5 -30.5t-57.5 -74.5h300q-8 45 -44 75t-96 30zM260 685q0 29 19 47t46 18t46 -18t19 -47t-19 -47t-46 -18t-46 18t-19 47z" />
    <glyph glyph-name="Eogonek" unicode="&#x118;" horiz-adv-x="625" 
d="M95 0v730h465v-110h-345v-195h270v-110h-270v-205h345v-110q-4 -2 -11 -6.5t-24 -18.5t-30 -29t-24 -38.5t-11 -47.5q0 -55 55 -55q11 0 22.5 3.5t16.5 7.5l6 4v-55q-25 -20 -70 -20q-52 0 -86 30t-34 75q0 44 32.5 81.5t65.5 52.5l32 16h-405z" />
    <glyph glyph-name="eogonek" unicode="&#x119;" horiz-adv-x="625" 
d="M320 535q117 0 186 -70.5t69 -192.5v-37h-415q8 -64 54.5 -104.5t125.5 -40.5q35 0 67 6.5t52.5 16t36 19.5t22.5 16l7 7h15v-110q-35 -25 -100 -45q-4 -2 -11 -6.5t-24 -18.5t-30 -29t-24 -38.5t-11 -47.5q0 -55 55 -55q11 0 22.5 3.5t16.5 7.5l6 4v-55q-25 -20 -70 -20
q-52 0 -86 30t-34 75q0 38 25 71.5t50 48.5l25 15h-23q-121 0 -199 77.5t-78 197.5q0 116 78.5 195.5t191.5 79.5zM325 430q-62 0 -102.5 -30.5t-57.5 -74.5h300q-8 45 -44 75t-96 30z" />
    <glyph glyph-name="Ecaron" unicode="&#x11a;" horiz-adv-x="625" 
d="M95 0v730h465v-110h-345v-195h270v-110h-270v-205h345v-110h-465zM210 980l115 -110l115 110h75l-150 -185h-80l-150 185h75z" />
    <glyph glyph-name="ecaron" unicode="&#x11b;" horiz-adv-x="625" 
d="M320 535q117 0 186 -70.5t69 -192.5v-37h-415q8 -64 54.5 -104.5t125.5 -40.5q35 0 67 6.5t52.5 16t36 19.5t22.5 16l7 7h15v-110q-3 -2 -9 -6.5t-26.5 -14.5t-43 -18t-59 -14.5t-75.5 -6.5q-121 0 -199 77.5t-78 197.5q0 116 78.5 195.5t191.5 79.5zM325 430
q-62 0 -102.5 -30.5t-57.5 -74.5h300q-8 45 -44 75t-96 30zM210 780l115 -110l115 110h75l-150 -185h-80l-150 185h75z" />
    <glyph glyph-name="Gbreve" unicode="&#x11e;" horiz-adv-x="805" 
d="M430 745q49 0 94.5 -11t75 -26.5t52 -30.5t32.5 -26l11 -11l-45 -95q-3 4 -8.5 10t-25 21.5t-41 27.5t-57 21.5t-73.5 9.5q-120 0 -195 -75t-75 -195t74 -195t191 -75q51 0 96 17.5t64 35.5l20 17v130h-225l30 115h310v-285q-4 -6 -11.5 -15.5t-35.5 -33.5t-60 -42.5
t-85.5 -33.5t-112.5 -15q-161 0 -270.5 109.5t-109.5 270.5t109.5 270.5t270.5 109.5zM415 815q-49 0 -89 12.5t-56 24.5l-15 13v100l6.5 -6.5t19.5 -14.5t32 -18t45 -14.5t57 -6.5q47 0 87 15t56 30l17 15v-100q-6 -6 -17 -14t-52.5 -22t-90.5 -14z" />
    <glyph glyph-name="gbreve" unicode="&#x11f;" horiz-adv-x="575" 
d="M60 345q0 81 61.5 135.5t163.5 54.5q29 0 55 -5t38 -10l12 -5q1 4 3.5 11t13.5 24t26 30t43.5 24t63.5 11v-105q-27 0 -49.5 -7.5t-31.5 -14.5l-9 -8q2 -2 6.5 -5.5t14.5 -16t18 -27t14.5 -38t6.5 -48.5q0 -65 -34 -104.5t-96 -70.5l-140 -70h90q112 0 166 -42.5
t54 -117.5q0 -76 -66.5 -125.5t-198.5 -49.5q-130 0 -192.5 39.5t-62.5 100.5q0 33 21 60.5t43 38.5l21 11h-60v55l175 90q-7 1 -18.5 3.5t-40.5 15.5t-51.5 31.5t-41 54t-18.5 80.5zM430 -60q0 75 -130 75h-80q-9 -3 -22.5 -8.5t-35.5 -27.5t-22 -49q0 -70 145 -70
q75 0 110 22t35 58zM175 345q0 -41 30.5 -68t79.5 -27t79.5 27t30.5 68t-30.5 68t-79.5 27t-79.5 -27t-30.5 -68zM287 625q-49 0 -89 12.5t-56 24.5l-15 13v100l6.5 -6.5t19.5 -14.5t32 -18t45 -14.5t57 -6.5q47 0 87 15t56 30l17 15v-100q-6 -6 -17 -14t-52.5 -22
t-90.5 -14z" />
    <glyph glyph-name="Gcommaaccent" unicode="&#x122;" horiz-adv-x="805" 
d="M430 745q49 0 94.5 -11t75 -26.5t52 -30.5t32.5 -26l11 -11l-45 -95q-3 4 -8.5 10t-25 21.5t-41 27.5t-57 21.5t-73.5 9.5q-120 0 -195 -75t-75 -195t74 -195t191 -75q51 0 96 17.5t64 35.5l20 17v130h-225l30 115h310v-285q-4 -6 -11.5 -15.5t-35.5 -33.5t-60 -42.5
t-85.5 -33.5t-112.5 -15q-161 0 -270.5 109.5t-109.5 270.5t109.5 270.5t270.5 109.5zM480 -135q0 -44 -17.5 -81.5t-34.5 -53.5l-18 -15h-40q6 6 14 16t22 38.5t14 55.5q-50 8 -50 55q0 25 16 40t39 15q24 0 39.5 -17.5t15.5 -52.5z" />
    <glyph glyph-name="gcommaaccent" unicode="&#x123;" horiz-adv-x="575" 
d="M230 675q0 42 17.5 79.5t34.5 53.5l18 17h40q-50 -55 -50 -110q23 -4 36.5 -18.5t13.5 -36.5t-16 -38.5t-39 -16.5t-39 18.5t-16 51.5zM60 345q0 81 61.5 135.5t163.5 54.5q29 0 55 -5t38 -10l12 -5q1 4 3.5 11t13.5 24t26 30t43.5 24t63.5 11v-105q-27 0 -49.5 -7.5
t-31.5 -14.5l-9 -8q2 -2 6.5 -5.5t14.5 -16t18 -27t14.5 -38t6.5 -48.5q0 -65 -34 -104.5t-96 -70.5l-140 -70h90q112 0 166 -42.5t54 -117.5q0 -76 -66.5 -125.5t-198.5 -49.5q-130 0 -192.5 39.5t-62.5 100.5q0 33 21 60.5t43 38.5l21 11h-60v55l175 90q-7 1 -18.5 3.5
t-40.5 15.5t-51.5 31.5t-41 54t-18.5 80.5zM430 -60q0 75 -130 75h-80q-9 -3 -22.5 -8.5t-35.5 -27.5t-22 -49q0 -70 145 -70q75 0 110 22t35 58zM175 345q0 -41 30.5 -68t79.5 -27t79.5 27t30.5 68t-30.5 68t-79.5 27t-79.5 -27t-30.5 -68z" />
    <glyph glyph-name="Imacron" unicode="&#x12a;" horiz-adv-x="320" 
d="M220 730v-730h-120v730h120zM-25 840v85h370v-85h-370z" />
    <glyph glyph-name="imacron" unicode="&#x12b;" horiz-adv-x="265" 
d="M-50 640v85h370v-85h-370zM190 520v-520h-115v520h115z" />
    <glyph glyph-name="Iogonek" unicode="&#x12e;" horiz-adv-x="320" 
d="M160 0h-60v730h120v-730q-4 -2 -11 -6.5t-24 -18.5t-30 -29t-24 -38.5t-11 -47.5q0 -55 55 -55q11 0 22.5 3.5t16.5 7.5l6 4v-55q-25 -20 -70 -20q-52 0 -86 30t-34 75q0 44 32.5 81.5t65.5 52.5z" />
    <glyph glyph-name="iogonek" unicode="&#x12f;" horiz-adv-x="265" 
d="M130 0h-55v525q25 -10 57 -10q15 0 29.5 2.5t21.5 4.5l7 3v-525q-4 -2 -11 -6.5t-24 -18.5t-30 -29t-24 -38.5t-11 -47.5q0 -55 55 -55q11 0 22.5 3.5t16.5 7.5l6 4v-55q-25 -20 -70 -20q-52 0 -86 30t-34 75q0 44 32.5 81.5t65.5 52.5zM65 692q0 31 19 49.5t48 18.5
t48.5 -18.5t19.5 -49.5t-19.5 -49t-48.5 -18t-48 18t-19 49z" />
    <glyph glyph-name="Idotaccent" unicode="&#x130;" horiz-adv-x="320" 
d="M220 730v-730h-120v730h120zM95 885q0 29 19 47t46 18t46 -18t19 -47t-19 -47t-46 -18t-46 18t-19 47z" />
    <glyph glyph-name="dotlessi" unicode="&#x131;" horiz-adv-x="265" 
d="M190 520v-520h-115v520h115z" />
    <glyph glyph-name="Kcommaaccent" unicode="&#x136;" horiz-adv-x="694" 
d="M95 0v730h120v-345l315 345h150l-285 -310l309 -420h-145l-244 335l-100 -113v-222h-120zM425 -135q0 -44 -17.5 -81.5t-35.5 -53.5l-17 -15h-40q6 6 14 16t22 38.5t14 55.5q-50 8 -50 55q0 25 16 40t39 15q24 0 39.5 -17.5t15.5 -52.5z" />
    <glyph glyph-name="kcommaaccent" unicode="&#x137;" 
d="M75 0v760h115v-475l235 235h140l-225 -225l240 -295h-135l-180 220l-75 -75v-145h-115zM365 -135q0 -44 -17.5 -81.5t-35.5 -53.5l-17 -15h-40q6 6 14 16t22 38.5t14 55.5q-50 8 -50 55q0 25 16 40t39 15q24 0 39.5 -17.5t15.5 -52.5z" />
    <glyph glyph-name="Lacute" unicode="&#x139;" horiz-adv-x="545" 
d="M215 730v-620h310v-110h-430v730h120zM120 795l70 185h130l-125 -185h-75z" />
    <glyph glyph-name="lacute" unicode="&#x13a;" horiz-adv-x="270" 
d="M190 760v-760h-115v760h115zM95 835l70 185h130l-125 -185h-75z" />
    <glyph glyph-name="Lcommaaccent" unicode="&#x13b;" horiz-adv-x="545" 
d="M215 730v-620h310v-110h-430v730h120zM365 -135q0 -44 -17.5 -81.5t-35.5 -53.5l-17 -15h-40q6 6 14 16t22 38.5t14 55.5q-50 8 -50 55q0 25 16 40t39 15q24 0 39.5 -17.5t15.5 -52.5z" />
    <glyph glyph-name="lcommaaccent" unicode="&#x13c;" horiz-adv-x="265" 
d="M190 760v-760h-115v760h115zM185 -135q0 -44 -17.5 -81.5t-35.5 -53.5l-17 -15h-40q6 6 14 16t22 38.5t14 55.5q-50 8 -50 55q0 25 16 40t39 15q24 0 39.5 -17.5t15.5 -52.5z" />
    <glyph glyph-name="Lcaron" unicode="&#x13d;" horiz-adv-x="545" 
d="M215 730v-620h310v-110h-430v730h120zM410 670q0 -44 -17.5 -81.5t-34.5 -52.5l-18 -16h-40q6 6 14 16t22 38.5t14 55.5q-50 8 -50 55q0 25 16 40t39 15q24 0 39.5 -17.5t15.5 -52.5z" />
    <glyph glyph-name="lcaron" unicode="&#x13e;" horiz-adv-x="330" 
d="M190 760v-760h-115v760h115zM360 725q0 -44 -17.5 -81.5t-34.5 -53.5l-18 -15h-40q6 6 14 16t22 38.5t14 55.5q-50 8 -50 55q0 25 16 40t39 15q24 0 39.5 -17.5t15.5 -52.5z" />
    <glyph glyph-name="Lslash" unicode="&#x141;" horiz-adv-x="560" 
d="M40 255v100l70 25v350h120v-310l170 60v-100l-170 -60v-210h310v-110h-430v280z" />
    <glyph glyph-name="lslash" unicode="&#x142;" horiz-adv-x="305" 
d="M20 295v100l75 25v340h115v-300l75 25v-100l-75 -25v-360h-115v320z" />
    <glyph glyph-name="Nacute" unicode="&#x143;" horiz-adv-x="800" 
d="M705 730v-730h-115l-375 525v-525h-120v730h115l375 -525v525h120zM360 795l70 185h130l-125 -185h-75z" />
    <glyph glyph-name="nacute" unicode="&#x144;" horiz-adv-x="640" 
d="M570 0h-115v315q0 55 -31 85t-84 30q-61 0 -105.5 -43.5t-44.5 -106.5v-280h-115v520h110l5 -80h5q2 4 5.5 10.5t18 22.5t32.5 28.5t48.5 23t65.5 10.5q94 0 149.5 -57t55.5 -158v-320zM285 595l70 185h130l-125 -185h-75z" />
    <glyph glyph-name="Ncommaaccent" unicode="&#x145;" horiz-adv-x="800" 
d="M705 730v-730h-115l-375 525v-525h-120v730h115l375 -525v525h120zM465 -135q0 -44 -17.5 -81.5t-35.5 -53.5l-17 -15h-40q6 6 14 16t22 38.5t14 55.5q-50 8 -50 55q0 25 16 40t39 15q24 0 39.5 -17.5t15.5 -52.5z" />
    <glyph glyph-name="ncommaaccent" unicode="&#x146;" horiz-adv-x="640" 
d="M570 0h-115v315q0 55 -31 85t-84 30q-61 0 -105.5 -43.5t-44.5 -106.5v-280h-115v520h110l5 -80h5q2 4 5.5 10.5t18 22.5t32.5 28.5t48.5 23t65.5 10.5q94 0 149.5 -57t55.5 -158v-320zM380 -135q0 -44 -17.5 -81.5t-34.5 -53.5l-18 -15h-40q6 6 14 16t22 38.5t14 55.5
q-50 8 -50 55q0 25 16 40t39 15q24 0 39.5 -17.5t15.5 -52.5z" />
    <glyph glyph-name="Ncaron" unicode="&#x147;" horiz-adv-x="800" 
d="M705 730v-730h-115l-375 525v-525h-120v730h115l375 -525v525h120zM290 980l115 -110l115 110h75l-150 -185h-80l-150 185h75z" />
    <glyph glyph-name="ncaron" unicode="&#x148;" horiz-adv-x="640" 
d="M570 0h-115v315q0 55 -31 85t-84 30q-61 0 -105.5 -43.5t-44.5 -106.5v-280h-115v520h110l5 -80h5q2 4 5.5 10.5t18 22.5t32.5 28.5t48.5 23t65.5 10.5q94 0 149.5 -57t55.5 -158v-320zM210 780l115 -110l115 110h75l-150 -185h-80l-150 185h75z" />
    <glyph glyph-name="Omacron" unicode="&#x14c;" horiz-adv-x="870" 
d="M175 365q0 -119 73.5 -194.5t186.5 -75.5t186.5 75.5t73.5 194.5t-73.5 194.5t-186.5 75.5t-186.5 -75.5t-73.5 -194.5zM820 365q0 -162 -110 -271t-275 -109t-275 109t-110 271t110 271t275 109t275 -109t110 -271zM250 840v85h370v-85h-370z" />
    <glyph glyph-name="omacron" unicode="&#x14d;" horiz-adv-x="670" 
d="M170 260q0 -75 46.5 -122.5t118.5 -47.5t118.5 47.5t46.5 122.5t-46.5 122.5t-118.5 47.5t-118.5 -47.5t-46.5 -122.5zM620 260q0 -117 -81 -196t-204 -79t-204 79t-81 196t81 196t204 79t204 -79t81 -196zM145 640v85h370v-85h-370z" />
    <glyph glyph-name="Ohungarumlaut" unicode="&#x150;" horiz-adv-x="870" 
d="M175 365q0 -119 73.5 -194.5t186.5 -75.5t186.5 75.5t73.5 194.5t-73.5 194.5t-186.5 75.5t-186.5 -75.5t-73.5 -194.5zM820 365q0 -162 -110 -271t-275 -109t-275 109t-110 271t110 271t275 109t275 -109t110 -271zM330 795l55 185h120l-115 -185h-60zM485 795l80 185
h125l-135 -185h-70z" />
    <glyph glyph-name="ohungarumlaut" unicode="&#x151;" horiz-adv-x="670" 
d="M170 260q0 -75 46.5 -122.5t118.5 -47.5t118.5 47.5t46.5 122.5t-46.5 122.5t-118.5 47.5t-118.5 -47.5t-46.5 -122.5zM620 260q0 -117 -81 -196t-204 -79t-204 79t-81 196t81 196t204 79t204 -79t81 -196zM230 595l55 185h120l-115 -185h-60zM385 595l80 185h125
l-135 -185h-70z" />
    <glyph glyph-name="OE" unicode="&#x152;" horiz-adv-x="1035" 
d="M435 745q29 0 56.5 -3.5t40.5 -7.5l13 -4h425v-110h-305v-195h230v-110h-230v-205h305v-110h-425q-45 -15 -110 -15q-165 0 -275 109t-110 271t110 271t275 109zM435 95q31 0 58.5 5t39.5 10l12 5v500q-40 20 -110 20q-113 0 -186.5 -75.5t-73.5 -194.5t73.5 -194.5
t186.5 -75.5z" />
    <glyph glyph-name="oe" unicode="&#x153;" horiz-adv-x="980" 
d="M675 535q117 0 186 -70.5t69 -192.5v-37h-415q8 -64 54.5 -104.5t125.5 -40.5q35 0 67 6.5t52.5 16t36 19.5t22.5 16l7 7h15v-110q-3 -2 -9 -6.5t-26.5 -14.5t-43 -18t-59 -14.5t-75.5 -6.5q-50 0 -93 13.5t-61 27.5l-18 14q-7 -6 -21 -15t-59.5 -24.5t-94.5 -15.5
q-123 0 -204 79t-81 196t81 196t204 79q32 0 62 -5.5t49.5 -13.5t34.5 -16.5t22 -13.5l7 -6q7 6 20.5 15t57 24.5t87.5 15.5zM335 90q29 0 55 9t38 17l12 9q-35 55 -35 135q0 33 8.5 67t17.5 51l9 17q-40 35 -105 35q-72 0 -118.5 -47.5t-46.5 -122.5t46.5 -122.5
t118.5 -47.5zM680 430q-62 0 -102.5 -30.5t-57.5 -74.5h300q-8 45 -44 75t-96 30z" />
    <glyph glyph-name="Racute" unicode="&#x154;" horiz-adv-x="660" 
d="M215 620v-270h100q68 0 106.5 35.5t38.5 99.5t-38.5 99.5t-106.5 35.5h-100zM450 265l185 -265h-140l-165 240h-115v-240h-120v730h220q126 0 198 -67.5t72 -177.5q0 -46 -14 -85t-33.5 -62t-39.5 -39.5t-34 -22.5l-14 -6v-5zM285 795l70 185h130l-125 -185h-75z" />
    <glyph glyph-name="racute" unicode="&#x155;" horiz-adv-x="465" 
d="M330 430q-24 0 -47 -11.5t-39 -27.5t-29 -32t-19 -27l-6 -12v-320h-115v520h110l5 -80h5q2 4 5.5 10.5t17 22.5t29.5 28.5t42.5 23t55.5 10.5q33 0 62 -10t41 -20l12 -10l-25 -100q-3 4 -10 10t-34.5 15.5t-60.5 9.5zM220 595l70 185h130l-125 -185h-75z" />
    <glyph glyph-name="Rcommaaccent" unicode="&#x156;" horiz-adv-x="660" 
d="M215 620v-270h100q68 0 106.5 35.5t38.5 99.5t-38.5 99.5t-106.5 35.5h-100zM450 265l185 -265h-140l-165 240h-115v-240h-120v730h220q126 0 198 -67.5t72 -177.5q0 -46 -14 -85t-33.5 -62t-39.5 -39.5t-34 -22.5l-14 -6v-5zM405 -134q0 -44 -17.5 -81.5t-35.5 -52.5
l-17 -16h-40q6 6 14 16t22 38.5t14 55.5q-50 8 -50 55q0 25 16 40t39 15q24 0 39.5 -17.5t15.5 -52.5z" />
    <glyph glyph-name="rcommaaccent" unicode="&#x157;" horiz-adv-x="465" 
d="M330 430q-24 0 -47 -11.5t-39 -27.5t-29 -32t-19 -27l-6 -12v-320h-115v520h110l5 -80h5q2 4 5.5 10.5t17 22.5t29.5 28.5t42.5 23t55.5 10.5q33 0 62 -10t41 -20l12 -10l-25 -100q-3 4 -10 10t-34.5 15.5t-60.5 9.5zM185 -135q0 -44 -17.5 -81.5t-35.5 -53.5l-17 -15
h-40q6 6 14 16t22 38.5t14 55.5q-50 8 -50 55q0 25 16 40t39 15q24 0 39.5 -17.5t15.5 -52.5z" />
    <glyph glyph-name="Rcaron" unicode="&#x158;" horiz-adv-x="660" 
d="M215 620v-270h100q68 0 106.5 35.5t38.5 99.5t-38.5 99.5t-106.5 35.5h-100zM450 265l185 -265h-140l-165 240h-115v-240h-120v730h220q126 0 198 -67.5t72 -177.5q0 -46 -14 -85t-33.5 -62t-39.5 -39.5t-34 -22.5l-14 -6v-5zM210 980l115 -110l115 110h75l-150 -185h-80
l-150 185h75z" />
    <glyph glyph-name="rcaron" unicode="&#x159;" horiz-adv-x="465" 
d="M330 430q-24 0 -47 -11.5t-39 -27.5t-29 -32t-19 -27l-6 -12v-320h-115v520h110l5 -80h5q2 4 5.5 10.5t17 22.5t29.5 28.5t42.5 23t55.5 10.5q33 0 62 -10t41 -20l12 -10l-25 -100q-3 4 -10 10t-34.5 15.5t-60.5 9.5zM145 780l115 -110l115 110h75l-150 -185h-80
l-150 185h75z" />
    <glyph glyph-name="Sacute" unicode="&#x15a;" horiz-adv-x="580" 
d="M290 745q39 0 75.5 -9.5t61 -22.5t43 -26t26.5 -23l9 -9l-40 -95q-2 3 -7 8t-21 18t-34.5 23t-47.5 18t-60 8q-52 0 -81 -23.5t-29 -61.5q0 -29 26 -54t65 -42t84 -41t84 -48.5t65 -66t26 -93.5q0 -96 -69 -158t-186 -62q-42 0 -81.5 9.5t-66 22.5t-47.5 26t-31 23l-9 9
l40 95q3 -3 9 -8t25 -18t39.5 -23t52.5 -18t64 -8q62 0 98.5 28.5t36.5 71.5q0 38 -36 68t-87.5 54t-103 51.5t-87.5 75t-36 111.5q0 78 64 134t166 56zM240 795l70 185h130l-125 -185h-75z" />
    <glyph glyph-name="sacute" unicode="&#x15b;" horiz-adv-x="500" 
d="M460 145q0 -75 -54 -117.5t-166 -42.5q-56 0 -106 16.5t-72 32.5l-22 16l35 95q8 -6 22.5 -15t59 -24.5t88.5 -15.5q100 0 100 60q0 27 -30.5 43t-73.5 26t-86.5 24t-74 48.5t-30.5 88.5q0 66 51.5 110.5t138.5 44.5q56 0 104.5 -17.5t69.5 -35.5l21 -17l-45 -86
q-6 6 -16.5 14.5t-47 22.5t-76.5 14q-80 0 -80 -55q0 -23 30 -37t72.5 -24t85 -25.5t72.5 -51.5t30 -92zM200 595l70 185h130l-125 -185h-75z" />
    <glyph glyph-name="Scedilla" unicode="&#x15e;" horiz-adv-x="580" 
d="M290 745q39 0 75.5 -9.5t61 -22.5t43 -26t26.5 -23l9 -9l-40 -95q-2 3 -7 8t-21 18t-34.5 23t-47.5 18t-60 8q-52 0 -81 -23.5t-29 -61.5q0 -29 26 -54t65 -42t84 -41t84 -48.5t65 -66t26 -93.5q0 -89 -59.5 -149t-160.5 -71l-10 -30q105 -23 105 -105q0 -50 -34.5 -77.5
t-100.5 -27.5q-24 0 -45.5 5t-30.5 10l-9 5v60q30 -20 65 -20q60 0 60 45q0 22 -22.5 36t-44.5 16l-23 3l30 80q-38 3 -73 13t-59 23t-42.5 25t-26.5 20l-9 9l40 95q3 -3 9 -8t25 -18t39.5 -23t52.5 -18t64 -8q62 0 98.5 29t36.5 73q0 37 -36 67t-87.5 53.5t-103 51
t-87.5 75t-36 111.5q0 78 64 134t166 56z" />
    <glyph glyph-name="scedilla" unicode="&#x15f;" horiz-adv-x="500" 
d="M460 145q0 -69 -46 -111t-134 -49l-10 -30q105 -23 105 -105q0 -50 -34.5 -77.5t-100.5 -27.5q-24 0 -45.5 5t-30.5 10l-9 5v60q30 -20 65 -20q60 0 60 45q0 22 -22.5 36t-45.5 16l-22 3l30 80q-49 2 -94 18.5t-66 31.5l-20 15l35 95q8 -6 22.5 -15t59 -24.5t88.5 -15.5
q100 0 100 60q0 27 -30.5 43t-73.5 26t-86.5 24t-74 48.5t-30.5 88.5q0 66 51.5 110.5t138.5 44.5q56 0 104.5 -17.5t69.5 -35.5l21 -17l-45 -86q-6 6 -16.5 14.5t-47 22.5t-76.5 14q-80 0 -80 -55q0 -23 30 -37t72.5 -24t85 -25.5t72.5 -51.5t30 -92z" />
    <glyph glyph-name="Scaron" unicode="&#x160;" horiz-adv-x="580" 
d="M290 745q39 0 75.5 -9.5t61 -22.5t43 -26t26.5 -23l9 -9l-40 -95q-2 3 -7 8t-21 18t-34.5 23t-47.5 18t-60 8q-52 0 -81 -23.5t-29 -61.5q0 -29 26 -54t65 -42t84 -41t84 -48.5t65 -66t26 -93.5q0 -96 -69 -158t-186 -62q-42 0 -81.5 9.5t-66 22.5t-47.5 26t-31 23l-9 9
l40 95q3 -3 9 -8t25 -18t39.5 -23t52.5 -18t64 -8q62 0 98.5 28.5t36.5 71.5q0 38 -36 68t-87.5 54t-103 51.5t-87.5 75t-36 111.5q0 78 64 134t166 56zM170 980l115 -110l115 110h75l-150 -185h-80l-150 185h75z" />
    <glyph glyph-name="scaron" unicode="&#x161;" horiz-adv-x="500" 
d="M460 145q0 -75 -54 -117.5t-166 -42.5q-56 0 -106 16.5t-72 32.5l-22 16l35 95q8 -6 22.5 -15t59 -24.5t88.5 -15.5q100 0 100 60q0 27 -30.5 43t-73.5 26t-86.5 24t-74 48.5t-30.5 88.5q0 66 51.5 110.5t138.5 44.5q56 0 104.5 -17.5t69.5 -35.5l21 -17l-45 -86
q-6 6 -16.5 14.5t-47 22.5t-76.5 14q-80 0 -80 -55q0 -23 30 -37t72.5 -24t85 -25.5t72.5 -51.5t30 -92zM130 780l115 -110l115 110h75l-150 -185h-80l-150 185h75z" />
    <glyph glyph-name="Tcommaaccent" unicode="&#x162;" horiz-adv-x="630" 
d="M35 730h560v-110h-220v-620h-120v620h-220v110zM370 -135q0 -44 -17.5 -81.5t-34.5 -53.5l-18 -15h-40q6 6 14 16t22 38.5t14 55.5q-50 8 -50 55q0 25 16 40t39 15q24 0 39.5 -17.5t15.5 -52.5z" />
    <glyph glyph-name="tcommaaccent" unicode="&#x163;" horiz-adv-x="445" 
d="M105 175v240h-95v40l205 220h5v-155h165v-105h-165v-235q0 -43 22.5 -66.5t57.5 -23.5q24 0 45.5 10t30.5 20l9 10h15v-100q-5 -5 -14.5 -12.5t-42 -20t-68.5 -12.5q-76 0 -123 50.5t-47 139.5zM305 -133q0 -44 -17.5 -81.5t-35.5 -53.5l-17 -15h-40q6 6 14 16t22 38.5
t14 55.5q-50 8 -50 55q0 25 16 40t39 15q24 0 39.5 -17.5t15.5 -52.5z" />
    <glyph glyph-name="Tcaron" unicode="&#x164;" horiz-adv-x="630" 
d="M35 730h560v-110h-220v-620h-120v620h-220v110zM200 980l115 -110l115 110h75l-150 -185h-80l-150 185h75z" />
    <glyph glyph-name="tcaron" unicode="&#x165;" horiz-adv-x="495" 
d="M105 175v240h-95v40l205 220h5v-155h165v-105h-165v-235q0 -43 22.5 -66.5t57.5 -23.5q24 0 45.5 10t30.5 20l9 10h15v-100q-5 -5 -14.5 -12.5t-42 -20t-68.5 -12.5q-76 0 -123 50.5t-47 139.5zM525 620q0 -44 -17.5 -81.5t-35.5 -52.5l-17 -16h-40q6 6 14 16t22 38.5
t14 55.5q-50 8 -50 55q0 25 16 40t39 15q24 0 39.5 -17.5t15.5 -52.5z" />
    <glyph glyph-name="Umacron" unicode="&#x16a;" horiz-adv-x="760" 
d="M85 730h120v-455q0 -86 46 -133t129 -47t129 47t46 133v455h120v-455q0 -135 -78.5 -212.5t-216.5 -77.5t-216.5 77.5t-78.5 212.5v455zM200 840v85h370v-85h-370z" />
    <glyph glyph-name="umacron" unicode="&#x16b;" horiz-adv-x="645" 
d="M75 520h115v-315q0 -55 31 -85t84 -30q61 0 105.5 43.5t44.5 106.5v280h115v-520h-110l-5 80h-5q-2 -4 -5.5 -10.5t-18 -22.5t-32.5 -28.5t-48.5 -23t-65.5 -10.5q-94 0 -149.5 57t-55.5 158v320zM140 640v85h370v-85h-370z" />
    <glyph glyph-name="Uring" unicode="&#x16e;" horiz-adv-x="760" 
d="M85 730h120v-455q0 -86 46 -133t129 -47t129 47t46 133v455h120v-455q0 -135 -78.5 -212.5t-216.5 -77.5t-216.5 77.5t-78.5 212.5v455zM265 900q0 52 33.5 86t86.5 34t86.5 -34t33.5 -86t-33.5 -86t-86.5 -34t-86.5 34t-33.5 86zM335 900q0 -22 13.5 -36t36.5 -14
t36.5 14t13.5 36t-13.5 36t-36.5 14t-36.5 -14t-13.5 -36z" />
    <glyph glyph-name="uring" unicode="&#x16f;" horiz-adv-x="645" 
d="M75 520h115v-315q0 -55 31 -85t84 -30q61 0 105.5 43.5t44.5 106.5v280h115v-520h-110l-5 80h-5q-2 -4 -5.5 -10.5t-18 -22.5t-32.5 -28.5t-48.5 -23t-65.5 -10.5q-94 0 -149.5 57t-55.5 158v320zM205 695q0 53 33.5 86.5t86.5 33.5t86.5 -33.5t33.5 -86.5t-33.5 -86.5
t-86.5 -33.5t-86.5 33.5t-33.5 86.5zM275 695q0 -23 13.5 -36.5t36.5 -13.5t36.5 13.5t13.5 36.5t-13.5 36.5t-36.5 13.5t-36.5 -13.5t-13.5 -36.5z" />
    <glyph glyph-name="Uhungarumlaut" unicode="&#x170;" horiz-adv-x="760" 
d="M85 730h120v-455q0 -86 46 -133t129 -47t129 47t46 133v455h120v-455q0 -135 -78.5 -212.5t-216.5 -77.5t-216.5 77.5t-78.5 212.5v455zM265 795l55 185h120l-115 -185h-60zM420 795l80 185h125l-135 -185h-70z" />
    <glyph glyph-name="uhungarumlaut" unicode="&#x171;" horiz-adv-x="645" 
d="M75 520h115v-315q0 -55 31 -85t84 -30q61 0 105.5 43.5t44.5 106.5v280h115v-520h-110l-5 80h-5q-2 -4 -5.5 -10.5t-18 -22.5t-32.5 -28.5t-48.5 -23t-65.5 -10.5q-94 0 -149.5 57t-55.5 158v320zM205 595l55 185h120l-115 -185h-60zM360 595l80 185h125l-135 -185h-70z
" />
    <glyph glyph-name="Uogonek" unicode="&#x172;" horiz-adv-x="760" 
d="M85 730h120v-455q0 -86 46 -133t129 -47t129 47t46 133v455h120v-455q0 -106 -48.5 -177.5t-141.5 -97.5q-4 -2 -11 -6.5t-24 -18.5t-30 -29t-24 -38.5t-11 -47.5q0 -55 55 -55q11 0 22.5 3.5t17.5 7.5l5 4v-55q-25 -20 -70 -20q-52 0 -86 30t-34 75q0 38 25 71.5
t50 48.5l25 15h-15q-138 0 -216.5 77.5t-78.5 212.5v455z" />
    <glyph glyph-name="uogonek" unicode="&#x173;" horiz-adv-x="645" 
d="M510 0h-50l-5 80h-5q-2 -4 -5.5 -10.5t-18 -22.5t-32.5 -28.5t-48.5 -23t-65.5 -10.5q-94 0 -149.5 57t-55.5 158v320h115v-315q0 -55 31 -85t84 -30q61 0 105.5 43.5t44.5 106.5v280h115v-520q-4 -2 -11 -6.5t-24 -18.5t-30 -29t-24 -38.5t-11 -47.5q0 -55 55 -55
q11 0 22.5 3.5t16.5 7.5l6 4v-55q-25 -20 -70 -20q-52 0 -86 30t-34 75q0 44 32.5 81.5t65.5 52.5z" />
    <glyph glyph-name="Ydieresis" unicode="&#x178;" horiz-adv-x="690" 
d="M405 295v-295h-120v295l-275 435h135l200 -320l200 320h135zM175 885q0 29 19 47t46 18t46 -18t19 -47t-19 -47t-46 -18t-46 18t-19 47zM385 885q0 29 19 47t46 18t46 -18t19 -47t-19 -47t-46 -18t-46 18t-19 47z" />
    <glyph glyph-name="Zacute" unicode="&#x179;" horiz-adv-x="665" 
d="M45 85l390 535h-370v110h535v-85l-390 -535h400v-110h-565v85zM285 795l70 185h130l-125 -185h-75z" />
    <glyph glyph-name="zacute" unicode="&#x17a;" horiz-adv-x="560" 
d="M50 415v105h460v-80l-305 -335h315v-105h-485v80l305 335h-290zM240 595l70 185h130l-125 -185h-75z" />
    <glyph glyph-name="Zdotaccent" unicode="&#x17b;" horiz-adv-x="665" 
d="M45 85l390 535h-370v110h535v-85l-390 -535h400v-110h-565v85zM270 885q0 29 19 47t46 18t46 -18t19 -47t-19 -47t-46 -18t-46 18t-19 47z" />
    <glyph glyph-name="zdotaccent" unicode="&#x17c;" horiz-adv-x="560" 
d="M50 415v105h460v-80l-305 -335h315v-105h-485v80l305 335h-290zM215 685q0 29 19 47t46 18t46 -18t19 -47t-19 -47t-46 -18t-46 18t-19 47z" />
    <glyph glyph-name="Zcaron" unicode="&#x17d;" horiz-adv-x="665" 
d="M45 85l390 535h-370v110h535v-85l-390 -535h400v-110h-565v85zM220 980l115 -110l115 110h75l-150 -185h-80l-150 185h75z" />
    <glyph glyph-name="zcaron" unicode="&#x17e;" horiz-adv-x="560" 
d="M50 415v105h460v-80l-305 -335h315v-105h-485v80l305 335h-290zM165 780l115 -110l115 110h75l-150 -185h-80l-150 185h75z" />
    <glyph glyph-name="florin" unicode="&#x192;" horiz-adv-x="465" 
d="M70 -10l70 425h-85v105h105l15 80q17 88 69.5 139t130.5 51q33 0 62 -11t41 -23l12 -11v-105q-53 45 -110 45q-72 0 -90 -90l-15 -75h155v-105h-175l-70 -425q-16 -99 -75 -155t-155 -60v105q45 4 76 33t39 77z" />
    <glyph glyph-name="Scommaaccent" unicode="&#x218;" horiz-adv-x="580" 
d="M290 745q39 0 75.5 -9.5t61 -22.5t43 -26t26.5 -23l9 -9l-40 -95q-2 3 -7 8t-21 18t-34.5 23t-47.5 18t-60 8q-52 0 -81 -23.5t-29 -61.5q0 -29 26 -54t65 -42t84 -41t84 -48.5t65 -66t26 -93.5q0 -96 -69 -158t-186 -62q-42 0 -81.5 9.5t-66 22.5t-47.5 26t-31 23l-9 9
l40 95q3 -3 9 -8t25 -18t39.5 -23t52.5 -18t64 -8q62 0 98.5 28.5t36.5 71.5q0 38 -36 68t-87.5 54t-103 51.5t-87.5 75t-36 111.5q0 78 64 134t166 56zM340 -135q0 -44 -17.5 -81.5t-34.5 -53.5l-18 -15h-40q6 6 14 16t22 38.5t14 55.5q-50 8 -50 55q0 25 16 40t39 15
q24 0 39.5 -17.5t15.5 -52.5z" />
    <glyph glyph-name="scommaaccent" unicode="&#x219;" horiz-adv-x="500" 
d="M460 145q0 -75 -54 -117.5t-166 -42.5q-56 0 -106 16.5t-72 32.5l-22 16l35 95q8 -6 22.5 -15t59 -24.5t88.5 -15.5q100 0 100 60q0 27 -30.5 43t-73.5 26t-86.5 24t-74 48.5t-30.5 88.5q0 66 51.5 110.5t138.5 44.5q56 0 104.5 -17.5t69.5 -35.5l21 -17l-45 -86
q-6 6 -16.5 14.5t-47 22.5t-76.5 14q-80 0 -80 -55q0 -23 30 -37t72.5 -24t85 -25.5t72.5 -51.5t30 -92zM307 -135q0 -44 -17.5 -81.5t-35.5 -53.5l-17 -15h-40q6 6 14 16t22 38.5t14 55.5q-50 8 -50 55q0 25 16 40t39 15q24 0 39.5 -17.5t15.5 -52.5z" />
    <glyph glyph-name="uni021A" unicode="&#x21a;" horiz-adv-x="630" 
d="M35 730h560v-110h-220v-620h-120v620h-220v110zM370 -135q0 -44 -17.5 -81.5t-34.5 -53.5l-18 -15h-40q6 6 14 16t22 38.5t14 55.5q-50 8 -50 55q0 25 16 40t39 15q24 0 39.5 -17.5t15.5 -52.5z" />
    <glyph glyph-name="uni021B" unicode="&#x21b;" horiz-adv-x="445" 
d="M105 175v240h-95v40l205 220h5v-155h165v-105h-165v-235q0 -43 22.5 -66.5t57.5 -23.5q24 0 45.5 10t30.5 20l9 10h15v-100q-5 -5 -14.5 -12.5t-42 -20t-68.5 -12.5q-76 0 -123 50.5t-47 139.5zM305 -135q0 -44 -17.5 -81.5t-35.5 -53.5l-17 -15h-40q6 6 14 16t22 38.5
t14 55.5q-50 8 -50 55q0 25 16 40t39 15q24 0 39.5 -17.5t15.5 -52.5z" />
    <glyph glyph-name="afii57929" unicode="&#x2bc;" horiz-adv-x="170" 
d="M140 715q0 -44 -17.5 -81.5t-34.5 -53.5l-18 -15h-40q6 6 14 16t22 38.5t14 55.5q-50 8 -50 55q0 25 16 40t39 15q24 0 39.5 -17.5t15.5 -52.5z" />
    <glyph glyph-name="circumflex" unicode="&#x2c6;" horiz-adv-x="440" 
d="M220 700l-115 -110h-75l150 185h80l150 -185h-75z" />
    <glyph glyph-name="caron" unicode="&#x2c7;" horiz-adv-x="440" 
d="M105 775l115 -110l115 110h75l-150 -185h-80l-150 185h75z" />
    <glyph glyph-name="breve" unicode="&#x2d8;" horiz-adv-x="380" 
d="M190 625q-49 0 -89 12.5t-55 24.5l-16 13v100l6.5 -6.5t19.5 -14.5t32 -18t45 -14.5t57 -6.5q47 0 87 15t57 30l16 15v-100q-6 -6 -17 -14t-52.5 -22t-90.5 -14z" />
    <glyph glyph-name="dotaccent" unicode="&#x2d9;" horiz-adv-x="190" 
d="M30 690q0 29 19 47t46 18t46 -18t19 -47t-19 -47t-46 -18t-46 18t-19 47z" />
    <glyph glyph-name="ring" unicode="&#x2da;" horiz-adv-x="300" 
d="M30 685q0 53 34 86.5t86 33.5t86 -33.5t34 -86.5t-34 -86.5t-86 -33.5t-86 33.5t-34 86.5zM100 685q0 -23 14 -36.5t36 -13.5t36 13.5t14 36.5t-14 36.5t-36 13.5t-36 -13.5t-14 -36.5z" />
    <glyph glyph-name="ogonek" unicode="&#x2db;" horiz-adv-x="250" 
d="M160 0h60q-4 -2 -11 -6.5t-24 -18.5t-30 -29t-24 -38.5t-11 -47.5q0 -55 55 -55q11 0 22.5 3.5t16.5 7.5l6 4v-55q-25 -20 -70 -20q-52 0 -86 30t-34 75q0 44 32.5 81.5t65.5 52.5z" />
    <glyph glyph-name="tilde" unicode="&#x2dc;" horiz-adv-x="425" 
d="M130 670q-27 0 -52 -12.5t-36 -25.5l-12 -12v90q3 6 10 14t33 22t57 14q36 0 86 -30t79 -30q27 0 52 12.5t37 25.5l11 12v-90q-3 -6 -10 -14t-33 -22t-57 -14q-36 0 -86 30t-79 30z" />
    <glyph glyph-name="hungarumlaut" unicode="&#x2dd;" horiz-adv-x="420" 
d="M30 590l55 185h120l-115 -185h-60zM185 590l80 185h125l-135 -185h-70z" />
    <glyph glyph-name="afii10023" unicode="&#x401;" horiz-adv-x="625" 
d="M95 0v730h465v-110h-345v-195h270v-110h-270v-205h345v-110h-465zM165 885q0 29 19 47t46 18t46 -18t19 -47t-19 -47t-46 -18t-46 18t-19 47zM375 885q0 29 19 47t46 18t46 -18t19 -47t-19 -47t-46 -18t-46 18t-19 47z" />
    <glyph glyph-name="afii10051" unicode="&#x402;" horiz-adv-x="790" 
d="M630 220q0 65 -41 102.5t-116 37.5q-46 0 -88 -12.5t-61 -25.5l-19 -12v-310h-120v620h-165v110h510v-110h-225v-198q8 5 23 13t65 21.5t104 13.5q118 0 185.5 -67t67.5 -183q0 -114 -59 -179.5t-166 -80.5l-15 110q120 16 120 150z" />
    <glyph glyph-name="afii10052" unicode="&#x403;" horiz-adv-x="535" 
d="M260 795l70 185h130l-125 -185h-75zM95 730h420v-110h-300v-620h-120v730z" />
    <glyph glyph-name="afii10053" unicode="&#x404;" horiz-adv-x="735" 
d="M425 -15q-158 0 -266.5 109.5t-108.5 270.5t108.5 270.5t266.5 109.5q50 0 96.5 -11t76.5 -26.5t53 -30.5t33 -26l11 -11l-45 -95q-3 4 -8.5 10t-25 21.5t-42 27.5t-59 21.5t-75.5 9.5q-105 0 -176.5 -62.5t-83.5 -152.5h340v-110h-340q12 -90 83.5 -152.5t176.5 -62.5
q42 0 80 12t62.5 28.5t43 33.5t26.5 29l8 12h15v-125q-3 -4 -9.5 -11t-29.5 -24t-49.5 -30t-70 -24t-91.5 -11z" />
    <glyph glyph-name="afii10054" unicode="&#x405;" horiz-adv-x="580" 
d="M290 745q39 0 75.5 -9.5t61 -22.5t43 -26t26.5 -23l9 -9l-40 -95q-2 3 -7 8t-21 18t-34.5 23t-47.5 18t-60 8q-52 0 -81 -23.5t-29 -61.5q0 -29 26 -54t65 -42t84 -41t84 -48.5t65 -66t26 -93.5q0 -96 -69 -158t-186 -62q-42 0 -81.5 9.5t-66 22.5t-47.5 26t-31 23l-9 9
l40 95q3 -3 9 -8t25 -18t39.5 -23t52.5 -18t64 -8q62 0 98.5 28.5t36.5 71.5q0 38 -36 68t-87.5 54t-103 51.5t-87.5 75t-36 111.5q0 78 64 134t166 56z" />
    <glyph glyph-name="afii10055" unicode="&#x406;" horiz-adv-x="310" 
d="M215 730v-730h-120v730h120z" />
    <glyph glyph-name="afii10056" unicode="&#x407;" horiz-adv-x="310" 
d="M215 730v-730h-120v730h120zM-15 885q0 29 19 47t46 18t46 -18t19 -47t-19 -47t-46 -18t-46 18t-19 47zM195 885q0 29 19 47t46 18t46 -18t19 -47t-19 -47t-46 -18t-46 18t-19 47z" />
    <glyph glyph-name="afii10057" unicode="&#x408;" horiz-adv-x="325" 
d="M110 40v690h120v-690q0 -198 -210 -220l-15 110q58 8 81.5 31.5t23.5 78.5z" />
    <glyph glyph-name="afii10058" unicode="&#x409;" horiz-adv-x="1005" 
d="M610 730v-230h75q129 0 202 -68t73 -182t-73 -182t-202 -68h-195v620h-210l-25 -325q-12 -151 -70 -225t-160 -90l-25 110q58 12 89 55.5t41 149.5l40 435h440zM610 390v-280h75q68 0 109 38t41 102t-41 102t-109 38h-75z" />
    <glyph glyph-name="afii10059" unicode="&#x40a;" horiz-adv-x="1040" 
d="M640 730v-270h100q118 0 186.5 -63.5t68.5 -166.5t-68.5 -166.5t-186.5 -63.5h-220v350h-305v-350h-120v730h120v-270h305v270h120zM640 350v-240h100q60 0 95 32t35 88t-35 88t-95 32h-100z" />
    <glyph glyph-name="afii10060" unicode="&#x40b;" horiz-adv-x="820" 
d="M530 730v-110h-225v-195q8 5 23 12.5t64.5 20t102.5 12.5q120 0 187.5 -66.5t67.5 -183.5v-220h-120v220q0 65 -41.5 102.5t-118.5 37.5q-44 0 -85.5 -12t-60.5 -24l-19 -11v-313h-120v620h-165v110h510z" />
    <glyph glyph-name="afii10061" unicode="&#x40c;" horiz-adv-x="695" 
d="M215 730v-345l320 345h145l-330 -350l355 -380h-155l-335 365v-365h-120v730h120zM322 795l70 185h130l-125 -185h-75z" />
    <glyph glyph-name="afii10062" unicode="&#x40e;" horiz-adv-x="665" 
d="M347 795q-49 0 -89 12.5t-56 24.5l-15 13v100l6.5 -6.5t19.5 -14.5t32 -18t45 -14.5t57 -6.5q47 0 87 15t56 30l17 15v-100q-6 -6 -17 -14t-52.5 -22t-90.5 -14zM270 160l20 40l-280 530h130l210 -400h5l190 400h130l-280 -570q-51 -104 -91.5 -139.5t-113.5 -35.5l-40 5
l-15 115q20 -10 45 -10q33 0 53 15t37 50z" />
    <glyph glyph-name="afii10145" unicode="&#x40f;" horiz-adv-x="785" 
d="M330 0h-235v730h120v-620h355v620h120v-730h-235v-160h-125v160z" />
    <glyph glyph-name="afii10017" unicode="&#x410;" horiz-adv-x="775" 
d="M515 285l-125 280h-5l-125 -280h255zM565 175h-355l-80 -175h-130l335 730h105l335 -730h-130z" />
    <glyph glyph-name="afii10018" unicode="&#x411;" horiz-adv-x="650" 
d="M215 350v-240h120q64 0 99.5 32t35.5 88t-35.5 88t-99.5 32h-120zM215 620v-160h120q122 0 191 -63.5t69 -166.5t-69 -166.5t-191 -63.5h-240v730h450v-110h-330z" />
    <glyph glyph-name="afii10019" unicode="&#x412;" horiz-adv-x="650" 
d="M315 730q120 0 182.5 -53t62.5 -142q0 -35 -10.5 -63.5t-25 -44t-29 -25.5t-25.5 -14l-10 -3v-5q5 -1 14.5 -4t32.5 -16t41 -30.5t32.5 -50.5t14.5 -74q0 -93 -65.5 -149t-189.5 -56h-245v730h220zM215 320v-210h125q63 0 96.5 28t33.5 77t-33.5 77t-96.5 28h-125z
M315 620h-100v-190h100q120 0 120 95t-120 95z" />
    <glyph glyph-name="afii10020" unicode="&#x413;" horiz-adv-x="535" 
d="M95 730h420v-110h-300v-620h-120v730z" />
    <glyph glyph-name="afii10021" unicode="&#x414;" horiz-adv-x="755" 
d="M5 -160v270h55q2 2 6.5 7.5t15.5 25t20 43t17 65t11 89.5l20 390h490v-620h90v-270h-120v160h-485v-160h-120zM265 620l-15 -280q-3 -48 -10.5 -89t-16.5 -66t-17.5 -43t-14.5 -25l-6 -7h335v510h-255z" />
    <glyph glyph-name="afii10022" unicode="&#x415;" horiz-adv-x="625" 
d="M95 0v730h465v-110h-345v-195h270v-110h-270v-205h345v-110h-465z" />
    <glyph glyph-name="afii10024" unicode="&#x416;" horiz-adv-x="1020" 
d="M450 390v340h120v-340l292 340h143l-305 -350l330 -380h-153l-307 360v-360h-120v360l-308 -360h-152l330 380l-305 350h142z" />
    <glyph glyph-name="afii10025" unicode="&#x417;" horiz-adv-x="595" 
d="M190 325v105h85q115 0 115 102q0 103 -115 103q-49 0 -95 -21.5t-68 -42.5l-22 -21h-15v115q3 3 9 8.5t26.5 19.5t43 24.5t57 19t69.5 8.5q110 0 172.5 -55.5t62.5 -144.5q0 -36 -12 -65.5t-28.5 -45.5t-33.5 -26.5t-29 -13.5l-12 -4v-5q6 -1 15.5 -4t33.5 -16.5
t42.5 -32t33.5 -54t15 -78.5q0 -94 -71.5 -154.5t-198.5 -60.5q-38 0 -76 10t-65.5 23.5t-49.5 27.5t-33 24l-11 10l40 100q3 -3 9.5 -9t27.5 -20.5t43 -26t55 -20.5t65 -9q67 0 103.5 31t36.5 84t-36.5 84t-103.5 31h-85z" />
    <glyph glyph-name="afii10026" unicode="&#x418;" horiz-adv-x="800" 
d="M705 730v-730h-120v540l-375 -540h-115v730h120v-540l377 540h113z" />
    <glyph glyph-name="afii10027" unicode="&#x419;" horiz-adv-x="800" 
d="M397 795q-49 0 -89 12.5t-56 24.5l-15 13v100l6.5 -6.5t19.5 -14.5t32 -18t45 -14.5t57 -6.5q47 0 87 15t56 30l17 15v-100q-6 -6 -17 -14t-52.5 -22t-90.5 -14zM705 730v-730h-120v540l-375 -540h-115v730h120v-540l377 540h113z" />
    <glyph glyph-name="afii10028" unicode="&#x41a;" horiz-adv-x="695" 
d="M215 730v-345l320 345h145l-330 -350l355 -380h-155l-335 365v-365h-120v730h120z" />
    <glyph glyph-name="afii10029" unicode="&#x41b;" horiz-adv-x="735" 
d="M280 620l-25 -325q-12 -151 -70 -225t-160 -90l-25 110q58 12 89 55.5t41 149.5l40 435h470v-730h-120v620h-240z" />
    <glyph glyph-name="afii10030" unicode="&#x41c;" horiz-adv-x="960" 
d="M430 0l-165 485h-5l-75 -485h-125l115 730h115l187 -560h6l187 560h115l115 -730h-125l-75 485h-5l-165 -485h-100z" />
    <glyph glyph-name="afii10031" unicode="&#x41d;" horiz-adv-x="780" 
d="M685 730v-730h-120v315h-350v-315h-120v730h120v-305h350v305h120z" />
    <glyph glyph-name="afii10032" unicode="&#x41e;" horiz-adv-x="870" 
d="M175 365q0 -119 73.5 -194.5t186.5 -75.5t186.5 75.5t73.5 194.5t-73.5 194.5t-186.5 75.5t-186.5 -75.5t-73.5 -194.5zM820 365q0 -162 -110 -271t-275 -109t-275 109t-110 271t110 271t275 109t275 -109t110 -271z" />
    <glyph glyph-name="afii10033" unicode="&#x41f;" horiz-adv-x="780" 
d="M685 730v-730h-120v620h-350v-620h-120v730h590z" />
    <glyph glyph-name="afii10034" unicode="&#x420;" horiz-adv-x="645" 
d="M215 230v-230h-120v730h220q126 0 200.5 -70t74.5 -180t-74.5 -180t-200.5 -70h-100zM215 620v-280h100q68 0 109 38t41 102t-41 102t-109 38h-100z" />
    <glyph glyph-name="afii10035" unicode="&#x421;" horiz-adv-x="735" 
d="M175 365q0 -120 75 -195t195 -75q41 0 78 12t61 28.5t42 33.5t26 29l8 12h15v-125q-3 -4 -9.5 -11t-29 -24t-49 -30t-69 -24t-88.5 -11q-161 0 -270.5 109.5t-109.5 270.5t109.5 270.5t270.5 109.5q49 0 94.5 -11t75 -26.5t52 -30.5t32.5 -26l11 -11l-45 -95
q-3 4 -8.5 10t-25 21.5t-41 27.5t-57 21.5t-73.5 9.5q-120 0 -195 -75t-75 -195z" />
    <glyph glyph-name="afii10036" unicode="&#x422;" horiz-adv-x="630" 
d="M35 730h560v-110h-220v-620h-120v620h-220v110z" />
    <glyph glyph-name="afii10037" unicode="&#x423;" horiz-adv-x="665" 
d="M270 160l20 40l-280 530h130l210 -400h5l190 400h130l-280 -570q-51 -104 -91.5 -139.5t-113.5 -35.5l-40 5l-15 115q20 -10 45 -10q33 0 53 15t37 50z" />
    <glyph glyph-name="afii10038" unicode="&#x424;" horiz-adv-x="940" 
d="M410 -10v77q-172 6 -268.5 92t-96.5 221t96.5 221t268.5 91v78h120v-78q172 -5 268.5 -91t96.5 -221t-96.5 -221t-268.5 -92v-77h-120zM530 582v-405q117 6 178.5 60t61.5 143t-61.5 143t-178.5 59zM410 177v405q-117 -5 -178.5 -59t-61.5 -143t61.5 -143t178.5 -60z" />
    <glyph glyph-name="afii10039" unicode="&#x425;" horiz-adv-x="710" 
d="M550 0l-195 290l-195 -290h-140l255 375l-240 355h140l180 -270l180 270h140l-240 -355l255 -375h-140z" />
    <glyph glyph-name="afii10040" unicode="&#x426;" horiz-adv-x="780" 
d="M95 0v730h120v-620h330v620h120v-620h90v-270h-120v160h-540z" />
    <glyph glyph-name="afii10041" unicode="&#x427;" horiz-adv-x="745" 
d="M530 0v275q-8 -5 -23 -12.5t-64.5 -20t-102.5 -12.5q-120 0 -187.5 66.5t-67.5 183.5v250h120v-250q0 -65 41.5 -102.5t118.5 -37.5q44 0 85.5 12t60.5 24l19 11v343h120v-730h-120z" />
    <glyph glyph-name="afii10042" unicode="&#x428;" horiz-adv-x="1120" 
d="M95 0v730h120v-620h285v620h120v-620h285v620h120v-730h-930z" />
    <glyph glyph-name="afii10043" unicode="&#x429;" horiz-adv-x="1140" 
d="M95 0v730h120v-620h285v620h120v-620h285v620h120v-620h90v-270h-120v160h-900z" />
    <glyph glyph-name="afii10044" unicode="&#x42a;" horiz-adv-x="715" 
d="M300 730v-230h90q129 0 202 -68t73 -182t-73 -182t-202 -68h-210v620h-150v110h270zM300 390v-280h90q68 0 109 38t41 102t-41 102t-109 38h-90z" />
    <glyph glyph-name="afii10045" unicode="&#x42b;" horiz-adv-x="905" 
d="M810 730v-730h-120v730h120zM215 730v-230h90q129 0 202 -68t73 -182t-73 -182t-202 -68h-210v730h120zM215 390v-280h90q68 0 109 38t41 102t-41 102t-109 38h-90z" />
    <glyph glyph-name="afii10046" unicode="&#x42c;" horiz-adv-x="640" 
d="M215 730v-230h100q129 0 202 -68t73 -182t-73 -182t-202 -68h-220v730h120zM215 390v-280h100q68 0 109 38t41 102t-41 102t-109 38h-100z" />
    <glyph glyph-name="afii10047" unicode="&#x42d;" horiz-adv-x="735" 
d="M300 -15q-46 0 -90.5 11t-74.5 26t-53.5 30.5t-35.5 26.5l-11 11l45 100q3 -4 9.5 -10.5t28.5 -22.5t45.5 -28.5t59.5 -23t72 -10.5q105 0 176.5 62.5t83.5 152.5h-340v110h340q-12 90 -83.5 152.5t-176.5 62.5q-42 0 -80 -12t-62.5 -28.5t-43 -33.5t-26.5 -29l-8 -12
h-15v125q3 4 9.5 11t29.5 24t49.5 30t70 24t91.5 11q158 0 266.5 -109.5t108.5 -270.5q0 -162 -110 -271t-275 -109z" />
    <glyph glyph-name="afii10048" unicode="&#x42e;" horiz-adv-x="1100" 
d="M1050 365q0 -168 -103 -274t-262 -106q-148 0 -247 90t-118 235h-105v-310h-120v730h120v-310h105q19 142 118.5 233.5t246.5 91.5q159 0 262 -106t103 -274zM685 95q107 0 173.5 72.5t66.5 197.5t-66.5 197.5t-173.5 72.5t-173.5 -72.5t-66.5 -197.5t66.5 -197.5
t173.5 -72.5z" />
    <glyph glyph-name="afii10049" unicode="&#x42f;" horiz-adv-x="665" 
d="M450 350v270h-100q-68 0 -106.5 -35.5t-38.5 -99.5t38.5 -99.5t106.5 -35.5h100zM30 0l185 265v5q-5 2 -14.5 6.5t-32.5 22t-41 39.5t-32.5 61.5t-14.5 85.5q0 110 72 177.5t198 67.5h220v-730h-120v240h-115l-165 -240h-140z" />
    <glyph glyph-name="afii10065" unicode="&#x430;" horiz-adv-x="590" 
d="M260 85q34 0 61 11.5t42 27.5t25 32t14 28l3 11q-4 4 -13.5 10t-43 15.5t-73.5 9.5q-44 0 -69.5 -20.5t-25.5 -54.5t21 -52t59 -18zM295 535q108 0 166.5 -56t58.5 -154v-325h-110l-5 80h-5q-1 -4 -4.5 -10.5t-16.5 -22.5t-29.5 -28.5t-47.5 -23t-67 -10.5q-77 0 -126 45
t-49 112q0 75 51.5 121.5t143.5 46.5q42 0 79.5 -9t53.5 -17l17 -9v45q0 53 -32.5 81.5t-92.5 28.5q-51 0 -98.5 -19t-69.5 -37l-22 -19h-15v105q10 8 28 20.5t75.5 33.5t116.5 21z" />
    <glyph glyph-name="afii10066" unicode="&#x431;" horiz-adv-x="660" 
d="M335 90q65 0 110 45t45 115t-45 115t-110 45q-68 0 -114 -45t-46 -115t46 -115t114 -45zM355 515q109 0 182 -75t73 -190q0 -113 -78 -189t-198 -76q-122 0 -200.5 86.5t-78.5 233.5q0 236 85 343t245 107q44 0 88 8.5t65 17.5l22 9v-115q-6 -4 -18.5 -10t-59 -15.5
t-102.5 -9.5q-193 0 -215 -225h5q2 4 6.5 11t21 24t36 30t52.5 24t69 11z" />
    <glyph glyph-name="afii10067" unicode="&#x432;" horiz-adv-x="575" 
d="M75 0v520h240q94 0 142 -38.5t48 -101.5q0 -24 -7.5 -43t-18.5 -29t-22.5 -17t-18.5 -9l-8 -2v-5q4 -1 11 -3t25.5 -11t32 -21.5t25 -36.5t11.5 -53q0 -66 -49.5 -108t-140.5 -42h-270zM420 160q0 27 -20 43.5t-60 16.5h-150v-120h150q40 0 60 16.5t20 43.5zM310 420
h-120v-100h120q75 0 75 50t-75 50z" />
    <glyph glyph-name="afii10068" unicode="&#x433;" horiz-adv-x="465" 
d="M455 415h-265v-415h-115v520h380v-105z" />
    <glyph glyph-name="afii10069" unicode="&#x434;" horiz-adv-x="620" 
d="M0 -140v245h55q5 6 13.5 17t23.5 52.5t18 90.5l17 255h393v-415h80v-245h-115v140h-370v-140h-115zM235 415l-10 -150q-3 -49 -15.5 -89t-23.5 -56l-11 -15h230v310h-170z" />
    <glyph glyph-name="afii10070" unicode="&#x435;" horiz-adv-x="625" 
d="M320 535q117 0 186 -70.5t69 -192.5v-37h-415q8 -64 54.5 -104.5t125.5 -40.5q35 0 67 6.5t52.5 16t36 19.5t22.5 16l7 7h15v-110q-3 -2 -9 -6.5t-26.5 -14.5t-43 -18t-59 -14.5t-75.5 -6.5q-121 0 -199 77.5t-78 197.5q0 116 78.5 195.5t191.5 79.5zM325 430
q-62 0 -102.5 -30.5t-57.5 -74.5h300q-8 45 -44 75t-96 30z" />
    <glyph glyph-name="afii10072" unicode="&#x436;" horiz-adv-x="835" 
d="M700 0l-225 250v-250h-115v250l-225 -250h-145l245 265l-230 255h135l220 -250v250h115v-250l220 250h135l-230 -255l245 -265h-145z" />
    <glyph glyph-name="afii10073" unicode="&#x437;" horiz-adv-x="510" 
d="M240 220h-60v95h50q100 0 100 60t-100 60q-42 0 -81 -15t-57 -30l-17 -15h-15v105q7 6 21 15t61 24.5t98 15.5q101 0 153 -41.5t52 -108.5q0 -25 -9.5 -45.5t-22.5 -32t-26 -19.5t-23 -10l-9 -3v-5q4 -1 11 -3t25.5 -11t32 -21.5t25 -36.5t11.5 -53q0 -74 -55.5 -117
t-164.5 -43q-56 0 -107 17.5t-75 35.5l-23 17l30 90q8 -7 23.5 -17t61.5 -26.5t90 -16.5q105 0 105 70q0 65 -105 65z" />
    <glyph glyph-name="afii10074" unicode="&#x438;" horiz-adv-x="655" 
d="M465 360l-280 -360h-110v520h115v-360l280 360h110v-520h-115v360z" />
    <glyph glyph-name="afii10075" unicode="&#x439;" horiz-adv-x="655" 
d="M325 605q-38 0 -71.5 10t-48.5 20l-15 10v100q6 -6 17.5 -15t46.5 -24.5t70 -15.5q36 0 70 14t50 28l16 13v-100l-16.5 -11t-45.5 -18t-73 -11zM465 360l-280 -360h-110v520h115v-360l280 360h110v-520h-115v360z" />
    <glyph glyph-name="afii10076" unicode="&#x43a;" 
d="M435 0l-245 255v-255h-115v520h115v-250l240 250h135l-250 -255l265 -265h-145z" />
    <glyph glyph-name="afii10077" unicode="&#x43b;" horiz-adv-x="605" 
d="M235 415l-15 -185q-9 -116 -57 -172.5t-138 -72.5l-25 110q44 8 68.5 37.5t31.5 97.5l30 290h400v-520h-115v415h-180z" />
    <glyph glyph-name="afii10078" unicode="&#x43c;" horiz-adv-x="765" 
d="M340 0l-125 315h-5l-45 -315h-115l80 520h100l150 -375h5l150 375h100l80 -520h-115l-45 315h-5l-125 -315h-85z" />
    <glyph glyph-name="afii10079" unicode="&#x43d;" horiz-adv-x="645" 
d="M455 210h-265v-210h-115v520h115v-205h265v205h115v-520h-115v210z" />
    <glyph glyph-name="afii10080" unicode="&#x43e;" horiz-adv-x="670" 
d="M170 260q0 -75 46.5 -122.5t118.5 -47.5t118.5 47.5t46.5 122.5t-46.5 122.5t-118.5 47.5t-118.5 -47.5t-46.5 -122.5zM620 260q0 -117 -81 -196t-204 -79t-204 79t-81 196t81 196t204 79t204 -79t81 -196z" />
    <glyph glyph-name="afii10081" unicode="&#x43f;" horiz-adv-x="645" 
d="M455 415h-265v-415h-115v520h495v-520h-115v415z" />
    <glyph glyph-name="afii10082" unicode="&#x440;" horiz-adv-x="680" 
d="M190 260q0 -74 46 -122t114 -48t114 48t46 122t-46 122t-114 48t-114 -48t-46 -122zM630 260q0 -118 -74.5 -196.5t-180.5 -78.5q-36 0 -68 10t-51.5 23.5t-34 27.5t-20.5 24l-6 10h-5v-300h-115v740h110l5 -80h5q2 4 6 10.5t20 22.5t34.5 28.5t51 23t68.5 10.5
q106 0 180.5 -78.5t74.5 -196.5z" />
    <glyph glyph-name="afii10083" unicode="&#x441;" horiz-adv-x="565" 
d="M165 260q0 -74 49.5 -122t125.5 -48q42 0 78.5 15t51.5 30l15 15h20v-105q-2 -2 -7 -6.5t-22 -14.5t-36 -18t-50 -14.5t-65 -6.5q-116 0 -195.5 79.5t-79.5 195.5t79.5 195.5t195.5 79.5q60 0 110 -16.5t70 -32.5l20 -16l-45 -85q-6 5 -16.5 12.5t-47 20t-76.5 12.5
q-76 0 -125.5 -48t-49.5 -122z" />
    <glyph glyph-name="afii10084" unicode="&#x442;" horiz-adv-x="505" 
d="M195 415h-180v105h475v-105h-180v-415h-115v415z" />
    <glyph glyph-name="afii10085" unicode="&#x443;" horiz-adv-x="590" 
d="M575 520l-300 -740h-120l90 225l-230 515h120l165 -370h5l150 370h120z" />
    <glyph glyph-name="afii10086" unicode="&#x444;" horiz-adv-x="795" 
d="M340 90v340q-75 -4 -122.5 -51.5t-47.5 -118.5t47.5 -118.5t122.5 -51.5zM455 -15v-205h-115v205q-130 7 -210 84t-80 191t80 191t210 84v225h115v-225q130 -7 210 -84t80 -191t-80 -191t-210 -84zM455 430v-340q75 4 122.5 51.5t47.5 118.5t-47.5 118.5t-122.5 51.5z
" />
    <glyph glyph-name="afii10087" unicode="&#x445;" 
d="M285 185l-150 -185h-135l210 260l-205 260h135l145 -185l145 185h135l-205 -260l210 -260h-135z" />
    <glyph glyph-name="afii10088" unicode="&#x446;" horiz-adv-x="655" 
d="M520 0h-445v520h115v-415h250v415h115v-415h80v-245h-115v140z" />
    <glyph glyph-name="afii10089" unicode="&#x447;" horiz-adv-x="615" 
d="M65 520h115v-160q0 -55 31 -85t84 -30q36 0 68.5 12.5t46.5 24.5l15 13v225h115v-520h-115v190q-6 -5 -17 -12.5t-51 -20t-87 -12.5q-94 0 -149.5 55.5t-55.5 149.5v170z" />
    <glyph glyph-name="afii10090" unicode="&#x448;" horiz-adv-x="905" 
d="M190 105h205v415h115v-415h205v415h115v-520h-755v520h115v-415z" />
    <glyph glyph-name="afii10091" unicode="&#x449;" horiz-adv-x="930" 
d="M190 105h205v415h115v-415h205v415h115v-415h80v-245h-115v140h-720v520h115v-415z" />
    <glyph glyph-name="afii10092" unicode="&#x44a;" horiz-adv-x="600" 
d="M145 0v410h-125v110h240v-160h110q96 0 148 -48t52 -132t-52 -132t-148 -48h-225zM260 100h105q41 0 65.5 21.5t24.5 58.5t-24.5 58.5t-65.5 21.5h-105v-160z" />
    <glyph glyph-name="afii10093" unicode="&#x44b;" horiz-adv-x="775" 
d="M585 0v520h115v-520h-115zM190 100h105q41 0 65.5 21.5t24.5 58.5t-24.5 58.5t-65.5 21.5h-105v-160zM75 0v520h115v-160h110q96 0 148 -48t52 -132t-52 -132t-148 -48h-225z" />
    <glyph glyph-name="afii10094" unicode="&#x44c;" horiz-adv-x="540" 
d="M190 100h115q41 0 65.5 21.5t24.5 58.5t-24.5 58.5t-65.5 21.5h-115v-160zM75 0v520h115v-160h120q96 0 148 -48t52 -132t-52 -132t-148 -48h-235z" />
    <glyph glyph-name="afii10095" unicode="&#x44d;" horiz-adv-x="565" 
d="M170 210v100h225q-12 49 -58.5 84.5t-116.5 35.5q-42 0 -78.5 -15t-51.5 -30l-15 -15h-20v105q7 7 21.5 17t62.5 26.5t101 16.5q120 0 197.5 -77.5t77.5 -197.5q0 -121 -79 -198t-206 -77q-53 0 -102 17.5t-71 35.5l-22 17l30 90q7 -6 19.5 -15t53 -24.5t82.5 -15.5
q71 0 115 33.5t60 86.5h-225z" />
    <glyph glyph-name="afii10096" unicode="&#x44e;" horiz-adv-x="865" 
d="M540 535q116 0 195.5 -79.5t79.5 -195.5t-79.5 -195.5t-195.5 -79.5q-106 0 -180 66.5t-90 163.5h-80v-215h-115v520h115v-205h80q16 90 90.5 155t179.5 65zM540 90q65 0 110 48t45 122t-45 122t-110 48t-110 -48t-45 -122t45 -122t110 -48z" />
    <glyph glyph-name="afii10097" unicode="&#x44f;" horiz-adv-x="585" 
d="M180 190q-5 1 -12.5 4t-27.5 15t-35 27.5t-27.5 44.5t-12.5 64q0 77 53.5 126t143.5 49h248v-520h-115v175h-90l-154 -175h-141l170 185v5zM395 420h-120q-41 0 -65.5 -20.5t-24.5 -54.5t24.5 -54.5t65.5 -20.5h120v150z" />
    <glyph glyph-name="afii10071" unicode="&#x451;" horiz-adv-x="625" 
d="M320 535q117 0 186 -70.5t69 -192.5v-37h-415q8 -64 54.5 -104.5t125.5 -40.5q35 0 67 6.5t52.5 16t36 19.5t22.5 16l7 7h15v-110q-3 -2 -9 -6.5t-26.5 -14.5t-43 -18t-59 -14.5t-75.5 -6.5q-121 0 -199 77.5t-78 197.5q0 116 78.5 195.5t191.5 79.5zM325 430
q-62 0 -102.5 -30.5t-57.5 -74.5h300q-8 45 -44 75t-96 30zM151 685q0 29 19 47t46 18t46 -18t19 -47t-19 -47t-46 -18t-46 18t-19 47zM361 685q0 29 19 47t46 18t46 -18t19 -47t-19 -47t-46 -18t-46 18t-19 47z" />
    <glyph glyph-name="afii10099" unicode="&#x452;" horiz-adv-x="670" 
d="M385 -120q47 4 73.5 31.5t26.5 78.5v295q0 55 -31 85t-84 30q-61 0 -105.5 -43.5t-44.5 -106.5v-250h-115v585h-90v100h90v75h115v-75h160v-100h-160v-175h5q2 4 5.5 10.5t18 22.5t32.5 28.5t48.5 23t65.5 10.5q94 0 149.5 -57.5t55.5 -157.5v-300q0 -99 -51 -155
t-139 -60z" />
    <glyph glyph-name="afii10100" unicode="&#x453;" horiz-adv-x="465" 
d="M220 595l70 185h130l-125 -185h-75zM455 415h-265v-415h-115v520h380v-105z" />
    <glyph glyph-name="afii10101" unicode="&#x454;" horiz-adv-x="565" 
d="M395 310v-100h-222q14 -53 57.5 -86.5t114.5 -33.5q42 0 78.5 15t51.5 30l15 15h20v-105q-7 -7 -21.5 -17t-62.5 -26.5t-101 -16.5q-116 0 -195.5 79.5t-79.5 195.5t79.5 195.5t195.5 79.5q60 0 110 -16.5t70 -32.5l20 -16l-45 -85q-6 5 -16.5 12.5t-45.5 20t-73 12.5
q-71 0 -114.5 -33.5t-57.5 -86.5h222z" />
    <glyph glyph-name="afii10102" unicode="&#x455;" horiz-adv-x="500" 
d="M460 145q0 -75 -54 -117.5t-166 -42.5q-56 0 -106 16.5t-72 32.5l-22 16l35 95q8 -6 22.5 -15t59 -24.5t88.5 -15.5q100 0 100 60q0 27 -30.5 43t-73.5 26t-86.5 24t-74 48.5t-30.5 88.5q0 66 51.5 110.5t138.5 44.5q56 0 104.5 -17.5t69.5 -35.5l21 -17l-45 -86
q-6 6 -16.5 14.5t-47 22.5t-76.5 14q-80 0 -80 -55q0 -23 30 -37t72.5 -24t85 -25.5t72.5 -51.5t30 -92z" />
    <glyph glyph-name="afii10103" unicode="&#x456;" horiz-adv-x="265" 
d="M190 525v-525h-115v525q25 -10 57 -10q15 0 29.5 2.5t21.5 4.5zM65 692q0 31 19 49.5t48 18.5t48.5 -18.5t19.5 -49.5t-19.5 -49t-48.5 -18t-48 18t-19 49z" />
    <glyph glyph-name="afii10104" unicode="&#x457;" horiz-adv-x="270" 
d="M-35 685q0 29 19 47t46 18t46 -18t19 -47t-19 -47t-46 -18t-46 18t-19 47zM175 685q0 29 19 47t46 18t46 -18t19 -47t-19 -47t-46 -18t-46 18t-19 47zM195 520v-520h-115v520h115z" />
    <glyph glyph-name="afii10105" unicode="&#x458;" horiz-adv-x="265" 
d="M75 -10v535q25 -10 57 -10q15 0 29.5 2.5t21.5 4.5l7 3v-535q0 -99 -51 -155t-139 -60l-25 105q47 4 73.5 31.5t26.5 78.5zM65 692q0 31 19 49.5t48 18.5t48.5 -18.5t19.5 -49.5t-19.5 -49t-48.5 -18t-48 18t-19 49z" />
    <glyph glyph-name="afii10106" unicode="&#x459;" horiz-adv-x="850" 
d="M400 0v415h-165l-15 -185q-9 -116 -57 -172.5t-138 -72.5l-25 110q44 8 68.5 37.5t31.5 97.5l30 290h385v-160h105q96 0 148 -48t52 -132t-52 -132t-148 -48h-220zM515 100h100q41 0 65.5 21.5t24.5 58.5t-24.5 58.5t-65.5 21.5h-100v-160z" />
    <glyph glyph-name="afii10107" unicode="&#x45a;" horiz-adv-x="875" 
d="M425 0v245h-235v-245h-115v520h115v-170h235v170h115v-170h105q92 0 146 -49t54 -126t-54 -126t-146 -49h-220zM540 100h100q41 0 65.5 20.5t24.5 54.5t-24.5 54.5t-65.5 20.5h-100v-150z" />
    <glyph glyph-name="afii10108" unicode="&#x45b;" horiz-adv-x="670" 
d="M600 0h-115v285q0 55 -31 85t-84 30q-61 0 -105.5 -43.5t-44.5 -106.5v-250h-115v585h-90v100h90v75h115v-75h160v-100h-160v-175h5q2 4 5.5 10.5t18 22.5t32.5 28.5t48.5 23t65.5 10.5q94 0 149.5 -57t55.5 -158v-290z" />
    <glyph glyph-name="afii10109" unicode="&#x45c;" 
d="M252 595l70 185h130l-125 -185h-75zM435 0l-245 255v-255h-115v520h115v-250l240 250h135l-250 -255l265 -265h-145z" />
    <glyph glyph-name="afii10110" unicode="&#x45e;" horiz-adv-x="590" 
d="M575 520l-300 -740h-120l90 225l-230 515h120l165 -370h5l150 370h120zM300 605q-38 0 -71.5 10t-48.5 20l-15 10v100q6 -6 17.5 -15t46.5 -24.5t70 -15.5q36 0 70 14t50 28l16 13v-100l-16.5 -11t-45.5 -18t-73 -11z" />
    <glyph glyph-name="afii10193" unicode="&#x45f;" horiz-adv-x="630" 
d="M260 -140v140h-185v520h115v-415h250v415h115v-520h-185v-140h-110z" />
    <glyph glyph-name="afii10050" unicode="&#x490;" horiz-adv-x="535" 
d="M215 620v-620h-120v730h300v150h120v-260h-300z" />
    <glyph glyph-name="afii10098" unicode="&#x491;" horiz-adv-x="465" 
d="M190 415v-415h-115v520h265v130h115v-235h-265z" />
    <glyph glyph-name="uni1E9E" unicode="&#x1e9e;" horiz-adv-x="730" 
d="M385 425l110 150q-2 2 -5 6.5t-15 14.5t-25.5 18t-36.5 14.5t-48 6.5q-72 0 -116 -47t-44 -128v-460h-120v460q0 127 78 206t202 79q57 0 105.5 -16t76.5 -38.5t48 -45.5t27 -39l8 -16l-125 -175q8 -2 20 -7t44 -23t56.5 -41t44.5 -63t20 -86q0 -93 -68 -151.5
t-192 -58.5q-40 0 -80 11t-60 22l-20 12l20 110q7 -5 19 -12.5t50 -20t76 -12.5q63 0 96.5 27t33.5 73q0 31 -18.5 58t-45 44t-53 29.5t-44.5 17.5l-19 6v75z" />
    <glyph glyph-name="endash" unicode="&#x2013;" horiz-adv-x="555" 
d="M40 275v100h475v-100h-475z" />
    <glyph glyph-name="emdash" unicode="&#x2014;" horiz-adv-x="915" 
d="M40 275v100h835v-100h-835z" />
    <glyph glyph-name="quoteleft" unicode="&#x2018;" horiz-adv-x="200" 
d="M165 600q0 -29 -19 -47t-46 -18q-28 0 -46.5 18.5t-18.5 51.5q0 32 8 63t20 52t24 37.5t20 24.5l8 8h45q-55 -70 -55 -125q60 -9 60 -65z" />
    <glyph glyph-name="quoteright" unicode="&#x2019;" horiz-adv-x="200" 
d="M35 725q0 29 19 47t46 18q28 0 46.5 -19t18.5 -51t-8 -63t-20 -52t-24 -37.5t-20 -24.5l-8 -8h-45q55 70 55 125q-60 9 -60 65z" />
    <glyph glyph-name="quotesinglbase" unicode="&#x201a;" horiz-adv-x="200" 
d="M35 55q0 29 19 47t46 18q28 0 46.5 -19t18.5 -51t-8 -63t-20 -52t-24 -37.5t-20 -24.5l-8 -8h-45q55 70 55 125q-60 9 -60 65z" />
    <glyph glyph-name="quotedblleft" unicode="&#x201c;" horiz-adv-x="385" 
d="M165 600q0 -29 -19 -47t-46 -18q-28 0 -46.5 18.5t-18.5 51.5q0 32 8 63t20 52t24 37.5t20 24.5l8 8h45q-55 -70 -55 -125q60 -9 60 -65zM350 600q0 -29 -19 -47t-46 -18t-46 18.5t-19 51.5q0 32 8 63t20 52t24 37.5t20 24.5l8 8h45q-55 -70 -55 -125q60 -9 60 -65z" />
    <glyph glyph-name="quotedblright" unicode="&#x201d;" horiz-adv-x="385" 
d="M220 725q0 29 19 47t46 18t46 -19t19 -51t-8 -63t-20 -52t-24 -37.5t-20 -24.5l-8 -8h-45q55 70 55 125q-60 9 -60 65zM35 725q0 29 19 47t46 18q28 0 46.5 -19t18.5 -51t-8 -63t-20 -52t-24 -37.5t-20 -24.5l-8 -8h-45q55 70 55 125q-60 9 -60 65z" />
    <glyph glyph-name="quotedblbase" unicode="&#x201e;" horiz-adv-x="390" 
d="M225 55q0 29 19 47t46 18q28 0 46.5 -19t18.5 -51t-8 -63t-20 -52t-24 -37.5t-20 -24.5l-8 -8h-45q55 70 55 125q-60 9 -60 65zM35 55q0 29 19 47t46 18q28 0 46.5 -19t18.5 -51t-8 -63t-20 -52t-24 -37.5t-20 -24.5l-8 -8h-45q55 70 55 125q-60 9 -60 65z" />
    <glyph glyph-name="dagger" unicode="&#x2020;" horiz-adv-x="465" 
d="M255 340l25 -120v-420h-95v420l25 120l-5 5l-120 -25h-30v95h30l120 -25l5 5l-25 120v125h95v-125l-25 -120l5 -5l120 25h30v-95h-30l-120 25z" />
    <glyph glyph-name="daggerdbl" unicode="&#x2021;" horiz-adv-x="465" 
d="M280 170l-25 -120l5 -5l120 25h30v-95h-30l-120 25l-5 -5l25 -120v-75h-95v75l25 120l-5 5l-120 -25h-30v95h30l120 -25l5 5l-25 120v100l25 120l-5 5l-120 -25h-30v95h30l120 -25l5 5l-25 120v75h95v-75l-25 -120l5 -5l120 25h30v-95h-30l-120 25l-5 -5l25 -120v-100z
" />
    <glyph glyph-name="bullet" unicode="&#x2022;" horiz-adv-x="470" 
d="M120 350q0 51 34 83t81 32t81 -32t34 -83t-34 -83t-81 -32t-81 32t-34 83z" />
    <glyph glyph-name="ellipsis" unicode="&#x2026;" horiz-adv-x="680" 
d="M35 55q0 29 19 47t46 18t46 -18t19 -47t-19 -47t-46 -18t-46 18t-19 47zM275 55q0 29 19 47t46 18t46 -18t19 -47t-19 -47t-46 -18t-46 18t-19 47zM515 55q0 29 19 47t46 18t46 -18t19 -47t-19 -47t-46 -18t-46 18t-19 47z" />
    <glyph glyph-name="perthousand" unicode="&#x2030;" horiz-adv-x="1270" 
d="M130 575q0 -37 22.5 -58.5t57.5 -21.5t57.5 21.5t22.5 58.5t-22.5 58.5t-57.5 21.5t-57.5 -21.5t-22.5 -58.5zM265 0h-115l475 730h115zM385 575q0 -72 -50 -121t-125 -49t-125 49t-50 121t50 121t125 49t125 -49t50 -121zM595 155q0 -37 22.5 -58.5t57.5 -21.5
t57.5 21.5t22.5 58.5t-22.5 58.5t-57.5 21.5t-57.5 -21.5t-22.5 -58.5zM850 155q0 -72 -50 -121t-125 -49t-125 49t-50 121t50 121t125 49t125 -49t50 -121zM980 155q0 -37 22.5 -58.5t57.5 -21.5t57.5 21.5t22.5 58.5t-22.5 58.5t-57.5 21.5t-57.5 -21.5t-22.5 -58.5z
M1235 155q0 -72 -50 -121t-125 -49t-125 49t-50 121t50 121t125 49t125 -49t50 -121z" />
    <glyph glyph-name="guilsinglleft" unicode="&#x2039;" horiz-adv-x="375" 
d="M150 270l190 -220h-120l-185 215v20l185 215h120l-190 -220v-10z" />
    <glyph glyph-name="guilsinglright" unicode="&#x203a;" horiz-adv-x="375" 
d="M35 50l190 220v10l-190 220h120l185 -215v-20l-185 -215h-120z" />
    <glyph glyph-name="fraction" unicode="&#x2044;" horiz-adv-x="155" 
d="M-210 0l475 730h100l-475 -730h-100z" />
    <glyph glyph-name="zerosuperior" unicode="&#x2070;" horiz-adv-x="360" 
d="M115 650q0 -110 65 -110t65 110t-65 110t-65 -110zM330 650q0 -91 -42 -140.5t-108 -49.5t-108 49.5t-42 140.5t42 140.5t108 49.5t108 -49.5t42 -140.5z" />
    <glyph glyph-name="foursuperior" unicode="&#x2074;" horiz-adv-x="315" 
d="M225 830l-115 -205h50l25 65h55v-65h50v-80h-50v-75h-85v75h-170v10l150 275h90z" />
    <glyph glyph-name="fivesuperior" unicode="&#x2075;" horiz-adv-x="335" 
d="M215 585q0 55 -55 55q-16 0 -31 -5t-22 -10l-7 -5l-55 25l30 185h205v-80h-140l-5 -45q15 5 30 5q63 0 99 -34t36 -91q0 -58 -38.5 -91.5t-111.5 -33.5q-33 0 -63 10t-43 20l-14 10l25 70q40 -35 100 -35t60 50z" />
    <glyph glyph-name="sixsuperior" unicode="&#x2076;" horiz-adv-x="340" 
d="M30 600q0 36 13.5 73.5t32.5 64t38 48.5t32 33l14 11h105q-8 -5 -22 -14.5t-44.5 -39.5t-48.5 -61q10 5 30 5q56 0 93 -37t37 -93q0 -57 -38.5 -93.5t-101.5 -36.5q-64 0 -102 38t-38 102zM115 590q0 -25 16 -40t39 -15t39 15t16 40t-16 40t-39 15t-39 -15t-16 -40z" />
    <glyph glyph-name="sevensuperior" unicode="&#x2077;" horiz-adv-x="300" 
d="M165 470h-90l105 280h-150v80h260v-10z" />
    <glyph glyph-name="eightsuperior" unicode="&#x2078;" horiz-adv-x="340" 
d="M170 535q55 0 55 45t-55 45t-55 -45t55 -45zM170 695q18 0 29 10t11 25t-11 25t-29 10t-29 -10t-11 -25t11 -25t29 -10zM170 460q-67 0 -103.5 31t-36.5 84q0 31 15 52.5t30 26.5l15 6q-5 2 -12.5 6t-20 23t-12.5 46q0 46 33.5 75.5t91.5 29.5q59 0 92 -29.5t33 -75.5
q0 -27 -11.5 -45.5t-22.5 -23.5l-11 -6q2 -1 6.5 -2t14.5 -7.5t18 -15t14.5 -24.5t6.5 -36q0 -53 -36.5 -84t-103.5 -31z" />
    <glyph glyph-name="ninesuperior" unicode="&#x2079;" horiz-adv-x="340" 
d="M310 700q0 -36 -13.5 -73.5t-32.5 -64t-38 -48.5t-32 -33l-14 -11h-105q8 5 22 14.5t44.5 39.5t48.5 61q-10 -5 -30 -5q-56 0 -93 37t-37 93q0 57 38.5 93.5t101.5 36.5q64 0 102 -38t38 -102zM225 710q0 25 -16 40t-39 15t-39 -15t-16 -40t16 -40t39 -15t39 15t16 40z
" />
    <glyph glyph-name="zeroinferior" unicode="&#x2080;" horiz-adv-x="360" 
d="M115 80q0 -110 65 -110t65 110t-65 110t-65 -110zM330 80q0 -91 -42 -140.5t-108 -49.5t-108 49.5t-42 140.5t42 140.5t108 49.5t108 -49.5t42 -140.5z" />
    <glyph glyph-name="oneinferior" unicode="&#x2081;" horiz-adv-x="240" 
d="M30 120v85l95 55h60v-360h-85v257z" />
    <glyph glyph-name="twoinferior" unicode="&#x2082;" horiz-adv-x="325" 
d="M25 -90l150 185q25 30 25 55q0 40 -45 40q-24 0 -51.5 -15t-43.5 -30l-15 -15h-10v80q6 7 17.5 17t46.5 26.5t71 16.5q55 0 85 -29t30 -76q0 -24 -8.5 -48t-17.5 -35l-9 -12l-75 -95h120v-75h-270v10z" />
    <glyph glyph-name="threeinferior" unicode="&#x2083;" horiz-adv-x="325" 
d="M155 70q-16 0 -31 -5t-22 -10l-7 -5l-35 40l80 90h-95v80h240v-10l-90 -115q4 0 11 -1.5t24 -9t30 -19.5t24 -35.5t11 -54.5q0 -58 -37.5 -91.5t-107.5 -33.5q-33 0 -63 10t-43 20l-14 10l25 70q40 -35 95 -35q60 0 60 50q0 55 -55 55z" />
    <glyph glyph-name="fourinferior" unicode="&#x2084;" horiz-adv-x="315" 
d="M225 260l-115 -205h50l25 65h55v-65h50v-80h-50v-75h-85v75h-170v10l150 275h90z" />
    <glyph glyph-name="fiveinferior" unicode="&#x2085;" horiz-adv-x="335" 
d="M215 15q0 55 -55 55q-16 0 -31 -5t-22 -10l-7 -5l-55 25l30 185h205v-80h-140l-5 -45q15 5 30 5q63 0 99 -34t36 -91q0 -58 -38.5 -91.5t-111.5 -33.5q-33 0 -63 10t-43 20l-14 10l25 70q40 -35 100 -35t60 50z" />
    <glyph glyph-name="sixinferior" unicode="&#x2086;" horiz-adv-x="340" 
d="M30 30q0 36 13.5 73.5t32.5 64t38 48.5t32 33l14 11h105q-8 -5 -22 -14.5t-44.5 -39.5t-48.5 -61q10 5 30 5q56 0 93 -37t37 -93q0 -57 -38.5 -93.5t-101.5 -36.5q-64 0 -102 38t-38 102zM115 20q0 -25 16 -40t39 -15t39 15t16 40t-16 40t-39 15t-39 -15t-16 -40z" />
    <glyph glyph-name="seveninferior" unicode="&#x2087;" horiz-adv-x="300" 
d="M165 -100h-90l105 280h-150v80h260v-10z" />
    <glyph glyph-name="eightinferior" unicode="&#x2088;" horiz-adv-x="340" 
d="M170 -35q55 0 55 45t-55 45t-55 -45t55 -45zM170 125q18 0 29 10t11 25t-11 25t-29 10t-29 -10t-11 -25t11 -25t29 -10zM170 -110q-67 0 -103.5 31t-36.5 84q0 31 15 52.5t30 26.5l15 6q-5 2 -12.5 6t-20 23t-12.5 46q0 46 33.5 75.5t91.5 29.5q59 0 92 -29.5t33 -75.5
q0 -27 -11.5 -45.5t-22.5 -23.5l-11 -6q2 -1 6.5 -2t14.5 -7.5t18 -15t14.5 -24.5t6.5 -36q0 -53 -36.5 -84t-103.5 -31z" />
    <glyph glyph-name="nineinferior" unicode="&#x2089;" horiz-adv-x="340" 
d="M310 130q0 -36 -13.5 -73.5t-32.5 -64t-38 -48.5t-32 -33l-14 -11h-105q8 5 22 14.5t44.5 39.5t48.5 61q-10 -5 -30 -5q-56 0 -93 37t-37 93q0 57 38.5 93.5t101.5 36.5q64 0 102 -38t38 -102zM225 140q0 25 -16 40t-39 15t-39 -15t-16 -40t16 -40t39 -15t39 15t16 40z
" />
    <glyph glyph-name="Euro" unicode="&#x20ac;" horiz-adv-x="776" 
d="M35 340h55v50h-55v80h70q1 6 4.5 16t16.5 38.5t29.5 54.5t46.5 57.5t65 54.5t87 38.5t111 15.5q52 0 99 -11t76.5 -26.5t52 -30.5t32.5 -26l10 -11l-45 -95q-3 4 -8.5 10t-25 21.5t-41 27.5t-57 21.5t-73.5 9.5q-56 0 -102.5 -17t-72.5 -41.5t-44 -48.5t-24 -41l-7 -17
h350l-25 -80h-345v-50h330l-25 -80h-285q2 -7 6.5 -18t24 -39.5t45 -50t72 -39.5t102.5 -18q41 0 78 12t61 28.5t42 33.5t26 29l8 12h15v-125q-3 -4 -9.5 -11t-29.5 -24t-49.5 -30t-70 -24t-91.5 -11q-81 0 -148 28.5t-104.5 68.5t-63.5 80.5t-35 69.5l-9 28h-70v80z" />
    <glyph glyph-name="uni20B4" unicode="&#x20b4;" horiz-adv-x="630" 
d="M575 390h-520v80h290q7 3 17 8.5t26.5 26.5t16.5 45q0 38 -29 61.5t-81 23.5q-29 0 -57.5 -8t-48 -20t-34.5 -24t-23 -20l-7 -8h-15v120q8 8 24 19.5t67 31t104 19.5q102 0 163.5 -54.5t61.5 -135.5q0 -24 -7.5 -45.5t-14.5 -30.5l-8 -9h75v-80zM55 340h520v-80h-290
q-7 -3 -17 -8.5t-26.5 -26.5t-16.5 -45q0 -38 29 -61.5t81 -23.5q29 0 57.5 8t48 20t34.5 24t23 20l7 8h15v-120q-8 -8 -24 -19.5t-67 -31t-104 -19.5q-102 0 -163.5 54.5t-61.5 135.5q0 24 7.5 45.5t14.5 30.5l8 9h-75v80z" />
    <glyph glyph-name="uni20BD" unicode="&#x20bd;" horiz-adv-x="640" 
d="M35 280v95h80v355h215q125 0 192.5 -61t67.5 -164t-67.5 -164t-192.5 -61h-95v-60h255v-95h-255v-125h-120v125h-80v95h80v60h-80zM235 625v-250h95q64 0 99.5 32.5t35.5 92.5t-35.5 92.5t-99.5 32.5h-95z" />
    <glyph glyph-name="afii61352" unicode="&#x2116;" horiz-adv-x="1145" 
d="M790 285v90h300v-90h-300zM1010 590q0 30 -20 50t-50 20t-50 -20t-20 -50t20 -50t50 -20t50 20t20 50zM785 590q0 64 44 107t111 43t111 -43t44 -107t-44 -107t-111 -43t-111 43t-44 107zM705 730v-730h-115l-375 525v-525h-120v730h115l375 -525v525h120z" />
    <glyph glyph-name="trademark" unicode="&#x2122;" horiz-adv-x="800" 
d="M215 565v-265h-80v265h-110v75h300v-75h-110zM460 640l75 -235h5l75 235h80l55 -340h-85l-32 185h-5l-58 -185h-65l-58 185h-5l-32 -185h-85l55 340h80z" />
    <glyph glyph-name="arrowleft" unicode="&#x2190;" horiz-adv-x="990" 
d="M100 310l170 220h110l-130 -170h640v-100h-640l130 -170h-110z" />
    <glyph glyph-name="arrowup" unicode="&#x2191;" horiz-adv-x="640" 
d="M320 730l220 -170v-110l-170 130v-640h-100v640l-170 -130v110z" />
    <glyph glyph-name="arrowright" unicode="&#x2192;" horiz-adv-x="990" 
d="M720 530l170 -220l-170 -220h-110l130 170h-640v100h640l-130 170h110z" />
    <glyph glyph-name="arrowdown" unicode="&#x2193;" horiz-adv-x="640" 
d="M540 110l-220 -170l-220 170v110l170 -130v640h100v-640l170 130v-110z" />
    <glyph glyph-name="minus" unicode="&#x2212;" horiz-adv-x="530" 
d="M65 270v105h400v-105h-400z" />
    <glyph glyph-name="commaaccent" unicode="&#xf6c3;" horiz-adv-x="170" 
d="M140 -125q0 -44 -17.5 -81.5t-34.5 -53.5l-18 -15h-40q6 6 14 16t22 38.5t14 55.5q-50 8 -50 55q0 25 16 40t39 15q24 0 39.5 -17.5t15.5 -52.5z" />
    <glyph glyph-name="cyrBreve" unicode="&#xf6d1;" horiz-adv-x="380" 
d="M190 795q-49 0 -89 12.5t-55 24.5l-16 13v100l6.5 -6.5t19.5 -14.5t32 -18t45 -14.5t57 -6.5q47 0 87 15t57 30l16 15v-100q-6 -6 -17 -14t-52.5 -22t-90.5 -14z" />
    <glyph glyph-name="cyrbreve" unicode="&#xf6d4;" horiz-adv-x="330" 
d="M165 605q-38 0 -71.5 10t-48.5 20l-15 10v100q6 -6 17.5 -15t46.5 -24.5t70 -15.5q36 0 70 14t50 28l16 13v-100l-16.5 -11t-45.5 -18t-73 -11z" />
    <glyph glyph-name="s_t" unicode="&#xfb06;" horiz-adv-x="940" 
d="M460 145q0 -75 -54 -117.5t-166 -42.5q-56 0 -106 16.5t-72 32.5l-22 16l35 95q8 -6 22.5 -15t59 -24.5t88.5 -15.5q100 0 100 60q0 27 -30.5 43t-73.5 26t-86.5 24t-74 48.5t-30.5 88.5q0 66 51.5 110.5t138.5 44.5q17 0 34.5 -2.5t26.5 -4.5l9 -3q-30 25 -30 85
q0 78 56.5 126.5t158.5 48.5q114 0 167 -54t53 -161v-50h165v-105h-165v-235q0 -43 22.5 -66.5t57.5 -23.5q24 0 45.5 10t30.5 20l9 10h15v-100q-5 -5 -14.5 -12.5t-42 -20t-68.5 -12.5q-76 0 -123 50.5t-47 139.5v240h-95v40l95 100v15q0 55 -30 85t-80 30
q-52 0 -83.5 -26.5t-31.5 -68.5q0 -38 15 -69t30 -43l15 -13l-45 -86q-6 6 -16.5 14.5t-47 22.5t-76.5 14q-80 0 -80 -55q0 -23 30 -37t72.5 -24t85 -25.5t72.5 -51.5t30 -92z" />
    <glyph glyph-name="s_h" unicode="&#xfb10;" horiz-adv-x="1135" 
d="M345 150q0 27 -30.5 43t-73.5 26t-86.5 24t-74 48.5t-30.5 88.5q0 66 51.5 110.5t138.5 44.5l65 -5q-25 25 -25 80q0 77 55 126t150 49q30 0 70 -7.5t70 -7.5h60v-330h5q2 4 5.5 10.5t18 22.5t32.5 28.5t48.5 23t65.5 10.5q94 0 149.5 -57t55.5 -158v-320h-115v315
q0 55 -31 85t-84 30q-61 0 -105.5 -43.5t-44.5 -106.5v-280h-115v675q-14 0 -40.5 5t-44.5 5q-49 0 -79.5 -27.5t-30.5 -72.5q0 -36 15 -66t30 -42l15 -12l-45 -86q-6 6 -16.5 14.5t-47 22.5t-76.5 14q-80 0 -80 -55q0 -23 30 -37t72.5 -24t85 -25.5t72.5 -51.5t30 -92
q0 -75 -54 -117.5t-166 -42.5q-56 0 -106 16.5t-72 32.5l-22 16l35 95q8 -6 22.5 -15t59 -24.5t88.5 -15.5q100 0 100 60z" />
    <glyph glyph-name="s_k" unicode="&#xfb11;" horiz-adv-x="1065" 
d="M345 150q0 27 -30.5 43t-73.5 26t-86.5 24t-74 48.5t-30.5 88.5q0 66 51.5 110.5t138.5 44.5l65 -5q-25 25 -25 80q0 77 55 126t150 49q30 0 70 -7.5t70 -7.5h60v-485l235 235h140l-225 -225l240 -295h-135l-180 220l-75 -75v-145h-115v675q-14 0 -40.5 5t-44.5 5
q-49 0 -79.5 -27.5t-30.5 -72.5q0 -33 15 -63t30 -44l15 -13l-45 -86q-6 6 -16.5 14.5t-47 22.5t-76.5 14q-80 0 -80 -55q0 -23 30 -37t72.5 -24t85 -25.5t72.5 -51.5t30 -92q0 -75 -54 -117.5t-166 -42.5q-56 0 -106 16.5t-72 32.5l-22 16l35 95q8 -6 22.5 -15t59 -24.5
t88.5 -15.5q100 0 100 60z" />
    <glyph glyph-name="c_h" unicode="&#xfb12;" horiz-adv-x="1205" 
d="M1135 0h-115v315q0 55 -31 85t-84 30q-61 0 -105.5 -43.5t-44.5 -106.5v-280h-115v675q-14 0 -38 5t-42 5q-49 0 -79.5 -27.5t-30.5 -72.5q0 -29 19 -57.5t37 -43.5l19 -14l-45 -85q-6 5 -16.5 12.5t-47 20t-76.5 12.5q-76 0 -125.5 -48t-49.5 -122t49.5 -122t125.5 -48
q42 0 78.5 15t51.5 30l15 15h20v-105q-2 -2 -7 -6.5t-22 -14.5t-36 -18t-50 -14.5t-65 -6.5q-116 0 -195.5 79.5t-79.5 195.5t79.5 195.5t195.5 79.5l55 -5q-25 25 -25 80q0 77 55 126t150 49q30 0 67.5 -7.5t67.5 -7.5h60v-330h5q2 4 5.5 10.5t18 22.5t32.5 28.5t48.5 23
t65.5 10.5q94 0 149.5 -57t55.5 -158v-320z" />
    <glyph glyph-name="c_k" unicode="&#xfb13;" horiz-adv-x="1135" 
d="M640 0v675q-14 0 -38 5t-42 5q-49 0 -79.5 -27.5t-30.5 -72.5q0 -29 19 -57.5t37 -43.5l19 -14l-45 -85q-6 5 -16.5 12.5t-47 20t-76.5 12.5q-76 0 -125.5 -48t-49.5 -122t49.5 -122t125.5 -48q42 0 78.5 15t51.5 30l15 15h20v-105q-2 -2 -7 -6.5t-22 -14.5t-36 -18
t-50 -14.5t-65 -6.5q-116 0 -195.5 79.5t-79.5 195.5t79.5 195.5t195.5 79.5l55 -5q-25 25 -25 80q0 77 55 126t150 49q29 0 64 -7t58 -8h73v-485l235 235h140l-225 -225l240 -295h-135l-180 220l-75 -75v-145h-115z" />
    <glyph glyph-name="c_t" unicode="&#xfb14;" horiz-adv-x="1020" 
d="M165 260q0 -74 49.5 -122t125.5 -48q42 0 78.5 15t51.5 30l15 15h20v-105q-2 -2 -7 -6.5t-22 -14.5t-36 -18t-50 -14.5t-65 -6.5q-116 0 -195.5 79.5t-79.5 195.5t79.5 195.5t195.5 79.5l60 -5q-25 25 -25 80q0 78 56.5 126.5t158.5 48.5q108 0 164 -55t56 -160v-50h165
v-105h-165v-235q0 -43 22.5 -66.5t57.5 -23.5q24 0 45.5 10t30.5 20l9 10h15v-100q-5 -5 -14.5 -12.5t-42 -20t-68.5 -12.5q-76 0 -123 50.5t-47 139.5v240h-95v40l95 100v15q0 55 -30 85t-80 30q-52 0 -83.5 -26.5t-31.5 -68.5q0 -22 7 -43t17.5 -34t21 -23.5t17.5 -15.5
l7 -4l-45 -85q-6 5 -16.5 12.5t-47 20t-76.5 12.5q-76 0 -125.5 -48t-49.5 -122z" />
    <glyph glyph-name="zero.pnum" horiz-adv-x="630" 
d="M165 365q0 -140 42 -205t108 -65t108 65t42 205t-42 205t-108 65t-108 -65t-42 -205zM585 365q0 -183 -77 -281.5t-193 -98.5t-193 98.5t-77 281.5t77 281.5t193 98.5t193 -98.5t77 -281.5z" />
    <glyph glyph-name="one.pnum" horiz-adv-x="400" 
d="M40 510v120l173 100h87v-730h-120v590z" />
    <glyph glyph-name="two.pnum" horiz-adv-x="585" 
d="M35 0v10l290 385q7 8 17 23t26.5 57t16.5 80t-26 59t-74 21q-35 0 -69.5 -14.5t-59 -35t-43.5 -41t-29 -34.5l-9 -15h-15v125q4 5 10.5 13.5t30 30t48.5 38t63.5 30t77.5 13.5q103 0 161.5 -52.5t58.5 -137.5q0 -49 -22.5 -102.5t-45.5 -82.5l-22 -30l-170 -230h285v-110
h-500z" />
    <glyph glyph-name="three.pnum" horiz-adv-x="575" 
d="M255 350q-27 0 -49.5 -6t-31.5 -12l-9 -7l-55 75l190 220h-225v110h430v-15l-220 -260v-5q110 0 177.5 -65.5t67.5 -164.5q0 -104 -72.5 -169.5t-197.5 -65.5q-62 0 -117 21.5t-79 42.5l-24 21l40 95q7 -8 20 -19.5t60 -31t100 -19.5q71 0 110.5 35t39.5 95q0 57 -42 91
t-113 34z" />
    <glyph glyph-name="four.pnum" horiz-adv-x="620" 
d="M590 290v-110h-105v-180h-120v180h-340v10l290 540h125l-240 -440h165v175h120v-175h105z" />
    <glyph glyph-name="five.pnum" horiz-adv-x="590" 
d="M420 235q0 64 -41 102t-109 38q-22 0 -43 -5.5t-35.5 -13.5t-25.5 -16.5t-16 -13.5l-5 -6l-70 40l55 370h385v-110h-290l-25 -160q35 20 90 20q114 0 182 -69t68 -176q0 -108 -73 -179t-197 -71q-62 0 -118.5 21.5t-81.5 42.5l-25 21l40 100q9 -8 25 -20.5t64.5 -33.5
t95.5 -21q68 0 109 38t41 102z" />
    <glyph glyph-name="six.pnum" horiz-adv-x="620" 
d="M300 730h150q-8 -6 -21 -16.5t-49 -44.5t-66.5 -68.5t-63.5 -84.5t-50 -96h5q5 5 15 12.5t43.5 20t71.5 12.5q107 0 173.5 -68.5t66.5 -171.5t-72.5 -171.5t-187.5 -68.5q-120 0 -192.5 73.5t-72.5 196.5q0 53 14 108t36 100t48.5 87.5t53 74.5t48.5 56t36 37zM315 360
q-61 0 -100.5 -38t-39.5 -97t39.5 -97t100.5 -38t98 36t37 99t-37 99t-98 36z" />
    <glyph glyph-name="seven.pnum" horiz-adv-x="535" 
d="M245 0h-125l235 620h-325v110h480v-15z" />
    <glyph glyph-name="eight.pnum" horiz-adv-x="630" 
d="M315 90q64 0 102 34.5t38 90.5t-38 90.5t-102 34.5t-102 -34.5t-38 -90.5t38 -90.5t102 -34.5zM315 440q49 0 79.5 27.5t30.5 72.5t-30.5 72.5t-79.5 27.5t-79.5 -27.5t-30.5 -72.5t30.5 -72.5t79.5 -27.5zM315 -15q-120 0 -192.5 63.5t-72.5 156.5q0 41 13.5 75
t32.5 53.5t38 33t32 18.5l14 5v5q-4 2 -10.5 5t-22.5 16t-28.5 28.5t-23 42.5t-10.5 58q0 85 62 142.5t168 57.5t168 -57.5t62 -142.5q0 -31 -10 -57.5t-23.5 -43t-27.5 -28t-24 -16.5l-10 -5v-5q5 -2 14 -5.5t31.5 -18t39.5 -33.5t31 -53t14 -75q0 -93 -72.5 -156.5
t-192.5 -63.5z" />
    <glyph glyph-name="nine.pnum" horiz-adv-x="620" 
d="M320 0h-150q8 6 21 16.5t49 44.5t66.5 68.5t63.5 84.5t50 96h-5q-5 -5 -15 -12.5t-43.5 -20t-71.5 -12.5q-107 0 -173.5 68.5t-66.5 171.5t72.5 171.5t187.5 68.5q120 0 192.5 -73.5t72.5 -196.5q0 -53 -14 -108t-36 -100t-48.5 -87.5t-53 -74.5t-48.5 -56t-36 -37z
M305 370q61 0 100.5 38t39.5 97t-39.5 97t-100.5 38t-98 -36t-37 -99t37 -99t98 -36z" />
    <glyph glyph-name="foundryicon" horiz-adv-x="1538" 
d="M278 460v-31h-72v-199h-35v199h-71v31h178zM519 396q32 0 54.5 -25t22.5 -59q0 -36 -22.5 -60.5t-54.5 -24.5q-29 0 -47 21v-79h-34v224h24l9 -19q19 22 48 22zM516 258q19 0 33 16t14 38q0 21 -14 36.5t-33 15.5t-33 -15.5t-14 -36.5q0 -22 13.5 -38t33.5 -16zM333 277
l44 116h37l-77 -190q-16 -34 -49 -34q-7 0 -10 1v28q23 0 31 20l6 16l-63 159h37zM701 396q32 0 54 -24.5t22 -58.5l-1 -15h-119q2 -17 14.5 -29t29.5 -12q27 0 37 17h35q-9 -22 -28.5 -34.5t-43.5 -12.5q-32 0 -55 24.5t-23 60.5q0 35 23 59.5t55 24.5zM657 325h88
q-1 17 -14.5 28.5t-29.5 11.5t-29 -11t-15 -29zM939 460v-31h-72v-199h-35v199h-71v31h178zM1180 396q32 0 54.5 -25t22.5 -59q0 -36 -22.5 -60.5t-54.5 -24.5q-29 0 -47 21v-79h-34v224h24l9 -19q19 22 48 22zM1177 258q19 0 33 16t14 38q0 21 -14 36.5t-33 15.5t-33 -15.5
t-14 -36.5q0 -22 13.5 -38t33.5 -16zM994 277l44 116h37l-77 -190q-16 -34 -49 -34q-7 0 -10 1v28q23 0 31 20l6 16l-63 159h37zM1362 396q32 0 54 -24.5t22 -58.5l-1 -15h-119q2 -17 14.5 -29t29.5 -12q27 0 37 17h35q-9 -22 -28.5 -34.5t-43.5 -12.5q-32 0 -55 24.5
t-23 60.5q0 35 23 59.5t55 24.5zM1318 325h88q-1 17 -14.5 28.5t-29.5 11.5t-29 -11t-15 -29z" />
    <glyph glyph-name="Germandbls" horiz-adv-x="730" 
d="M385 425l110 150q-2 2 -5 6.5t-15 14.5t-25.5 18t-36.5 14.5t-48 6.5q-72 0 -116 -47t-44 -128v-460h-120v460q0 127 78 206t202 79q57 0 105.5 -16t76.5 -38.5t48 -45.5t27 -39l8 -16l-125 -175q8 -2 20 -7t44 -23t56.5 -41t44.5 -63t20 -86q0 -93 -68 -151.5
t-192 -58.5q-40 0 -80 11t-60 22l-20 12l20 110q7 -5 19 -12.5t50 -20t76 -12.5q63 0 96.5 27t33.5 73q0 31 -18.5 58t-45 44t-53 29.5t-44.5 17.5l-19 6v75z" />
    <glyph glyph-name="zero.taboldstyle" 
d="M125 260q0 -75 44 -120t116 -45t116 45t44 120t-44 120t-116 45t-116 -45t-44 -120zM570 260q0 -117 -81 -196t-204 -79t-204 79t-81 196t81 196t204 79t204 -79t81 -196z" />
    <glyph glyph-name="one.taboldstyle" 
d="M110 0v110h140v275l-140 -68v113l175 90h85v-410h140v-110h-400z" />
    <glyph glyph-name="two.taboldstyle" 
d="M45 15l250 230q7 6 17 16t26.5 38.5t16.5 55.5q0 70 -85 70q-44 0 -89 -27.5t-68 -55.5l-23 -27h-15v125q3 4 9.5 10.5t28 22.5t44 28.5t56 23t67.5 10.5q95 0 147.5 -48.5t52.5 -126.5q0 -42 -24 -84.5t-48 -63.5l-23 -22l-85 -80h195v-110h-450v15z" />
    <glyph glyph-name="three.taboldstyle" 
d="M250 140q-27 0 -49.5 -6t-31.5 -12l-9 -7l-55 75l190 220h-225v110h430v-15l-220 -260v-5q110 0 177.5 -65.5t67.5 -164.5q0 -104 -72.5 -169.5t-197.5 -65.5q-62 0 -117 21.5t-79 42.5l-24 21l40 95q7 -8 20 -19.5t60 -31t100 -19.5q71 0 110.5 35t39.5 95q0 57 -42 91
t-113 34z" />
    <glyph glyph-name="four.taboldstyle" 
d="M570 110v-110h-105v-210h-120v210h-345v15l280 505h130l-233 -410h168v170h120v-170h105z" />
    <glyph glyph-name="five.taboldstyle" 
d="M405 25q0 64 -41 102t-109 38q-22 0 -43 -5.5t-35.5 -13.5t-25.5 -16.5t-16 -13.5l-5 -6l-70 40l55 370h385v-110h-290l-25 -160q35 20 90 20q114 0 182 -69t68 -176q0 -108 -73 -179t-197 -71q-62 0 -118.5 21.5t-81.5 42.5l-25 21l40 100q9 -8 25 -20.5t64.5 -33.5
t95.5 -21q68 0 109 38t41 102z" />
    <glyph glyph-name="six.taboldstyle" 
d="M275 730h150q-8 -6 -21 -16.5t-49 -44.5t-66.5 -68.5t-63.5 -84.5t-50 -96h5q5 5 15 12.5t43.5 20t71.5 12.5q107 0 173.5 -68.5t66.5 -171.5t-72.5 -171.5t-187.5 -68.5q-120 0 -192.5 73.5t-72.5 196.5q0 73 25.5 148.5t62.5 131.5t74 102t63 69zM290 360
q-61 0 -100.5 -38t-39.5 -97t39.5 -97t100.5 -38t98 36t37 99t-37 99t-98 36z" />
    <glyph glyph-name="seven.taboldstyle" 
d="M260 -210h-125l235 620h-325v110h480v-15z" />
    <glyph glyph-name="eight.taboldstyle" 
d="M285 90q64 0 102 34.5t38 90.5t-38 90.5t-102 34.5t-102 -34.5t-38 -90.5t38 -90.5t102 -34.5zM285 440q49 0 79.5 27.5t30.5 72.5t-30.5 72.5t-79.5 27.5t-79.5 -27.5t-30.5 -72.5t30.5 -72.5t79.5 -27.5zM285 -15q-120 0 -192.5 63.5t-72.5 156.5q0 41 13.5 75
t32.5 53.5t38 33t32 18.5l14 5v5q-4 2 -10.5 5t-22.5 16t-28.5 28.5t-23 42.5t-10.5 58q0 85 62 142.5t168 57.5t168 -57.5t62 -142.5q0 -31 -10 -57.5t-23.5 -43t-27.5 -28t-24 -16.5l-10 -5v-5q5 -2 14 -5.5t31.5 -18t39.5 -33.5t31 -53t14 -75q0 -93 -72.5 -156.5
t-192.5 -63.5z" />
    <glyph glyph-name="nine.taboldstyle" 
d="M295 -210h-150q8 6 21 16.5t49 44.5t66.5 68.5t63.5 84.5t50 96h-5q-5 -5 -15 -12.5t-43.5 -20t-71.5 -12.5q-107 0 -173.5 68.5t-66.5 171.5t72.5 171.5t187.5 68.5q120 0 192.5 -73.5t72.5 -196.5q0 -73 -25.5 -148.5t-62.5 -131.5t-74 -102t-63 -69zM280 160
q61 0 100.5 38t39.5 97t-39.5 97t-100.5 38t-98 -36t-37 -99t37 -99t98 -36z" />
    <glyph glyph-name="zero.tab" 
d="M135 365q0 -140 42 -205t108 -65t108 65t42 205t-42 205t-108 65t-108 -65t-42 -205zM555 365q0 -183 -77 -281.5t-193 -98.5t-193 98.5t-77 281.5t77 281.5t193 98.5t193 -98.5t77 -281.5z" />
    <glyph glyph-name="one.tab" 
d="M110 0v110h140v480l-140 -80v121l172 99h88v-620h140v-110h-400z" />
    <glyph glyph-name="two.tab" 
d="M30 0v10l290 385q7 8 17 23t26.5 57t16.5 80t-26 59t-74 21q-35 0 -69.5 -14.5t-59 -35t-43.5 -41t-28 -34.5l-10 -15h-15v125q4 5 10.5 13.5t30 30t48.5 38t63.5 30t77.5 13.5q103 0 161.5 -52.5t58.5 -137.5q0 -49 -22.5 -102.5t-44.5 -82.5l-23 -30l-170 -230h285
v-110h-500z" />
    <glyph glyph-name="three.tab" 
d="M250 350q-27 0 -49.5 -6t-31.5 -12l-9 -7l-55 75l190 220h-225v110h430v-15l-220 -260v-5q110 0 177.5 -65.5t67.5 -164.5q0 -104 -72.5 -169.5t-197.5 -65.5q-62 0 -117 21.5t-79 42.5l-24 21l40 95q7 -8 20 -19.5t60 -31t100 -19.5q71 0 110.5 35t39.5 95q0 57 -42 91
t-113 34z" />
    <glyph glyph-name="four.tab" 
d="M565 290v-110h-105v-180h-120v180h-340v10l290 540h125l-240 -440h165v175h120v-175h105z" />
    <glyph glyph-name="five.tab" 
d="M405 235q0 64 -41 102t-109 38q-22 0 -43 -5.5t-35.5 -13.5t-25.5 -16.5t-16 -13.5l-5 -6l-70 40l55 370h385v-110h-290l-25 -160q35 20 90 20q114 0 182 -69t68 -176q0 -108 -73 -179t-197 -71q-62 0 -118.5 21.5t-81.5 42.5l-25 21l40 100q9 -8 25 -20.5t64.5 -33.5
t95.5 -21q68 0 109 38t41 102z" />
    <glyph glyph-name="six.tab" 
d="M275 730h150q-8 -6 -21 -16.5t-49 -44.5t-66.5 -68.5t-63.5 -84.5t-50 -96h5q5 5 15 12.5t43.5 20t71.5 12.5q107 0 173.5 -68.5t66.5 -171.5t-72.5 -171.5t-187.5 -68.5q-120 0 -192.5 73.5t-72.5 196.5q0 73 25.5 148.5t62.5 131.5t74 102t63 69zM290 360
q-61 0 -100.5 -38t-39.5 -97t39.5 -97t100.5 -38t98 36t37 99t-37 99t-98 36z" />
    <glyph glyph-name="seven.tab" 
d="M260 0h-125l235 620h-325v110h480v-15z" />
    <glyph glyph-name="eight.tab" 
d="M285 90q64 0 102 34.5t38 90.5t-38 90.5t-102 34.5t-102 -34.5t-38 -90.5t38 -90.5t102 -34.5zM285 440q49 0 79.5 27.5t30.5 72.5t-30.5 72.5t-79.5 27.5t-79.5 -27.5t-30.5 -72.5t30.5 -72.5t79.5 -27.5zM285 -15q-120 0 -192.5 63.5t-72.5 156.5q0 41 13.5 75
t32.5 53.5t38 33t32 18.5l14 5v5q-4 2 -10.5 5t-22.5 16t-28.5 28.5t-23 42.5t-10.5 58q0 85 62 142.5t168 57.5t168 -57.5t62 -142.5q0 -31 -10 -57.5t-23.5 -43t-27.5 -28t-24 -16.5l-10 -5v-5q5 -2 14 -5.5t31.5 -18t39.5 -33.5t31 -53t14 -75q0 -93 -72.5 -156.5
t-192.5 -63.5z" />
    <glyph glyph-name="nine.tab" 
d="M295 0h-150q8 6 21 16.5t49 44.5t66.5 68.5t63.5 84.5t50 96h-5q-5 -5 -15 -12.5t-43.5 -20t-71.5 -12.5q-107 0 -173.5 68.5t-66.5 171.5t72.5 171.5t187.5 68.5q120 0 192.5 -73.5t72.5 -196.5q0 -73 -25.5 -148.5t-62.5 -131.5t-74 -102t-63 -69zM280 370
q61 0 100.5 38t39.5 97t-39.5 97t-100.5 38t-98 -36t-37 -99t37 -99t98 -36z" />
    <glyph glyph-name="zero.numr" horiz-adv-x="360" 
d="M115 550q0 -110 65 -110t65 110t-65 110t-65 -110zM330 550q0 -91 -42 -140.5t-108 -49.5t-108 49.5t-42 140.5t42 140.5t108 49.5t108 -49.5t42 -140.5z" />
    <glyph glyph-name="one.numr" horiz-adv-x="240" 
d="M30 590v85l95 55h60v-360h-85v257z" />
    <glyph glyph-name="two.numr" horiz-adv-x="325" 
d="M25 380l150 185q25 30 25 55q0 40 -45 40q-24 0 -51.5 -15t-43.5 -30l-15 -15h-10v80q6 7 17.5 17t46.5 26.5t71 16.5q55 0 85 -29t30 -76q0 -24 -8.5 -48t-17.5 -35l-9 -12l-75 -95h120v-75h-270v10z" />
    <glyph glyph-name="three.numr" horiz-adv-x="325" 
d="M155 540q-16 0 -31 -5t-22 -10l-7 -5l-35 40l80 90h-95v80h240v-10l-90 -115q4 0 11 -1.5t24 -9t30 -19.5t24 -35.5t11 -54.5q0 -58 -37.5 -91.5t-107.5 -33.5q-33 0 -63 10t-43 20l-14 10l25 70q40 -35 95 -35q60 0 60 50q0 55 -55 55z" />
    <glyph glyph-name="four.numr" horiz-adv-x="315" 
d="M225 730l-115 -205h50l25 65h55v-65h50v-80h-50v-75h-85v75h-170v10l150 275h90z" />
    <glyph glyph-name="five.numr" horiz-adv-x="335" 
d="M215 485q0 55 -55 55q-16 0 -31 -5t-22 -10l-7 -5l-55 25l30 185h205v-80h-140l-5 -45q15 5 30 5q63 0 99 -34t36 -91q0 -58 -38.5 -91.5t-111.5 -33.5q-33 0 -63 10t-43 20l-14 10l25 70q40 -35 100 -35t60 50z" />
    <glyph glyph-name="six.numr" horiz-adv-x="340" 
d="M30 500q0 36 13.5 73.5t32.5 64t38 48.5t32 33l14 11h105q-8 -5 -22 -14.5t-44.5 -39.5t-48.5 -61q10 5 30 5q56 0 93 -37t37 -93q0 -57 -38.5 -93.5t-101.5 -36.5q-64 0 -102 38t-38 102zM115 490q0 -25 16 -40t39 -15t39 15t16 40t-16 40t-39 15t-39 -15t-16 -40z" />
    <glyph glyph-name="seven.numr" horiz-adv-x="300" 
d="M165 370h-90l105 280h-150v80h260v-10z" />
    <glyph glyph-name="eight.numr" horiz-adv-x="340" 
d="M170 435q55 0 55 45t-55 45t-55 -45t55 -45zM170 595q18 0 29 10t11 25t-11 25t-29 10t-29 -10t-11 -25t11 -25t29 -10zM170 360q-67 0 -103.5 31t-36.5 84q0 31 15 52.5t30 26.5l15 6q-5 2 -12.5 6t-20 23t-12.5 46q0 46 33.5 75.5t91.5 29.5q59 0 92 -29.5t33 -75.5
q0 -27 -11.5 -45.5t-22.5 -23.5l-11 -6q2 -1 6.5 -2t14.5 -7.5t18 -15t14.5 -24.5t6.5 -36q0 -53 -36.5 -84t-103.5 -31z" />
    <glyph glyph-name="nine.numr" horiz-adv-x="340" 
d="M310 600q0 -36 -13.5 -73.5t-32.5 -64t-38 -48.5t-32 -33l-14 -11h-105q8 5 22 14.5t44.5 39.5t48.5 61q-10 -5 -30 -5q-56 0 -93 37t-37 93q0 57 38.5 93.5t101.5 36.5q64 0 102 -38t38 -102zM225 610q0 25 -16 40t-39 15t-39 -15t-16 -40t16 -40t39 -15t39 15t16 40z
" />
    <glyph glyph-name="zero.dnom" horiz-adv-x="360" 
d="M115 180q0 -110 65 -110t65 110t-65 110t-65 -110zM330 180q0 -91 -42 -140.5t-108 -49.5t-108 49.5t-42 140.5t42 140.5t108 49.5t108 -49.5t42 -140.5z" />
    <glyph glyph-name="one.dnom" horiz-adv-x="240" 
d="M30 220v85l95 55h60v-360h-85v257z" />
    <glyph glyph-name="two.dnom" horiz-adv-x="325" 
d="M25 10l150 185q25 30 25 55q0 40 -45 40q-24 0 -51.5 -15t-43.5 -30l-15 -15h-10v80q6 7 17.5 17t46.5 26.5t71 16.5q55 0 85 -29t30 -76q0 -24 -8.5 -48t-17.5 -35l-9 -12l-75 -95h120v-75h-270v10z" />
    <glyph glyph-name="three.dnom" horiz-adv-x="325" 
d="M155 170q-16 0 -31 -5t-22 -10l-7 -5l-35 40l80 90h-95v80h240v-10l-90 -115q4 0 11 -1.5t24 -9t30 -19.5t24 -35.5t11 -54.5q0 -58 -37.5 -91.5t-107.5 -33.5q-33 0 -63 10t-43 20l-14 10l25 70q40 -35 95 -35q60 0 60 50q0 55 -55 55z" />
    <glyph glyph-name="four.dnom" horiz-adv-x="315" 
d="M225 360l-115 -205h50l25 65h55v-65h50v-80h-50v-75h-85v75h-170v10l150 275h90z" />
    <glyph glyph-name="five.dnom" horiz-adv-x="335" 
d="M215 115q0 55 -55 55q-16 0 -31 -5t-22 -10l-7 -5l-55 25l30 185h205v-80h-140l-5 -45q15 5 30 5q63 0 99 -34t36 -91q0 -58 -38.5 -91.5t-111.5 -33.5q-33 0 -63 10t-43 20l-14 10l25 70q40 -35 100 -35t60 50z" />
    <glyph glyph-name="six.dnom" horiz-adv-x="340" 
d="M30 130q0 36 13.5 73.5t32.5 64t38 48.5t32 33l14 11h105q-8 -5 -22 -14.5t-44.5 -39.5t-48.5 -61q10 5 30 5q56 0 93 -37t37 -93q0 -57 -38.5 -93.5t-101.5 -36.5q-64 0 -102 38t-38 102zM115 120q0 -25 16 -40t39 -15t39 15t16 40t-16 40t-39 15t-39 -15t-16 -40z" />
    <glyph glyph-name="seven.dnom" horiz-adv-x="300" 
d="M165 0h-90l105 280h-150v80h260v-10z" />
    <glyph glyph-name="eight.dnom" horiz-adv-x="340" 
d="M170 65q55 0 55 45t-55 45t-55 -45t55 -45zM170 225q18 0 29 10t11 25t-11 25t-29 10t-29 -10t-11 -25t11 -25t29 -10zM170 -10q-67 0 -103.5 31t-36.5 84q0 31 15 52.5t30 26.5l15 6q-5 2 -12.5 6t-20 23t-12.5 46q0 46 33.5 75.5t91.5 29.5q59 0 92 -29.5t33 -75.5
q0 -27 -11.5 -45.5t-22.5 -23.5l-11 -6q2 -1 6.5 -2t14.5 -7.5t18 -15t14.5 -24.5t6.5 -36q0 -53 -36.5 -84t-103.5 -31z" />
    <glyph glyph-name="nine.dnom" horiz-adv-x="340" 
d="M310 230q0 -36 -13.5 -73.5t-32.5 -64t-38 -48.5t-32 -33l-14 -11h-105q8 5 22 14.5t44.5 39.5t48.5 61q-10 -5 -30 -5q-56 0 -93 37t-37 93q0 57 38.5 93.5t101.5 36.5q64 0 102 -38t38 -102zM225 240q0 25 -16 40t-39 15t-39 -15t-16 -40t16 -40t39 -15t39 15t16 40z
" />
    <glyph glyph-name="at.case" horiz-adv-x="990" 
d="M940 395q0 -112 -51.5 -173.5t-133.5 -61.5q-29 0 -54.5 7.5t-40.5 19t-26 22.5t-15 19l-4 7h-5q-2 -3 -5 -8t-16 -18t-28.5 -23t-42.5 -18t-58 -8q-80 0 -132.5 56.5t-52.5 148.5t52.5 148.5t134.5 56.5q26 0 49.5 -6.5t38 -16t25.5 -19.5t15 -16l5 -7l15 55h85v-235
q0 -75 65 -75q37 0 56 32t19 113q0 133 -91.5 219t-243.5 86q-146 0 -240.5 -94.5t-94.5 -240.5t94.5 -240.5t240.5 -94.5q64 0 119 15t78 30l23 15v-110q-8 -5 -24.5 -12.5t-74 -20t-121.5 -12.5q-190 0 -315 123t-125 307t125 307t315 123q196 0 318 -114t122 -286z
M485 255q43 0 74 31.5t31 78.5t-31 78.5t-74 31.5t-74 -31.5t-31 -78.5t31 -78.5t74 -31.5z" />
    <glyph glyph-name="parenleft.case" horiz-adv-x="360" 
d="M180 362q0 -84 16 -167.5t39 -142.5t45.5 -106t38.5 -70l16 -24h-95q-7 9 -19 24.5t-42 68t-53 108.5t-42 140.5t-19 168.5t18 167.5t43.5 142.5t51.5 106t44 70l18 24h95q-6 -9 -16.5 -24.5t-37.5 -68t-47 -108.5t-37 -140.5t-17 -168.5z" />
    <glyph glyph-name="parenright.case" horiz-adv-x="360" 
d="M180 362q0 84 -16 167.5t-38.5 142.5t-45.5 106t-39 70l-16 24h95q7 -9 19 -24.5t42 -68t53 -108.5t42 -140.5t19 -168.5t-18 -167.5t-43.5 -142.5t-51.5 -106t-44 -70l-18 -24h-95q6 9 16.5 24.5t37.5 68t47 108.5t37 140.5t17 168.5z" />
    <glyph glyph-name="bracketleft.case" horiz-adv-x="410" 
d="M95 -145v1015h275v-105h-165v-805h165v-105h-275z" />
    <glyph glyph-name="bracketright.case" horiz-adv-x="410" 
d="M315 870v-1015h-275v105h165v805h-165v105h275z" />
    <glyph glyph-name="braceleft.case" horiz-adv-x="410" 
d="M160 365v-5q4 0 10.5 -1t22.5 -7.5t28.5 -17t23 -33t10.5 -51.5v-210q0 -80 80 -80h40v-105h-45q-185 0 -185 170v200q0 48 -22 69t-68 21v95q46 0 68 21t22 69v200q0 170 185 170h45v-105h-40q-80 0 -80 -80v-210q0 -29 -10 -51.5t-23.5 -33t-27.5 -17t-24 -7.5z" />
    <glyph glyph-name="braceright.case" horiz-adv-x="410" 
d="M250 360v5q-4 0 -10.5 1t-22.5 7.5t-28.5 17t-23 33t-10.5 51.5v210q0 80 -80 80h-40v105h45q185 0 185 -170v-200q0 -48 22 -69t68 -21v-95q-46 0 -68 -21t-22 -69v-200q0 -170 -185 -170h-45v105h40q80 0 80 80v210q0 29 10 51.5t23.5 33t27.5 17t24 7.5z" />
    <glyph glyph-name="exclamdown.case" horiz-adv-x="290" 
d="M85 158l20 362h80l20 -362v-228h-120v228zM210 675q0 -29 -19 -47t-46 -18t-46 18t-19 47t19 47t46 18t46 -18t19 -47z" />
    <glyph glyph-name="questiondown.case" horiz-adv-x="500" 
d="M450 180v-125q-8 -8 -22.5 -19.5t-63 -31t-99.5 -19.5q-103 0 -161.5 53.5t-58.5 141.5q0 41 19.5 79.5t47.5 68.5t56 58.5t47.5 63t19.5 70.5h110q0 -43 -18 -83.5t-43.5 -72t-51.5 -60.5t-44 -59.5t-18 -59.5q0 -41 27.5 -65.5t72.5 -24.5q47 0 88 21.5t59 42.5l18 21
h15zM355 675q0 -29 -19 -47t-46 -18t-46 18t-19 47t19 47t46 18t46 -18t19 -47z" />
    <glyph glyph-name="guillemotleft.case" 
d="M150 360l160 -220h-120l-155 215v20l155 215h120l-160 -220v-10zM375 360l160 -220h-120l-155 215v20l155 215h120l-160 -220v-10z" />
    <glyph glyph-name="guillemotright.case" 
d="M260 140l160 220v10l-160 220h120l155 -215v-20l-155 -215h-120zM35 140l160 220v10l-160 220h120l155 -215v-20l-155 -215h-120z" />
    <glyph glyph-name="guilsinglleft.case" horiz-adv-x="375" 
d="M150 360l190 -220h-120l-185 215v20l185 215h120l-190 -220v-10z" />
    <glyph glyph-name="guilsinglright.case" horiz-adv-x="375" 
d="M35 140l190 220v10l-190 220h120l185 -215v-20l-185 -215h-120z" />
    <glyph glyph-name="hyphen.case" horiz-adv-x="410" 
d="M40 315v105h330v-105h-330z" />
    <glyph glyph-name="endash.case" horiz-adv-x="555" 
d="M40 315v100h475v-100h-475z" />
    <glyph glyph-name="emdash.case" horiz-adv-x="915" 
d="M40 315v100h835v-100h-835z" />
    <glyph glyph-name="periodcentered.case" horiz-adv-x="270" 
d="M70 365q0 29 19 47t46 18t46 -18t19 -47t-19 -47t-46 -18t-46 18t-19 47z" />
    <glyph glyph-name="bullet.case" horiz-adv-x="470" 
d="M120 367q0 51 34 83t81 32t81 -32t34 -83t-34 -83t-81 -32t-81 32t-34 83z" />
    <glyph glyph-name="a.salt" horiz-adv-x="680" 
d="M490 260q0 73 -47.5 121.5t-112.5 48.5t-112.5 -48.5t-47.5 -121.5t47.5 -121.5t112.5 -48.5t112.5 48.5t47.5 121.5zM50 260q0 118 74.5 196.5t180.5 78.5q36 0 68 -10t51.5 -23.5t34 -27.5t20.5 -24l6 -10h5l5 80h110v-520h-110l-5 80h-5q-2 -4 -6 -10.5t-20 -22.5
t-34.5 -28.5t-51 -23t-68.5 -10.5q-106 0 -180.5 78.5t-74.5 196.5z" />
    <glyph glyph-name="atilde.salt" horiz-adv-x="680" 
d="M265 670q-27 0 -52 -12.5t-37 -25.5l-11 -12v90q3 6 10 14t33 22t57 14q36 0 86 -30t79 -30q27 0 52 12.5t36 25.5l12 12v-90q-3 -6 -10 -14t-33 -22t-57 -14q-36 0 -86 30t-79 30zM490 260q0 73 -47.5 121.5t-112.5 48.5t-112.5 -48.5t-47.5 -121.5t47.5 -121.5
t112.5 -48.5t112.5 48.5t47.5 121.5zM50 260q0 118 74.5 196.5t180.5 78.5q36 0 68 -10t51.5 -23.5t34 -27.5t20.5 -24l6 -10h5l5 80h110v-520h-110l-5 80h-5q-2 -4 -6 -10.5t-20 -22.5t-34.5 -28.5t-51 -23t-68.5 -10.5q-106 0 -180.5 78.5t-74.5 196.5z" />
    <glyph glyph-name="aring.salt" horiz-adv-x="680" 
d="M222 705q0 53 34 86.5t86 33.5t86 -33.5t34 -86.5t-34 -86.5t-86 -33.5t-86 33.5t-34 86.5zM292 705q0 -23 14 -36.5t36 -13.5t36 13.5t14 36.5t-14 36.5t-36 13.5t-36 -13.5t-14 -36.5zM490 260q0 73 -47.5 121.5t-112.5 48.5t-112.5 -48.5t-47.5 -121.5t47.5 -121.5
t112.5 -48.5t112.5 48.5t47.5 121.5zM50 260q0 118 74.5 196.5t180.5 78.5q36 0 68 -10t51.5 -23.5t34 -27.5t20.5 -24l6 -10h5l5 80h110v-520h-110l-5 80h-5q-2 -4 -6 -10.5t-20 -22.5t-34.5 -28.5t-51 -23t-68.5 -10.5q-106 0 -180.5 78.5t-74.5 196.5z" />
    <glyph glyph-name="aogonek.salt" horiz-adv-x="680" 
d="M545 0h-50l-5 80h-5q-2 -4 -6 -10.5t-20 -22.5t-34.5 -28.5t-51 -23t-68.5 -10.5q-106 0 -180.5 78.5t-74.5 196.5t74.5 196.5t180.5 78.5q36 0 68 -10t51.5 -23.5t34 -27.5t20.5 -24l6 -10h5l5 80h110v-520q-4 -2 -11 -6.5t-24 -18.5t-30 -29t-24 -38.5t-11 -47.5
q0 -55 55 -55q11 0 22.5 3.5t17.5 7.5l5 4v-55q-25 -20 -70 -20q-52 0 -86 30t-34 75q0 44 32.5 81.5t64.5 52.5zM490 260q0 73 -47.5 121.5t-112.5 48.5t-112.5 -48.5t-47.5 -121.5t47.5 -121.5t112.5 -48.5t112.5 48.5t47.5 121.5z" />
    <glyph glyph-name="amacron.salt" horiz-adv-x="680" 
d="M490 260q0 73 -47.5 121.5t-112.5 48.5t-112.5 -48.5t-47.5 -121.5t47.5 -121.5t112.5 -48.5t112.5 48.5t47.5 121.5zM50 260q0 118 74.5 196.5t180.5 78.5q36 0 68 -10t51.5 -23.5t34 -27.5t20.5 -24l6 -10h5l5 80h110v-520h-110l-5 80h-5q-2 -4 -6 -10.5t-20 -22.5
t-34.5 -28.5t-51 -23t-68.5 -10.5q-106 0 -180.5 78.5t-74.5 196.5zM165 640v85h370v-85h-370z" />
    <glyph glyph-name="adieresis.salt" horiz-adv-x="680" 
d="M490 260q0 73 -47.5 121.5t-112.5 48.5t-112.5 -48.5t-47.5 -121.5t47.5 -121.5t112.5 -48.5t112.5 48.5t47.5 121.5zM50 260q0 118 74.5 196.5t180.5 78.5q36 0 68 -10t51.5 -23.5t34 -27.5t20.5 -24l6 -10h5l5 80h110v-520h-110l-5 80h-5q-2 -4 -6 -10.5t-20 -22.5
t-34.5 -28.5t-51 -23t-68.5 -10.5q-106 0 -180.5 78.5t-74.5 196.5zM182 685q0 29 19 47t46 18t46 -18t19 -47t-19 -47t-46 -18t-46 18t-19 47zM392 685q0 29 19 47t46 18t46 -18t19 -47t-19 -47t-46 -18t-46 18t-19 47z" />
    <glyph glyph-name="acircumflex.salt" horiz-adv-x="680" 
d="M490 260q0 73 -47.5 121.5t-112.5 48.5t-112.5 -48.5t-47.5 -121.5t47.5 -121.5t112.5 -48.5t112.5 48.5t47.5 121.5zM50 260q0 118 74.5 196.5t180.5 78.5q36 0 68 -10t51.5 -23.5t34 -27.5t20.5 -24l6 -10h5l5 80h110v-520h-110l-5 80h-5q-2 -4 -6 -10.5t-20 -22.5
t-34.5 -28.5t-51 -23t-68.5 -10.5q-106 0 -180.5 78.5t-74.5 196.5zM340 705l-115 -110h-75l150 185h80l150 -185h-75z" />
    <glyph glyph-name="abreve.salt" horiz-adv-x="680" 
d="M340 605q-49 0 -89 12.5t-55 24.5l-16 13v100l6.5 -6.5t19.5 -14.5t32 -18t45 -14.5t57 -6.5q47 0 87 15t57 30l16 15v-100q-6 -6 -17 -14t-52.5 -22t-90.5 -14zM490 260q0 73 -47.5 121.5t-112.5 48.5t-112.5 -48.5t-47.5 -121.5t47.5 -121.5t112.5 -48.5t112.5 48.5
t47.5 121.5zM50 260q0 118 74.5 196.5t180.5 78.5q36 0 68 -10t51.5 -23.5t34 -27.5t20.5 -24l6 -10h5l5 80h110v-520h-110l-5 80h-5q-2 -4 -6 -10.5t-20 -22.5t-34.5 -28.5t-51 -23t-68.5 -10.5q-106 0 -180.5 78.5t-74.5 196.5z" />
    <glyph glyph-name="aacute.salt" horiz-adv-x="680" 
d="M297 595l70 185h130l-125 -185h-75zM490 260q0 73 -47.5 121.5t-112.5 48.5t-112.5 -48.5t-47.5 -121.5t47.5 -121.5t112.5 -48.5t112.5 48.5t47.5 121.5zM50 260q0 118 74.5 196.5t180.5 78.5q36 0 68 -10t51.5 -23.5t34 -27.5t20.5 -24l6 -10h5l5 80h110v-520h-110
l-5 80h-5q-2 -4 -6 -10.5t-20 -22.5t-34.5 -28.5t-51 -23t-68.5 -10.5q-106 0 -180.5 78.5t-74.5 196.5z" />
    <glyph glyph-name="agrave.salt" horiz-adv-x="680" 
d="M325 780l70 -185h-75l-125 185h130zM490 260q0 73 -47.5 121.5t-112.5 48.5t-112.5 -48.5t-47.5 -121.5t47.5 -121.5t112.5 -48.5t112.5 48.5t47.5 121.5zM50 260q0 118 74.5 196.5t180.5 78.5q36 0 68 -10t51.5 -23.5t34 -27.5t20.5 -24l6 -10h5l5 80h110v-520h-110
l-5 80h-5q-2 -4 -6 -10.5t-20 -22.5t-34.5 -28.5t-51 -23t-68.5 -10.5q-106 0 -180.5 78.5t-74.5 196.5z" />
    <glyph glyph-name="ae.salt" horiz-adv-x="1075" 
d="M790 535q103 0 169 -71.5t66 -191.5v-37h-415q8 -64 54.5 -104.5t125.5 -40.5q35 0 67 6.5t52.5 16t36 19.5t22.5 16l7 7h15v-110q-8 -7 -24 -17t-67 -26.5t-104 -16.5q-36 0 -68.5 10t-53 23.5t-35.5 27.5t-22 24l-6 10h-5v-80h-110l-5 80h-5q-2 -4 -6 -10.5t-20 -22.5
t-34.5 -28.5t-51 -23t-68.5 -10.5q-106 0 -180.5 78.5t-74.5 196.5t74.5 196.5t180.5 78.5q36 0 68 -10t51.5 -23.5t34 -27.5t20.5 -24l6 -10h5l5 80h110v-80h5q2 4 6 10.5t20 22.5t34.5 28.5t51 23t68.5 10.5zM490 260q0 73 -47.5 121.5t-112.5 48.5t-112.5 -48.5
t-47.5 -121.5t47.5 -121.5t112.5 -48.5t112.5 48.5t47.5 121.5zM775 430q-62 0 -102.5 -30.5t-57.5 -74.5h300q-8 45 -44 75t-96 30z" />
    <glyph glyph-name="afii10065.salt" horiz-adv-x="680" 
d="M490 260q0 73 -47.5 121.5t-112.5 48.5t-112.5 -48.5t-47.5 -121.5t47.5 -121.5t112.5 -48.5t112.5 48.5t47.5 121.5zM50 260q0 118 74.5 196.5t180.5 78.5q36 0 68 -10t51.5 -23.5t34 -27.5t20.5 -24l6 -10h5l5 80h110v-520h-110l-5 80h-5q-2 -4 -6 -10.5t-20 -22.5
t-34.5 -28.5t-51 -23t-68.5 -10.5q-106 0 -180.5 78.5t-74.5 196.5z" />
    <glyph glyph-name="ordfeminine.salt" horiz-adv-x="455" 
d="M315 545q0 51 -28.5 80.5t-71.5 29.5t-71.5 -29.5t-28.5 -80.5t28.5 -80.5t71.5 -29.5t71.5 29.5t28.5 80.5zM410 730v-370h-90l-5 40h-5q-3 -6 -10.5 -14t-37 -22t-67.5 -14q-76 0 -125.5 53t-49.5 142t49.5 142t125.5 53q38 0 66.5 -12.5t38.5 -25.5l10 -12h5l5 40h90z
" />
    <glyph glyph-name="g.salt" horiz-adv-x="665" 
d="M300 -130q83 0 129 45t46 130v60h-5q-2 -4 -5.5 -10t-17 -21.5t-31 -27.5t-49 -21.5t-67.5 -9.5q-102 0 -176 76t-74 184t74 184t176 76q36 0 67 -9.5t49 -22.5t31 -26t18 -23l5 -9h5l5 75h110v-475q0 -128 -76.5 -204t-206.5 -76q-48 0 -91 8.5t-62 17.5l-19 9l-20 120
q7 -6 21.5 -14t62.5 -22t101 -14zM165 275q0 -67 45 -111t110 -44t110 44t45 111t-45 111t-110 44t-110 -44t-45 -111z" />
    <glyph glyph-name="gbreve.salt" horiz-adv-x="665" 
d="M335 625q-49 0 -89 12.5t-56 24.5l-15 13v100l6.5 -6.5t19.5 -14.5t32 -18t45 -14.5t57 -6.5q47 0 87 15t56 30l17 15v-100q-6 -6 -17 -14t-52.5 -22t-90.5 -14zM300 -130q83 0 129 45t46 130v60h-5q-2 -4 -5.5 -10t-17 -21.5t-31 -27.5t-49 -21.5t-67.5 -9.5
q-102 0 -176 76t-74 184t74 184t176 76q36 0 67 -9.5t49 -22.5t31 -26t18 -23l5 -9h5l5 75h110v-475q0 -128 -76.5 -204t-206.5 -76q-48 0 -91 8.5t-62 17.5l-19 9l-20 120q7 -6 21.5 -14t62.5 -22t101 -14zM165 275q0 -67 45 -111t110 -44t110 44t45 111t-45 111t-110 44
t-110 -44t-45 -111z" />
    <glyph glyph-name="gcommaaccent.salt" horiz-adv-x="665" 
d="M270 675q0 42 17.5 79.5t34.5 53.5l18 17h40q-50 -55 -50 -110q23 -4 36.5 -18.5t13.5 -36.5t-16 -38.5t-39 -16.5t-39 18.5t-16 51.5zM300 -130q83 0 129 45t46 130v60h-5q-2 -4 -5.5 -10t-17 -21.5t-31 -27.5t-49 -21.5t-67.5 -9.5q-102 0 -176 76t-74 184t74 184
t176 76q36 0 67 -9.5t49 -22.5t31 -26t18 -23l5 -9h5l5 75h110v-475q0 -128 -76.5 -204t-206.5 -76q-48 0 -91 8.5t-62 17.5l-19 9l-20 120q7 -6 21.5 -14t62.5 -22t101 -14zM165 275q0 -67 45 -111t110 -44t110 44t45 111t-45 111t-110 44t-110 -44t-45 -111z" />
    <glyph glyph-name="l.salt" horiz-adv-x="300" 
d="M280 100v-95q-30 -20 -75 -20q-62 0 -96 39t-34 116v620h115v-620q0 -32 10.5 -43.5t34.5 -11.5q11 0 22.5 3.5t16.5 7.5z" />
    <glyph glyph-name="lacute.salt" horiz-adv-x="300" 
d="M90 835l70 185h130l-125 -185h-75zM280 100v-95q-30 -20 -75 -20q-62 0 -96 39t-34 116v620h115v-620q0 -32 10.5 -43.5t34.5 -11.5q11 0 22.5 3.5t16.5 7.5z" />
    <glyph glyph-name="lcaron.salt" horiz-adv-x="330" 
d="M280 100v-95q-30 -20 -75 -20q-62 0 -96 39t-34 116v620h115v-620q0 -32 10.5 -43.5t34.5 -11.5q11 0 22.5 3.5t16.5 7.5zM360 725q0 -44 -17.5 -81.5t-34.5 -53.5l-18 -15h-40q6 6 14 16t22 38.5t14 55.5q-50 8 -50 55q0 25 16 40t39 15q24 0 39.5 -17.5t15.5 -52.5z
" />
    <glyph glyph-name="lslash.salt" horiz-adv-x="320" 
d="M10 295v100l75 25v340h115v-305l75 25v-100l-75 -25v-215q0 -32 10.5 -43.5t34.5 -11.5q11 0 22.5 3.5t16.5 7.5l6 4v-95q-30 -20 -75 -20q-62 0 -96 39t-34 116v180z" />
    <glyph glyph-name="lcommaaccent.salt" horiz-adv-x="300" 
d="M280 100v-95q-30 -20 -75 -20q-62 0 -96 39t-34 116v620h115v-620q0 -32 10.5 -43.5t34.5 -11.5q11 0 22.5 3.5t16.5 7.5zM220 -135q0 -44 -17.5 -81.5t-34.5 -53.5l-18 -15h-40q6 6 14 16t22 38.5t14 55.5q-50 8 -50 55q0 25 16 40t39 15q24 0 39.5 -17.5t15.5 -52.5z
" />
    <glyph glyph-name="y.salt" horiz-adv-x="590" 
d="M575 520l-210 -515q-42 -104 -72 -154.5t-57 -68t-68 -17.5q-12 0 -24 2.5t-18 4.5l-6 3l-20 100q15 -10 40 -10q29 0 53 29.5t52 110.5l-230 515h120l165 -370h5l150 370h120z" />
    <glyph glyph-name="yacute.salt" horiz-adv-x="590" 
d="M260 595l70 185h130l-125 -185h-75zM575 520l-210 -515q-42 -104 -72 -154.5t-57 -68t-68 -17.5q-12 0 -24 2.5t-18 4.5l-6 3l-20 100q15 -10 40 -10q29 0 53 29.5t52 110.5l-230 515h120l165 -370h5l150 370h120z" />
    <glyph glyph-name="ydieresis.salt" horiz-adv-x="590" 
d="M575 520l-210 -515q-42 -104 -72 -154.5t-57 -68t-68 -17.5q-12 0 -24 2.5t-18 4.5l-6 3l-20 100q15 -10 40 -10q29 0 53 29.5t52 110.5l-230 515h120l165 -370h5l150 370h120zM130 680q0 29 19 47t46 18t46 -18t19 -47t-19 -47t-46 -18t-46 18t-19 47zM340 680
q0 29 19 47t46 18t46 -18t19 -47t-19 -47t-46 -18t-46 18t-19 47z" />
    <glyph glyph-name="afii10085.salt" horiz-adv-x="590" 
d="M575 520l-210 -515q-42 -104 -72 -154.5t-57 -68t-68 -17.5q-12 0 -24 2.5t-18 4.5l-6 3l-20 100q15 -10 40 -10q29 0 53 29.5t52 110.5l-230 515h120l165 -370h5l150 370h120z" />
    <glyph glyph-name="afii10110.salt" horiz-adv-x="590" 
d="M575 520l-210 -515q-42 -104 -72 -154.5t-57 -68t-68 -17.5q-12 0 -24 2.5t-18 4.5l-6 3l-20 100q15 -10 40 -10q29 0 53 29.5t52 110.5l-230 515h120l165 -370h5l150 370h120zM300 605q-38 0 -71.5 10t-48.5 20l-15 10v100q6 -6 17.5 -15t46.5 -24.5t70 -15.5
q36 0 70 14t50 28l16 13v-100l-16.5 -11t-45.5 -18t-73 -11z" />
    <glyph glyph-name="f_l.salt" horiz-adv-x="705" 
d="M685 100v-95q-30 -20 -75 -20q-62 0 -96 39t-34 116v525q-33 0 -84.5 10t-80.5 10q-35 0 -57.5 -23.5t-22.5 -66.5v-75h165v-105h-165v-415h-115v415h-95v105h95v80q0 89 47 139.5t123 50.5q44 0 102 -10t88 -10h115v-630q0 -32 10.5 -43.5t34.5 -11.5q11 0 22.5 3.5
t17.5 7.5z" />
    <glyph glyph-name="f_f_l.salt" horiz-adv-x="1065" 
d="M235 575v-55h245v80q0 89 47 139.5t123 50.5q44 0 102 -10t88 -10h115v-630q0 -32 10.5 -43.5t34.5 -11.5q11 0 22.5 3.5t17.5 7.5l5 4v-95q-30 -20 -75 -20q-62 0 -96 39t-34 116v525q-33 0 -84.5 10t-80.5 10q-35 0 -57.5 -23.5t-22.5 -66.5v-75h165v-105h-165v-415
h-115v415h-245v-415h-115v415h-95v105h95v60q0 89 47 139.5t123 50.5q40 0 73.5 -11t47.5 -23l14 -11l-40 -85q-20 25 -70 25q-35 0 -57.5 -23.5t-22.5 -66.5z" />
    </font>
</defs>
</svg>
